<?xml version="1.0" encoding="utf-8"?>
<!-- Generator: Adobe Illustrator 27.6.1, SVG Export Plug-In . SVG Version: 6.00 Build 0)  -->
<svg version="1.1" id="Calque_1" xmlns="http://www.w3.org/2000/svg" xmlns:xlink="http://www.w3.org/1999/xlink" x="0px" y="0px"
	 viewBox="0 0 514.25 187.56" style="enable-background:new 0 0 514.25 187.56;" xml:space="preserve">
<style type="text/css">
	.st0{fill:#D4B585;}
	.st1{fill:#FFFFFF;}
	.st2{fill:#54BFDE;}
</style>
<g>
	<path class="st0" d="M501.76,91.71h6.13l-36.55-81.49c-0.69-1.53-2.21-2.52-3.89-2.52h-11.76c-1.68,0-3.2,0.99-3.89,2.52
		l-8.24,18.36l-26.88,63.13h5.54c6.86,0,13.05-4.11,15.71-10.42l23.64-55.95l24.57,56.15C488.85,87.7,494.98,91.71,501.76,91.71"/>
	<path class="st1" d="M422.36,49.94c0,5.89-0.72,11.38-2.15,16.47c-1.43,5.09-3.62,9.51-6.57,13.25c-2.94,3.74-6.7,6.68-11.26,8.83
		c-4.57,2.15-9.98,3.23-16.25,3.23h-26.52c-2.55,0-4.62-2.07-4.62-4.62l0-74.77c0-2.55,2.07-4.62,4.62-4.62l25.5,0
		c6.19,0,11.62,0.98,16.3,2.94c4.68,1.96,8.56,4.77,11.66,8.44c3.1,3.66,5.42,8.1,6.96,13.3C421.59,37.6,422.36,43.45,422.36,49.94
		 M405.49,50.05c0-10.42-2.06-17.87-6.17-22.36c-4.11-4.49-10.06-6.74-17.83-6.74h-10.08v57.52l11.1,0c3.4,0,6.51-0.49,9.34-1.47
		c2.83-0.98,5.25-2.56,7.25-4.76c2-2.19,3.57-5.09,4.7-8.72C404.93,59.9,405.49,55.41,405.49,50.05"/>
	<path class="st1" d="M244.32,10.23c-0.69-1.53-2.21-2.52-3.89-2.52h-5.83v17.75l24.53,56.04c2.72,6.21,8.85,10.22,15.63,10.22
		l4.28-4.11L244.32,10.23z"/>
	<path class="st1" d="M274.75,91.72l4.28-4.11l-34.71-77.39c-0.69-1.53-2.21-2.52-3.89-2.52h-11.76c-1.68,0-3.2,0.99-3.89,2.52
		l-8.24,18.36l-26.89,63.13h5.54c6.86,0,13.04-4.11,15.71-10.42l23.64-55.95l24.57,56.15C261.84,87.71,267.97,91.72,274.75,91.72"/>
	<path class="st1" d="M346.91,8.91L346.91,8.91l0,82.81h-3.79c-5.28,0-10.27-2.44-13.5-6.62L289.18,32.8l0,44.48
		c0,7.97-6.46,14.43-14.43,14.43l0-78.54c0-2.36,1.91-4.27,4.27-4.27h0.82c5.28,0,10.27,2.45,13.49,6.62l39.15,50.63l0-42.82
		C332.48,15.37,338.94,8.91,346.91,8.91"/>
	<path class="st1" d="M141.15,167l-0.72,4.44h-1.36l2.34-13.39h1.93l2.44,13.39h-1.42l-0.77-4.44H141.15z M143.41,165.82
		c-0.54-3.11-0.9-5.41-1.03-6.62h-0.06c-0.05,1.02-0.58,4.06-0.98,6.62H143.41z"/>
	<path class="st1" d="M153.29,171.31c0,2.02-0.25,3.72-2.85,3.72c-2.17,0-2.58-1.4-2.58-2.5v-0.05h1.36v0.07
		c0,0.56,0.22,1.39,1.3,1.39c1.16,0,1.43-0.82,1.43-2.33v-1.35c-0.29,0.72-0.86,1.09-1.83,1.09c-1.57,0-2.25-1.06-2.25-3.09v-4.14
		c0-1.89,0.88-3.01,2.47-3.01c1.1,0,1.61,0.54,1.76,1.04c0-0.28,0.05-0.66,0.08-0.88h1.17c-0.02,0.55-0.04,1.48-0.04,2.71V171.31z
		 M149.22,164.18v3.97c0,1.37,0.38,2.04,1.23,2.04c1.3,0,1.5-1.27,1.5-2.67v-3.01c0-1.24-0.14-2.22-1.36-2.22
		C149.61,162.28,149.22,162.98,149.22,164.18"/>
	<path class="st1" d="M157.18,166.58v1.7c0,1.07,0.22,2.2,1.34,2.2c1.06,0,1.27-0.8,1.27-1.83v-0.09h1.33v0.08
		c0,1.2-0.3,2.95-2.6,2.95c-2.13,0-2.66-1.34-2.66-3.41v-3.9c0-1.58,0.6-3.18,2.69-3.18c2.02,0,2.6,1.45,2.6,3.19v2.29H157.18z
		 M159.84,165.53v-1.33c0-0.95-0.14-1.98-1.3-1.98c-1.1,0-1.35,0.87-1.35,2v1.31H159.84z"/>
	<path class="st1" d="M163.62,164.35c0-2.03,0-2.57-0.02-3.08h1.28c0.03,0.23,0.06,0.57,0.06,1.04c0.32-0.78,0.97-1.2,1.97-1.2
		c1.15,0,2.1,0.61,2.1,2.46v7.86h-1.35v-7.61c0-1-0.35-1.54-1.18-1.54c-0.93,0-1.51,0.43-1.51,2.49v6.66h-1.35V164.35z"/>
	<path class="st1" d="M176.72,168.26v0.14c0,1.73-0.47,3.19-2.6,3.19c-2.01,0-2.54-1.33-2.54-3.37v-4.06c0-1.74,0.68-3.05,2.63-3.05
		c2.1,0,2.51,1.46,2.51,2.84v0.42h-1.35v-0.33c0-0.95-0.17-1.82-1.19-1.82c-0.88,0-1.24,0.62-1.24,1.91v4.35
		c0,0.97,0.2,2.01,1.21,2.01c0.89,0,1.22-0.55,1.22-1.94v-0.28H176.72z"/>
	<path class="st1" d="M180.23,166.58v1.7c0,1.07,0.22,2.2,1.34,2.2c1.06,0,1.27-0.8,1.27-1.83v-0.09h1.33v0.08
		c0,1.2-0.3,2.95-2.6,2.95c-2.13,0-2.66-1.34-2.66-3.41v-3.9c0-1.58,0.6-3.18,2.69-3.18c2.02,0,2.6,1.45,2.6,3.19v2.29H180.23z
		 M182.88,165.53v-1.33c0-0.95-0.14-1.98-1.3-1.98c-1.1,0-1.35,0.87-1.35,2v1.31H182.88z"/>
	<path class="st1" d="M190.46,171.43v-13.39h1.63c0.81,2.62,2.85,9.73,3.1,10.92h0.04c-0.08-1.84-0.11-3.72-0.11-5.9v-5.02h1.28
		v13.39h-1.57c-0.83-2.73-2.89-10.1-3.19-11.29h-0.02c0.09,1.61,0.14,3.83,0.14,6.24v5.04H190.46z"/>
	<path class="st1" d="M204.01,169.75c0,0.71,0.01,1.4,0.04,1.68h-1.26c-0.06-0.26-0.1-0.66-0.11-0.84c-0.34,0.78-1.02,1-1.76,1
		c-1.54,0-2.15-1.28-2.15-2.85v-0.18c0-2.25,1.44-3.1,3.35-3.1h0.52v-1.68c0-0.95-0.18-1.57-1.07-1.57c-0.88,0-1.13,0.64-1.13,1.47
		v0.3h-1.33v-0.28c0-1.41,0.59-2.59,2.51-2.59c1.83,0,2.38,1.12,2.38,2.58L204.01,169.75z M202.69,166.5h-0.56
		c-1.28,0-2.02,0.52-2.02,2.03v0.17c0,0.95,0.3,1.74,1.19,1.74c1.05,0,1.4-0.81,1.4-2.37V166.5z"/>
	<path class="st1" d="M205.83,161.27h1.26v-2.51h1.34v2.51h1.55v1.14h-1.55v7.02c0,0.53,0.1,1.06,0.79,1.06
		c0.21,0,0.54-0.02,0.7-0.06v1c-0.31,0.12-0.78,0.14-1.13,0.14c-0.97,0-1.69-0.41-1.69-1.91v-7.25h-1.26V161.27z"/>
</g>
<path class="st1" d="M212.01,159.49h1.35v-2.04h-1.35V159.49z M212.01,171.43h1.35v-10.16h-1.35V171.43z"/>
<g>
	<path class="st1" d="M221.38,164.1v4.34c0,2.21-1.09,3.16-2.75,3.16c-1.66,0-2.69-0.93-2.69-3.1v-4.42c0-1.9,1.04-2.96,2.76-2.96
		C220.47,161.11,221.38,162.22,221.38,164.1 M217.3,164.07v4.47c0,1.18,0.42,1.91,1.36,1.91c0.86,0,1.36-0.55,1.36-1.93v-4.46
		c0-1.05-0.38-1.81-1.35-1.81C217.71,162.25,217.3,162.91,217.3,164.07"/>
	<path class="st1" d="M223.95,164.35c0-2.03,0-2.57-0.02-3.08h1.28c0.03,0.23,0.06,0.57,0.06,1.04c0.32-0.78,0.97-1.2,1.97-1.2
		c1.15,0,2.1,0.61,2.1,2.46v7.86h-1.35v-7.61c0-1-0.35-1.54-1.18-1.54c-0.93,0-1.51,0.43-1.51,2.49v6.66h-1.35V164.35z"/>
	<path class="st1" d="M236.93,169.75c0,0.71,0.01,1.4,0.04,1.68h-1.26c-0.06-0.26-0.1-0.66-0.11-0.84c-0.34,0.78-1.02,1-1.76,1
		c-1.54,0-2.15-1.28-2.15-2.85v-0.18c0-2.25,1.44-3.1,3.35-3.1h0.52v-1.68c0-0.95-0.18-1.57-1.07-1.57c-0.88,0-1.13,0.64-1.13,1.47
		v0.3h-1.33v-0.28c0-1.41,0.59-2.59,2.51-2.59c1.83,0,2.38,1.12,2.38,2.58V169.75z M235.6,166.5h-0.56c-1.28,0-2.02,0.52-2.02,2.03
		v0.17c0,0.95,0.3,1.74,1.19,1.74c1.05,0,1.4-0.81,1.4-2.37V166.5z"/>
</g>
<rect x="239.83" y="157.45" class="st1" width="1.35" height="13.98"/>
<g>
	<path class="st1" d="M245.06,166.58v1.7c0,1.07,0.22,2.2,1.34,2.2c1.06,0,1.27-0.8,1.27-1.83v-0.09H249v0.08
		c0,1.2-0.3,2.95-2.6,2.95c-2.13,0-2.66-1.34-2.66-3.41v-3.9c0-1.58,0.6-3.18,2.69-3.18c2.02,0,2.6,1.45,2.6,3.19v2.29H245.06z
		 M247.72,165.53v-1.33c0-0.95-0.14-1.98-1.3-1.98c-1.1,0-1.35,0.87-1.35,2v1.31H247.72z"/>
	<path class="st1" d="M256.58,170.57v4.29h-1.35V164.2c0-1.39,0-2.29-0.02-2.93h1.29c0.03,0.22,0.06,0.61,0.06,1.11
		c0.26-0.69,0.83-1.27,1.94-1.27c1.47,0,2.18,0.93,2.18,2.94v4.34c0,2.23-0.94,3.2-2.33,3.2
		C257.24,171.59,256.8,171.05,256.58,170.57 M259.31,168.42v-4.35c0-1.3-0.51-1.79-1.22-1.79c-1.22,0-1.52,1.01-1.52,2.36v3.28
		c0,1.22,0.17,2.49,1.43,2.49C258.93,170.42,259.31,169.7,259.31,168.42"/>
	<path class="st1" d="M268.41,164.1v4.34c0,2.21-1.09,3.16-2.75,3.16c-1.66,0-2.69-0.93-2.69-3.1v-4.42c0-1.9,1.04-2.96,2.76-2.96
		C267.5,161.11,268.41,162.22,268.41,164.1 M264.33,164.07v4.47c0,1.18,0.42,1.91,1.36,1.91c0.86,0,1.36-0.55,1.36-1.93v-4.46
		c0-1.05-0.38-1.81-1.35-1.81C264.73,162.25,264.33,162.91,264.33,164.07"/>
	<path class="st1" d="M276.28,168.74c0,1.27,0,2.22,0.02,2.69h-1.28c-0.03-0.18-0.06-0.7-0.06-1.08c-0.32,0.93-0.98,1.24-1.92,1.24
		c-0.85,0-2.08-0.3-2.08-2.58v-7.74h1.35v7.4c0,1.27,0.36,1.76,1.19,1.76c0.77,0,1.43-0.43,1.43-2.52v-6.64h1.35V168.74z"/>
	<path class="st1" d="M279.17,164.73c0-1.63,0.01-2.59-0.02-3.46h1.29c0.02,0.28,0.05,0.86,0.05,1.57c0.39-1.22,1.31-1.68,2.24-1.71
		v1.58c-1.35,0.01-2.21,0.84-2.21,2.62v6.11h-1.35V164.73z"/>
</g>
<rect x="288.43" y="157.45" class="st1" width="1.35" height="13.98"/>
<g>
	<path class="st1" d="M293.66,166.58v1.7c0,1.07,0.22,2.2,1.34,2.2c1.06,0,1.27-0.8,1.27-1.83v-0.09h1.33v0.08
		c0,1.2-0.3,2.95-2.6,2.95c-2.13,0-2.66-1.34-2.66-3.41v-3.9c0-1.58,0.6-3.18,2.69-3.18c2.02,0,2.6,1.45,2.6,3.19v2.29H293.66z
		 M296.31,165.53v-1.33c0-0.95-0.14-1.98-1.3-1.98c-1.1,0-1.35,0.87-1.35,2v1.31H296.31z"/>
	<path class="st1" d="M303.89,158.04h2.46c3.08,0,3.38,1.86,3.38,3.9v5.32c0,2.06-0.33,4.16-3.5,4.16h-2.35V158.04z M305.24,170.32
		h0.89c1.78,0,2.23-0.93,2.23-2.77v-5.78c0-1.62-0.31-2.61-2.21-2.61h-0.91V170.32z"/>
	<path class="st1" d="M313.46,166.58l0,1.7c0,1.07,0.22,2.2,1.34,2.2c1.06,0,1.27-0.8,1.27-1.83v-0.09h1.33v0.08
		c0,1.2-0.3,2.95-2.6,2.95c-2.13,0-2.66-1.34-2.66-3.41v-3.9c0-1.58,0.6-3.18,2.69-3.18c2.02,0,2.6,1.45,2.6,3.19v2.29H313.46z
		 M316.11,165.53v-1.33c0-0.95-0.14-1.98-1.3-1.98c-1.1,0-1.35,0.87-1.35,2v1.31H316.11z M317.56,157.33l-2.42,2.62h-1.21l2.05-2.62
		H317.56z"/>
	<path class="st1" d="M320.64,161.27c0.32,1.65,1.36,6.86,1.59,8.7h0.02c0.16-1.65,1.33-6.92,1.65-8.7h1.36l-2.28,10.16h-1.55
		l-2.22-10.16H320.64z"/>
	<path class="st1" d="M328.36,166.58v1.7c0,1.07,0.22,2.2,1.34,2.2c1.06,0,1.27-0.8,1.27-1.83v-0.09h1.33v0.08
		c0,1.2-0.3,2.95-2.6,2.95c-2.13,0-2.66-1.34-2.66-3.41v-3.9c0-1.58,0.6-3.18,2.69-3.18c2.02,0,2.6,1.45,2.6,3.19v2.29H328.36z
		 M331.01,165.53v-1.33c0-0.95-0.14-1.98-1.3-1.98c-1.1,0-1.35,0.87-1.35,2v1.31H331.01z"/>
</g>
<rect x="334.84" y="157.45" class="st1" width="1.35" height="13.98"/>
<g>
	<path class="st1" d="M344.19,164.09v4.34c0,2.21-1.09,3.16-2.75,3.16c-1.66,0-2.69-0.93-2.69-3.1v-4.42c0-1.9,1.04-2.96,2.76-2.96
		C343.28,161.11,344.19,162.22,344.19,164.09 M340.11,164.07v4.47c0,1.18,0.43,1.91,1.36,1.91c0.87,0,1.36-0.55,1.36-1.93v-4.46
		c0-1.05-0.38-1.81-1.35-1.81C340.52,162.25,340.11,162.91,340.11,164.07"/>
	<path class="st1" d="M348.11,170.57v4.29h-1.35V164.2c0-1.39,0-2.29-0.02-2.93h1.28c0.03,0.22,0.06,0.61,0.06,1.11
		c0.26-0.69,0.83-1.27,1.94-1.27c1.47,0,2.18,0.93,2.18,2.94v4.34c0,2.23-0.94,3.2-2.33,3.2
		C348.78,171.59,348.33,171.05,348.11,170.57 M350.84,168.42v-4.35c0-1.3-0.51-1.79-1.22-1.79c-1.23,0-1.53,1.01-1.53,2.36v3.28
		c0,1.22,0.17,2.49,1.43,2.49C350.46,170.42,350.84,169.7,350.84,168.42"/>
	<path class="st1" d="M356.14,170.57v4.29h-1.35V164.2c0-1.39,0-2.29-0.02-2.93h1.28c0.03,0.22,0.06,0.61,0.06,1.11
		c0.26-0.69,0.83-1.27,1.94-1.27c1.47,0,2.18,0.93,2.18,2.94v4.34c0,2.23-0.94,3.2-2.33,3.2
		C356.8,171.59,356.35,171.05,356.14,170.57 M358.87,168.42v-4.35c0-1.3-0.51-1.79-1.22-1.79c-1.23,0-1.53,1.01-1.53,2.36v3.28
		c0,1.22,0.17,2.49,1.43,2.49C358.48,170.42,358.87,169.7,358.87,168.42"/>
	<path class="st1" d="M363.84,166.58v1.7c0,1.07,0.22,2.2,1.34,2.2c1.06,0,1.27-0.8,1.27-1.83v-0.09h1.33v0.08
		c0,1.2-0.3,2.95-2.6,2.95c-2.13,0-2.66-1.34-2.66-3.41v-3.9c0-1.58,0.6-3.18,2.69-3.18c2.02,0,2.6,1.45,2.6,3.19v2.29H363.84z
		 M366.5,165.53v-1.33c0-0.95-0.14-1.98-1.3-1.98c-1.1,0-1.35,0.87-1.35,2v1.31H366.5z"/>
	<path class="st1" d="M370.28,164.19c0-1.8,0-2.42-0.02-2.92h1.28c0.05,0.29,0.05,0.63,0.06,0.97c0.31-0.69,0.89-1.13,1.83-1.13
		c0.82,0,1.42,0.32,1.66,1.19c0.32-0.64,0.88-1.19,1.96-1.19c1.03,0,2,0.42,2,2.37v7.95h-1.35v-7.68c0-0.82-0.16-1.47-1.05-1.47
		c-1.07,0-1.31,0.92-1.31,2.04v7.11h-1.36v-7.59c0-1.14-0.3-1.56-1.08-1.56c-1.04,0-1.28,0.95-1.28,2.15v7h-1.35V164.19z"/>
	<path class="st1" d="M382.94,166.58v1.7c0,1.07,0.22,2.2,1.34,2.2c1.06,0,1.27-0.8,1.27-1.83v-0.09h1.33v0.08
		c0,1.2-0.3,2.95-2.6,2.95c-2.13,0-2.66-1.34-2.66-3.41v-3.9c0-1.58,0.6-3.18,2.69-3.18c2.02,0,2.6,1.45,2.6,3.19v2.29H382.94z
		 M385.6,165.53v-1.33c0-0.95-0.14-1.98-1.3-1.98c-1.1,0-1.35,0.87-1.35,2v1.31H385.6z"/>
	<path class="st1" d="M389.38,164.35c0-2.03,0-2.57-0.02-3.08h1.28c0.03,0.23,0.06,0.57,0.06,1.04c0.32-0.78,0.97-1.2,1.97-1.2
		c1.15,0,2.1,0.61,2.1,2.46v7.86h-1.35v-7.61c0-1-0.35-1.54-1.18-1.54c-0.94,0-1.51,0.43-1.51,2.49v6.66h-1.35V164.35z"/>
	<path class="st1" d="M396.57,161.27h1.26v-2.51h1.33v2.51h1.56v1.14h-1.56v7.02c0,0.53,0.11,1.06,0.79,1.06
		c0.2,0,0.53-0.02,0.7-0.06v1c-0.31,0.12-0.78,0.15-1.13,0.15c-0.97,0-1.69-0.41-1.69-1.91v-7.25h-1.26V161.27z"/>
	<path class="st1" d="M411.53,157.45v11.41c0,1.13,0,2,0.02,2.57h-1.29c-0.03-0.18-0.06-0.74-0.06-1.01
		c-0.26,0.62-0.75,1.17-1.87,1.17c-1.78,0-2.25-1.33-2.25-3.28v-4.21c0-1.8,0.76-3,2.41-3c0.97,0,1.46,0.39,1.69,0.77v-4.43H411.53z
		 M407.45,164.18v4.15c0,1.38,0.36,2.08,1.26,2.08c1.18,0,1.47-1.08,1.47-2.54v-3.39c0-1.12-0.12-2.2-1.42-2.2
		C407.84,162.28,407.45,163.02,407.45,164.18"/>
	<path class="st1" d="M415.41,166.58v1.7c0,1.07,0.22,2.2,1.34,2.2c1.06,0,1.27-0.8,1.27-1.83v-0.09h1.33v0.08
		c0,1.2-0.3,2.95-2.6,2.95c-2.13,0-2.66-1.34-2.66-3.41v-3.9c0-1.58,0.6-3.18,2.69-3.18c2.02,0,2.6,1.45,2.6,3.19v2.29H415.41z
		 M418.07,165.53v-1.33c0-0.95-0.14-1.98-1.3-1.98c-1.1,0-1.35,0.87-1.35,2v1.31H418.07z"/>
</g>
<rect x="425.59" y="157.45" class="st1" width="1.35" height="13.98"/>
<polygon class="st1" points="429.52,157.45 429.52,159.1 429.6,161.83 430.7,161.83 430.81,159.1 430.81,157.45 "/>
<g>
	<path class="st1" d="M433.74,167l-0.72,4.44h-1.36l2.34-13.39h1.93l2.44,13.39h-1.42l-0.77-4.44H433.74z M436,165.82
		c-0.54-3.11-0.9-5.41-1.03-6.62h-0.06c-0.05,1.02-0.58,4.06-0.98,6.62H436z"/>
	<path class="st1" d="M444.49,170.44c-0.3,0.74-0.91,1.15-1.91,1.15c-1.95,0-2.22-1.78-2.22-3.38v-3.8c0-2.03,0.76-3.31,2.44-3.31
		c1.07,0,1.56,0.51,1.71,0.97c0.01-0.26,0.03-0.55,0.06-0.81h1.28c-0.02,0.68-0.02,1.52-0.02,2.96l0,10.64h-1.34V170.44z
		 M441.73,164.38v3.87c0,1.14,0.23,2.16,1.28,2.16c1.3,0,1.49-1.32,1.49-2.64v-3.15c0-1.1-0.04-2.33-1.4-2.33
		C441.95,162.3,441.73,163.27,441.73,164.38"/>
	<path class="st1" d="M454.04,168.74c0,1.27,0,2.22,0.02,2.69h-1.28c-0.03-0.18-0.06-0.7-0.06-1.08c-0.32,0.93-0.98,1.24-1.92,1.24
		c-0.85,0-2.08-0.3-2.08-2.58l0-7.74h1.35v7.4c0,1.27,0.36,1.76,1.19,1.76c0.77,0,1.43-0.43,1.43-2.52v-6.64h1.35V168.74z"/>
	<path class="st1" d="M461.71,169.75c0,0.71,0.01,1.4,0.04,1.68h-1.26c-0.06-0.26-0.1-0.66-0.11-0.84c-0.34,0.78-1.03,1-1.76,1
		c-1.54,0-2.15-1.28-2.15-2.85v-0.18c0-2.25,1.44-3.1,3.36-3.1h0.52v-1.68c0-0.95-0.18-1.57-1.07-1.57c-0.88,0-1.13,0.64-1.13,1.47
		v0.3h-1.33v-0.28c0-1.41,0.59-2.59,2.51-2.59c1.83,0,2.38,1.12,2.38,2.58V169.75z M460.39,166.49h-0.56
		c-1.28,0-2.02,0.52-2.02,2.03v0.17c0,0.95,0.3,1.74,1.19,1.74c1.05,0,1.4-0.81,1.4-2.37V166.49z"/>
	<path class="st1" d="M469.44,168.26v0.14c0,1.73-0.47,3.19-2.6,3.19c-2.01,0-2.54-1.33-2.54-3.37v-4.06c0-1.74,0.68-3.05,2.63-3.05
		c2.1,0,2.51,1.46,2.51,2.84v0.42h-1.35v-0.33c0-0.95-0.17-1.82-1.19-1.82c-0.88,0-1.24,0.62-1.24,1.91v4.35
		c0,0.97,0.2,2.01,1.21,2.01c0.89,0,1.22-0.55,1.22-1.94v-0.28H469.44z"/>
	<path class="st1" d="M477.07,168.74c0,1.27,0,2.22,0.02,2.69h-1.28c-0.03-0.18-0.06-0.7-0.06-1.08c-0.32,0.93-0.98,1.24-1.92,1.24
		c-0.85,0-2.08-0.3-2.08-2.59v-7.74h1.35v7.4c0,1.27,0.36,1.76,1.19,1.76c0.77,0,1.43-0.43,1.43-2.52v-6.64h1.35V168.74z"/>
</g>
<rect x="479.95" y="157.45" class="st1" width="1.35" height="13.98"/>
<g>
	<path class="st1" d="M483.14,161.27h1.26v-2.51h1.33v2.51h1.56v1.14h-1.56v7.02c0,0.53,0.11,1.06,0.79,1.06
		c0.21,0,0.54-0.02,0.7-0.06v1c-0.31,0.12-0.78,0.14-1.13,0.14c-0.97,0-1.69-0.41-1.69-1.91v-7.25h-1.26V161.27z"/>
	<path class="st1" d="M494.43,168.74c0,1.27,0,2.22,0.02,2.69h-1.28c-0.03-0.18-0.06-0.7-0.06-1.08c-0.32,0.93-0.98,1.24-1.92,1.24
		c-0.85,0-2.08-0.3-2.08-2.58v-7.74h1.35v7.4c0,1.27,0.36,1.76,1.19,1.76c0.77,0,1.43-0.43,1.43-2.52l0-6.64h1.35V168.74z"/>
	<path class="st1" d="M497.32,164.73c0-1.63,0.01-2.59-0.02-3.46h1.29c0.02,0.28,0.05,0.86,0.05,1.57c0.39-1.22,1.31-1.68,2.24-1.71
		v1.58c-1.35,0.01-2.21,0.84-2.21,2.62v6.11h-1.35V164.73z"/>
	<path class="st1" d="M503.89,166.58v1.7c0,1.07,0.22,2.2,1.34,2.2c1.06,0,1.27-0.8,1.27-1.83v-0.09h1.33v0.08
		c0,1.2-0.3,2.95-2.6,2.95c-2.13,0-2.66-1.34-2.66-3.41v-3.9c0-1.58,0.6-3.18,2.69-3.18c2.02,0,2.6,1.45,2.6,3.19v2.29H503.89z
		 M506.54,165.52v-1.33c0-0.95-0.14-1.98-1.3-1.98c-1.1,0-1.35,0.87-1.35,2v1.31H506.54z"/>
</g>
<polygon class="st1" points="143.53,142.51 141.26,142.51 141.26,146.69 139.99,146.69 139.99,142.51 137.71,142.51 137.71,141.26 
	139.99,141.26 139.99,137.08 141.26,137.08 141.26,141.26 143.53,141.26 "/>
<g>
	<path class="st1" d="M146.97,142.26c0.63,0,1.15,0.22,1.58,0.64c0.42,0.43,0.63,0.95,0.63,1.58c0,0.63-0.21,1.15-0.63,1.58
		c-0.42,0.43-0.95,0.64-1.58,0.64c-0.62,0-1.14-0.21-1.56-0.64c-0.42-0.43-0.64-0.95-0.64-1.58c0-0.63,0.21-1.15,0.64-1.58
		C145.83,142.47,146.35,142.26,146.97,142.26 M148.16,144.47c0-0.35-0.11-0.65-0.35-0.88c-0.23-0.23-0.52-0.35-0.85-0.35
		c-0.32,0-0.6,0.12-0.83,0.35c-0.23,0.23-0.35,0.53-0.35,0.88c0,0.35,0.12,0.63,0.35,0.87c0.23,0.24,0.51,0.36,0.83,0.36
		c0.33,0,0.62-0.12,0.85-0.36C148.05,145.1,148.16,144.81,148.16,144.47"/>
	<path class="st1" d="M159.56,141.95c-0.01,1.31-0.48,2.43-1.42,3.34c-0.93,0.92-2.06,1.38-3.38,1.38c-1.32,0-2.43-0.46-3.35-1.39
		c-0.92-0.93-1.38-2.04-1.4-3.34c-0.01-1.33,0.45-2.47,1.37-3.43c0.93-0.95,2.05-1.43,3.38-1.43c1.33,0,2.46,0.48,3.4,1.43
		C159.11,139.48,159.57,140.62,159.56,141.95 M158.23,141.95c0.01-0.99-0.33-1.84-1.01-2.53c-0.68-0.7-1.5-1.04-2.46-1.03
		c-0.96,0.01-1.77,0.36-2.43,1.06c-0.65,0.7-0.98,1.53-0.98,2.49c0.01,0.94,0.34,1.75,1,2.43c0.66,0.68,1.46,1.03,2.41,1.04
		c0.95,0.01,1.76-0.33,2.43-1.01C157.88,143.7,158.22,142.89,158.23,141.95 M153.54,141.94c-0.02-0.35,0.09-0.65,0.32-0.92
		c0.23-0.27,0.54-0.39,0.93-0.38c0.35,0.01,0.64,0.14,0.88,0.4c0.23,0.26,0.34,0.56,0.31,0.92c-0.02,0.31-0.14,0.58-0.36,0.8
		c-0.22,0.22-0.5,0.34-0.83,0.34c-0.36,0.01-0.66-0.1-0.88-0.33C153.68,142.53,153.56,142.26,153.54,141.94"/>
</g>
<polygon class="st1" points="167.93,146.69 160.81,146.69 160.81,137.1 167.93,137.1 167.93,138.37 162.09,138.37 162.09,145.42 
	167.93,145.42 "/>
<polygon class="st1" points="171.6,143.86 175.81,145.58 175.81,146.86 169.3,144.24 172.32,141.68 169.41,139.15 175.81,136.71 
	175.81,137.98 171.82,139.51 174.15,141.56 "/>
<g>
	<path class="st1" d="M186.26,141.95c-0.03,1.31-0.49,2.43-1.41,3.34c-0.92,0.92-2.03,1.38-3.35,1.38c-1.29,0-2.39-0.46-3.31-1.39
		c-0.92-0.93-1.38-2.04-1.39-3.34c-0.01-1.35,0.44-2.5,1.36-3.44c0.92-0.94,2.03-1.42,3.34-1.42c1.33,0,2.45,0.48,3.38,1.42
		C185.81,139.47,186.27,140.61,186.26,141.95 M184.95,141.92c0-0.99-0.34-1.84-1.01-2.54c-0.67-0.71-1.47-1.05-2.39-1.03
		c-0.97,0.01-1.79,0.37-2.44,1.07c-0.66,0.7-0.99,1.54-0.99,2.53c0.03,0.93,0.37,1.73,1.02,2.41c0.65,0.68,1.45,1.03,2.39,1.04
		c0.91-0.01,1.7-0.36,2.37-1.04C184.57,143.67,184.92,142.86,184.95,141.92"/>
</g>
<polygon class="st1" points="189.76,143.86 193.97,145.58 193.97,146.86 187.46,144.24 190.48,141.68 187.57,139.15 193.97,136.71 
	193.97,137.98 189.98,139.51 192.31,141.56 "/>
<polygon class="st1" points="200.78,142.51 198.51,142.51 198.51,146.69 197.24,146.69 197.24,142.51 194.96,142.51 194.96,141.26 
	197.24,141.26 197.24,137.08 198.51,137.08 198.51,141.26 200.78,141.26 "/>
<polygon class="st1" points="212.84,142.51 210.57,142.51 210.57,146.69 209.3,146.69 209.3,142.51 207.01,142.51 207.01,141.26 
	209.3,141.26 209.3,137.08 210.57,137.08 210.57,141.26 212.84,141.26 "/>
<g>
	<path class="st1" d="M216.27,142.26c0.63,0,1.15,0.22,1.58,0.64c0.42,0.43,0.63,0.95,0.63,1.58c0,0.63-0.21,1.15-0.63,1.58
		c-0.42,0.43-0.95,0.64-1.58,0.64c-0.62,0-1.14-0.21-1.56-0.64c-0.42-0.43-0.64-0.95-0.64-1.58c0-0.63,0.21-1.15,0.64-1.58
		C215.14,142.47,215.66,142.26,216.27,142.26 M217.47,144.47c0-0.35-0.11-0.65-0.35-0.88c-0.23-0.23-0.52-0.35-0.85-0.35
		c-0.32,0-0.6,0.12-0.83,0.35c-0.23,0.23-0.35,0.53-0.35,0.88c0,0.35,0.12,0.63,0.35,0.87c0.23,0.24,0.51,0.36,0.83,0.36
		c0.33,0,0.62-0.12,0.85-0.36C217.36,145.1,217.47,144.81,217.47,144.47"/>
</g>
<rect x="219.27" y="137.1" class="st1" width="1.26" height="9.59"/>
<g>
	<path class="st1" d="M223.93,142.26c0.63,0,1.15,0.22,1.58,0.64c0.42,0.43,0.63,0.95,0.63,1.58c0,0.63-0.21,1.15-0.63,1.58
		c-0.42,0.43-0.95,0.64-1.58,0.64c-0.62,0-1.14-0.21-1.56-0.64c-0.42-0.43-0.64-0.95-0.64-1.58c0-0.63,0.21-1.15,0.64-1.58
		C222.8,142.47,223.32,142.26,223.93,142.26 M225.13,144.47c0-0.35-0.11-0.65-0.35-0.88c-0.23-0.23-0.52-0.35-0.85-0.35
		c-0.32,0-0.6,0.12-0.83,0.35c-0.23,0.23-0.35,0.53-0.35,0.88c0,0.35,0.12,0.63,0.35,0.87c0.23,0.24,0.51,0.36,0.83,0.36
		c0.33,0,0.62-0.12,0.85-0.36C225.01,145.1,225.13,144.81,225.13,144.47"/>
</g>
<polygon class="st1" points="234.06,146.69 226.94,146.69 226.94,137.1 234.06,137.1 234.06,138.37 228.22,138.37 228.22,145.42 
	234.06,145.42 "/>
<g>
	<path class="st1" d="M237.67,142.53c0.63,0,1.15,0.2,1.58,0.61c0.42,0.41,0.63,0.9,0.63,1.48c0,0.58-0.21,1.07-0.63,1.46
		c-0.42,0.4-0.95,0.6-1.58,0.6c-0.62,0-1.14-0.2-1.56-0.6c-0.42-0.4-0.64-0.89-0.64-1.46c0-0.58,0.21-1.07,0.64-1.48
		C236.54,142.73,237.06,142.53,237.67,142.53 M237.72,137.1c0.62,0,1.15,0.2,1.57,0.6c0.42,0.4,0.64,0.9,0.64,1.48
		c0,0.58-0.21,1.06-0.64,1.46c-0.42,0.4-0.95,0.6-1.57,0.6c-0.61,0-1.13-0.2-1.56-0.6c-0.43-0.4-0.64-0.89-0.64-1.46
		c0-0.59,0.21-1.08,0.64-1.48C236.59,137.3,237.11,137.1,237.72,137.1 M238.93,144.6c0-0.35-0.12-0.64-0.36-0.88
		c-0.24-0.24-0.54-0.36-0.9-0.36c-0.34,0-0.63,0.12-0.88,0.36c-0.24,0.24-0.37,0.53-0.37,0.88c0,0.35,0.12,0.63,0.37,0.87
		c0.24,0.24,0.54,0.35,0.88,0.35c0.36,0,0.65-0.12,0.9-0.35C238.81,145.23,238.93,144.94,238.93,144.6 M238.97,139.17
		c0-0.35-0.12-0.65-0.36-0.89c-0.24-0.24-0.54-0.35-0.89-0.35c-0.34,0-0.63,0.12-0.87,0.35c-0.24,0.24-0.36,0.53-0.36,0.89
		c0,0.35,0.12,0.63,0.36,0.87c0.24,0.24,0.53,0.36,0.87,0.36c0.35,0,0.65-0.12,0.89-0.36C238.85,139.8,238.97,139.51,238.97,139.17"
		/>
	<path class="st1" d="M250.41,141.95c-0.03,1.31-0.49,2.43-1.41,3.34c-0.92,0.92-2.03,1.38-3.35,1.38c-1.29,0-2.39-0.46-3.31-1.39
		c-0.92-0.93-1.38-2.04-1.39-3.34c-0.01-1.35,0.44-2.5,1.36-3.44c0.92-0.94,2.03-1.42,3.34-1.42c1.33,0,2.45,0.48,3.38,1.42
		C249.96,139.47,250.42,140.61,250.41,141.95 M249.1,141.92c0-0.99-0.34-1.84-1.01-2.54c-0.68-0.71-1.47-1.05-2.39-1.03
		c-0.97,0.01-1.79,0.37-2.44,1.07c-0.66,0.7-0.99,1.54-0.99,2.53c0.03,0.93,0.37,1.73,1.02,2.41c0.65,0.68,1.45,1.03,2.39,1.04
		c0.91-0.01,1.7-0.36,2.37-1.04C248.72,143.67,249.07,142.86,249.1,141.92"/>
</g>
<polygon class="st1" points="257.55,142.51 255.28,142.51 255.28,146.69 254.01,146.69 254.01,142.51 251.72,142.51 251.72,141.26 
	254.01,141.26 254.01,137.08 255.28,137.08 255.28,141.26 257.55,141.26 "/>
<rect x="263.74" y="137.1" class="st1" width="1.26" height="9.59"/>
<polygon class="st1" points="277.02,142.51 274.76,142.51 274.76,146.69 273.48,146.69 273.48,142.51 271.2,142.51 271.2,141.26 
	273.48,141.26 273.48,137.08 274.76,137.08 274.76,141.26 277.02,141.26 "/>
<path class="st1" d="M285.88,137.11l-3.1,4.77l3.12,4.81h-1.38l-2.44-3.76l-2.43,3.76h-1.37l3.12-4.8l-3.12-4.78H285.88z
	 M280.33,138.11l1.77,2.72l1.76-2.72H280.33z"/>
<polygon class="st1" points="294.08,146.69 286.96,146.69 286.96,137.1 294.08,137.1 294.08,138.37 288.24,138.37 288.24,145.42 
	294.08,145.42 "/>
<polygon class="st1" points="297.76,143.86 301.97,145.58 301.97,146.86 295.46,144.24 298.47,141.68 295.57,139.15 301.97,136.71 
	301.97,137.98 297.97,139.51 300.31,141.56 "/>
<rect x="307.84" y="137.1" class="st1" width="1.26" height="9.59"/>
<g>
	<path class="st1" d="M317.43,142.53c0.62,0,1.15,0.2,1.57,0.61c0.42,0.41,0.63,0.9,0.63,1.48c0,0.58-0.21,1.07-0.63,1.46
		c-0.42,0.4-0.95,0.6-1.57,0.6c-0.62,0-1.14-0.2-1.56-0.6c-0.43-0.4-0.64-0.89-0.64-1.46c0-0.58,0.21-1.07,0.64-1.48
		C316.29,142.73,316.81,142.53,317.43,142.53 M317.47,137.1c0.63,0,1.15,0.2,1.57,0.6c0.42,0.4,0.64,0.9,0.64,1.48
		c0,0.58-0.21,1.06-0.64,1.46c-0.42,0.4-0.95,0.6-1.57,0.6c-0.61,0-1.13-0.2-1.56-0.6c-0.43-0.4-0.64-0.89-0.64-1.46
		c0-0.59,0.21-1.08,0.64-1.48C316.34,137.3,316.86,137.1,317.47,137.1 M318.68,144.6c0-0.35-0.12-0.64-0.36-0.88
		c-0.24-0.24-0.54-0.36-0.9-0.36c-0.34,0-0.63,0.12-0.88,0.36c-0.24,0.24-0.37,0.53-0.37,0.88c0,0.35,0.12,0.63,0.37,0.87
		c0.24,0.24,0.53,0.35,0.88,0.35c0.36,0,0.65-0.12,0.9-0.35C318.56,145.23,318.68,144.94,318.68,144.6 M318.73,139.17
		c0-0.35-0.12-0.65-0.36-0.89c-0.24-0.24-0.54-0.35-0.89-0.35c-0.34,0-0.63,0.12-0.87,0.35s-0.36,0.53-0.36,0.89
		c0,0.35,0.12,0.63,0.36,0.87s0.53,0.36,0.87,0.36c0.36,0,0.65-0.12,0.89-0.36C318.6,139.8,318.73,139.51,318.73,139.17"/>
	<path class="st1" d="M330.26,141.95c-0.01,1.31-0.48,2.43-1.42,3.34c-0.93,0.92-2.06,1.38-3.38,1.38c-1.32,0-2.43-0.46-3.35-1.39
		c-0.92-0.93-1.39-2.04-1.4-3.34c-0.01-1.33,0.45-2.47,1.37-3.43c0.93-0.95,2.05-1.43,3.38-1.43c1.33,0,2.46,0.48,3.4,1.43
		C329.81,139.48,330.27,140.62,330.26,141.95 M328.93,141.95c0.01-0.99-0.33-1.84-1.01-2.53c-0.68-0.7-1.5-1.04-2.46-1.03
		c-0.96,0.01-1.77,0.36-2.43,1.06c-0.65,0.7-0.98,1.53-0.98,2.49c0.01,0.94,0.34,1.75,1,2.43c0.65,0.68,1.46,1.03,2.41,1.04
		c0.95,0.01,1.76-0.33,2.43-1.01C328.58,143.7,328.92,142.89,328.93,141.95 M324.24,141.94c-0.02-0.35,0.09-0.65,0.32-0.92
		c0.23-0.27,0.54-0.39,0.93-0.38c0.35,0.01,0.64,0.14,0.87,0.4c0.23,0.26,0.34,0.56,0.32,0.92c-0.02,0.31-0.14,0.58-0.36,0.8
		c-0.22,0.22-0.5,0.34-0.83,0.34c-0.37,0.01-0.66-0.1-0.88-0.33C324.38,142.53,324.26,142.26,324.24,141.94"/>
</g>
<path class="st1" d="M339.08,137.11l-3.1,4.77l3.12,4.81h-1.38l-2.44-3.76l-2.43,3.76h-1.37l3.12-4.8l-3.12-4.78H339.08z
	 M333.53,138.11l1.77,2.72l1.76-2.72H333.53z"/>
<polygon class="st1" points="347.29,146.69 340.17,146.69 340.17,137.1 347.29,137.1 347.29,138.37 341.45,138.37 341.45,145.42 
	347.29,145.42 "/>
<polygon class="st1" points="350.96,143.86 355.17,145.58 355.17,146.86 348.66,144.24 351.67,141.68 348.77,139.15 355.17,136.71 
	355.17,137.98 351.17,139.51 353.51,141.56 "/>
<rect x="361.04" y="137.1" class="st1" width="1.26" height="9.59"/>
<polygon class="st1" points="370.69,143.86 374.9,145.58 374.9,146.86 368.39,144.24 371.4,141.68 368.5,139.15 374.9,136.71 
	374.9,137.98 370.9,139.51 373.24,141.56 "/>
<polygon class="st1" points="382.98,146.69 375.86,146.69 375.86,137.1 382.98,137.1 382.98,138.37 377.14,138.37 377.14,145.42 
	382.98,145.42 "/>
<g>
	<path class="st1" d="M386.59,142.25c0.62,0,1.15,0.22,1.57,0.64c0.42,0.43,0.64,0.95,0.64,1.58s-0.21,1.15-0.63,1.58
		c-0.42,0.43-0.95,0.64-1.58,0.64c-0.62,0-1.14-0.21-1.56-0.64c-0.43-0.43-0.64-0.95-0.64-1.58s0.21-1.15,0.64-1.58
		C385.46,142.47,385.98,142.25,386.59,142.25 M387.79,144.46c0-0.35-0.11-0.65-0.35-0.88c-0.23-0.23-0.52-0.35-0.85-0.35
		c-0.32,0-0.59,0.12-0.83,0.35c-0.23,0.23-0.35,0.53-0.35,0.88c0,0.35,0.11,0.63,0.35,0.87c0.23,0.24,0.51,0.36,0.83,0.36
		c0.33,0,0.62-0.12,0.85-0.36C387.68,145.1,387.79,144.81,387.79,144.46"/>
</g>
<polygon class="st1" points="395.01,137.08 399.06,146.69 397.69,146.69 394.31,138.71 390.92,146.69 389.54,146.69 393.61,137.08 
	"/>
<polygon class="st1" points="405.38,137.08 409.43,146.69 408.06,146.69 404.68,138.71 401.29,146.69 399.91,146.69 403.98,137.08 
	"/>
<g>
	<path class="st1" d="M412.49,142.25c0.62,0,1.15,0.22,1.58,0.64c0.42,0.43,0.63,0.95,0.63,1.58c0,0.63-0.21,1.15-0.63,1.58
		c-0.42,0.43-0.95,0.64-1.58,0.64c-0.62,0-1.14-0.21-1.56-0.64c-0.43-0.43-0.64-0.95-0.64-1.58c0-0.63,0.21-1.15,0.64-1.58
		C411.35,142.47,411.87,142.25,412.49,142.25 M413.69,144.46c0-0.35-0.11-0.65-0.35-0.88c-0.23-0.23-0.52-0.35-0.85-0.35
		c-0.32,0-0.59,0.12-0.83,0.35c-0.23,0.23-0.35,0.53-0.35,0.88c0,0.35,0.12,0.63,0.35,0.87c0.23,0.24,0.51,0.36,0.83,0.36
		c0.33,0,0.62-0.12,0.85-0.36C413.57,145.1,413.69,144.81,413.69,144.46"/>
	<path class="st1" d="M424.98,141.95c-0.03,1.31-0.5,2.43-1.41,3.34c-0.92,0.92-2.03,1.38-3.35,1.38c-1.29,0-2.4-0.46-3.31-1.39
		c-0.92-0.93-1.38-2.04-1.39-3.34c-0.01-1.35,0.44-2.5,1.36-3.44c0.92-0.94,2.03-1.42,3.34-1.42c1.33,0,2.45,0.48,3.38,1.42
		C424.53,139.47,424.99,140.61,424.98,141.95 M423.67,141.92c0-0.99-0.34-1.84-1.01-2.54c-0.68-0.71-1.47-1.05-2.39-1.03
		c-0.97,0.01-1.79,0.37-2.45,1.07c-0.66,0.7-0.99,1.54-0.99,2.53c0.03,0.93,0.37,1.73,1.02,2.41c0.65,0.68,1.45,1.03,2.39,1.04
		c0.91-0.01,1.7-0.36,2.37-1.04C423.29,143.67,423.65,142.86,423.67,141.92"/>
</g>
<rect x="426.26" y="137.1" class="st1" width="1.26" height="9.59"/>
<rect x="433.68" y="137.1" class="st1" width="1.26" height="9.59"/>
<polygon class="st1" points="447.64,145.43 447.64,137.08 448.91,137.08 448.91,146.69 441.12,146.69 441.12,137.08 442.41,137.08 
	442.41,145.43 "/>
<g>
	<path class="st1" d="M452.32,142.25c0.62,0,1.15,0.22,1.58,0.64c0.42,0.43,0.63,0.95,0.63,1.58c0,0.63-0.21,1.15-0.63,1.58
		c-0.42,0.43-0.95,0.64-1.58,0.64c-0.62,0-1.14-0.21-1.56-0.64c-0.43-0.43-0.64-0.95-0.64-1.58c0-0.63,0.21-1.15,0.64-1.58
		C451.19,142.47,451.71,142.25,452.32,142.25 M453.52,144.46c0-0.35-0.11-0.65-0.35-0.88c-0.23-0.23-0.52-0.35-0.85-0.35
		c-0.32,0-0.59,0.12-0.83,0.35c-0.23,0.23-0.35,0.53-0.35,0.88c0,0.35,0.12,0.63,0.35,0.87c0.23,0.24,0.51,0.36,0.83,0.36
		c0.33,0,0.62-0.12,0.85-0.36C453.41,145.1,453.52,144.81,453.52,144.46"/>
</g>
<polygon class="st1" points="462.45,146.69 455.33,146.69 455.33,137.09 462.45,137.09 462.45,138.37 456.61,138.37 456.61,145.42 
	462.45,145.42 "/>
<g>
	<path class="st1" d="M466.06,142.25c0.62,0,1.15,0.22,1.58,0.64c0.42,0.43,0.63,0.95,0.63,1.58s-0.21,1.15-0.63,1.58
		c-0.42,0.43-0.95,0.64-1.58,0.64c-0.62,0-1.14-0.21-1.56-0.64c-0.43-0.43-0.64-0.95-0.64-1.58s0.21-1.15,0.64-1.58
		C464.93,142.47,465.45,142.25,466.06,142.25 M467.26,144.46c0-0.35-0.11-0.65-0.35-0.88c-0.23-0.23-0.52-0.35-0.85-0.35
		c-0.32,0-0.59,0.12-0.83,0.35c-0.23,0.23-0.35,0.53-0.35,0.88c0,0.35,0.12,0.63,0.35,0.87c0.23,0.24,0.51,0.36,0.83,0.36
		c0.33,0,0.62-0.12,0.85-0.36C467.15,145.1,467.26,144.81,467.26,144.46"/>
</g>
<rect x="469.06" y="137.1" class="st1" width="1.26" height="9.59"/>
<polygon class="st1" points="478.7,143.86 482.92,145.58 482.92,146.86 476.41,144.24 479.42,141.68 476.51,139.15 482.92,136.71 
	482.92,137.98 478.92,139.51 481.25,141.56 "/>
<polygon class="st1" points="483.63,146.69 487.77,142.25 485.02,139.5 491.4,137.04 491.4,138.35 487.45,139.87 489.71,142.14 
	485.45,146.69 "/>
<g>
	<path class="st1" d="M496.79,146.69h-1.29v-5.82l-1.55,2.44c-0.23,0.44-0.38,1.02-0.45,1.72c-0.07,0.48-0.1,1.04-0.1,1.66h-1.28
		v-9.59h1.28v5.37c1.43-2.37,2.13-3.97,2.11-4.79v-0.28c0-0.12,0-0.23-0.01-0.31h1.29V146.69z"/>
	<path class="st1" d="M500.34,142.25c0.62,0,1.15,0.22,1.58,0.64c0.42,0.43,0.63,0.95,0.63,1.58s-0.21,1.15-0.63,1.58
		c-0.42,0.43-0.95,0.64-1.58,0.64c-0.62,0-1.14-0.21-1.56-0.64c-0.43-0.43-0.64-0.95-0.64-1.58s0.21-1.15,0.64-1.58
		C499.21,142.47,499.73,142.25,500.34,142.25 M501.54,144.46c0-0.35-0.11-0.65-0.35-0.88c-0.23-0.23-0.52-0.35-0.85-0.35
		c-0.32,0-0.59,0.12-0.83,0.35c-0.23,0.23-0.35,0.53-0.35,0.88c0,0.35,0.12,0.63,0.35,0.87c0.23,0.24,0.51,0.36,0.83,0.36
		c0.33,0,0.62-0.12,0.85-0.36C501.43,145.1,501.54,144.81,501.54,144.46"/>
</g>
<rect x="503.34" y="137.1" class="st1" width="1.26" height="9.59"/>
<rect x="505.84" y="137.1" class="st1" width="1.26" height="9.59"/>
<g>
	<path class="st1" d="M138.56,119.73c0-0.45,0.19-0.91,0.58-1.4c0.39-0.49,0.89-0.95,1.5-1.4c0.61-0.45,1.3-0.86,2.05-1.24
		c0.75-0.38,1.48-0.7,2.2-0.95v-0.79h1.2v6.18c0,0.32,0.02,0.59,0.06,0.81c0.04,0.22,0.11,0.4,0.22,0.54
		c0.11,0.14,0.26,0.24,0.45,0.3c0.19,0.06,0.45,0.09,0.75,0.09h1.03l0.34,0.34v0.67l-0.34,0.33h-0.81c-0.46,0-0.85-0.04-1.17-0.13
		c-0.32-0.09-0.59-0.21-0.8-0.37c-0.21-0.16-0.38-0.34-0.5-0.55c-0.12-0.21-0.2-0.45-0.25-0.7c-0.38,0.08-0.8,0.13-1.27,0.17
		c-0.47,0.03-1.03,0.05-1.67,0.05c-0.56,0-1.05-0.05-1.5-0.15c-0.44-0.1-0.82-0.24-1.12-0.41c-0.31-0.18-0.55-0.38-0.72-0.62
		C138.64,120.25,138.56,120,138.56,119.73 M142.54,120.33c0.37,0,0.77-0.01,1.2-0.04c0.44-0.03,0.82-0.07,1.15-0.13l0-4.09
		c-0.57,0.18-1.15,0.41-1.76,0.69c-0.61,0.29-1.16,0.58-1.66,0.9c-0.5,0.31-0.91,0.63-1.23,0.94c-0.33,0.31-0.49,0.58-0.49,0.81
		c0,0.13,0.04,0.26,0.12,0.38c0.08,0.12,0.23,0.22,0.44,0.29c0.21,0.08,0.5,0.14,0.86,0.18C141.55,120.31,142,120.33,142.54,120.33
		 M141.22,111.97c0-0.23,0.09-0.43,0.26-0.6c0.17-0.17,0.38-0.25,0.63-0.25c0.25,0,0.46,0.08,0.64,0.25
		c0.18,0.17,0.26,0.37,0.26,0.6c0,0.23-0.09,0.43-0.26,0.59c-0.18,0.16-0.39,0.24-0.64,0.24c-0.25,0-0.46-0.08-0.63-0.24
		C141.3,112.4,141.22,112.21,141.22,111.97 M143.8,111.97c0-0.23,0.08-0.43,0.25-0.6c0.16-0.17,0.36-0.25,0.6-0.25
		c0.26,0,0.48,0.08,0.66,0.25c0.17,0.17,0.26,0.37,0.26,0.6c0,0.23-0.09,0.43-0.26,0.59c-0.18,0.16-0.4,0.24-0.66,0.24
		c-0.24,0-0.44-0.08-0.6-0.24C143.88,112.4,143.8,112.21,143.8,111.97"/>
	<path class="st1" d="M152.37,119.91c0,0.53-0.06,0.99-0.17,1.4c-0.11,0.41-0.3,0.75-0.57,1.03c-0.26,0.28-0.62,0.49-1.06,0.64
		c-0.44,0.15-1,0.23-1.67,0.23h-0.28l-0.35-0.33l0-0.67l0.35-0.33h0.67c0.74,0,1.24-0.14,1.5-0.44c0.25-0.29,0.38-0.72,0.38-1.31
		v-4.37h1.2V119.91z M148.28,125.06c0-0.24,0.09-0.44,0.26-0.6c0.17-0.17,0.38-0.25,0.63-0.25c0.25,0,0.46,0.08,0.64,0.25
		c0.18,0.17,0.27,0.37,0.27,0.6c0,0.23-0.09,0.43-0.27,0.59c-0.18,0.16-0.39,0.24-0.64,0.24c-0.25,0-0.46-0.08-0.63-0.24
		C148.37,125.49,148.28,125.29,148.28,125.06 M150.87,125.06c0-0.24,0.08-0.44,0.25-0.6c0.17-0.17,0.37-0.25,0.6-0.25
		c0.26,0,0.48,0.08,0.65,0.25c0.18,0.17,0.27,0.37,0.27,0.6c0,0.23-0.09,0.43-0.27,0.59c-0.18,0.16-0.4,0.24-0.65,0.24
		c-0.24,0-0.44-0.08-0.6-0.24C150.95,125.49,150.87,125.29,150.87,125.06"/>
	<path class="st1" d="M153.93,125.71c0.7,0,1.27-0.07,1.72-0.2c0.45-0.13,0.81-0.36,1.07-0.66c0.26-0.31,0.45-0.7,0.55-1.19
		c0.1-0.49,0.15-1.08,0.15-1.78l0-6.12h1.2v6.12h1.97l0.35,0.33v0.67l-0.35,0.33h-2.04c-0.07,0.58-0.2,1.1-0.37,1.57
		c-0.18,0.47-0.44,0.87-0.79,1.21c-0.35,0.33-0.79,0.59-1.32,0.77c-0.53,0.18-1.18,0.27-1.97,0.27L153.93,125.71z"/>
	<path class="st1" d="M160.59,123.22l-0.35-0.33v-0.67l0.35-0.33h9.88c-0.35-0.92-0.75-1.68-1.2-2.3c-0.44-0.62-0.91-1.11-1.39-1.47
		c-0.48-0.37-0.98-0.63-1.5-0.78c-0.52-0.15-1.03-0.23-1.54-0.23c-0.31,0-0.65,0.05-1.03,0.16c-0.38,0.11-0.76,0.29-1.15,0.55
		l-0.67-1.14c0.53-0.36,1.05-0.6,1.54-0.72c0.5-0.12,0.99-0.19,1.49-0.19c0.64,0,1.27,0.11,1.91,0.32c0.64,0.21,1.25,0.56,1.83,1.05
		c0.58,0.49,1.13,1.12,1.64,1.89c0.51,0.78,0.96,1.73,1.36,2.86h1.82l0.35,0.33v0.67l-0.35,0.33H160.59z"/>
	<path class="st1" d="M180.17,121.87l0.35,0.33v0.67l-0.35,0.33h-6.59l-0.35-0.33v-0.67l0.35-0.33h0.53c0.81,0,1.38-0.14,1.69-0.43
		c0.31-0.29,0.47-0.76,0.47-1.41v-4.27h1.2v4.06c0,0.54-0.04,0.97-0.13,1.29c-0.09,0.32-0.25,0.58-0.49,0.77H180.17z M175.11,125.06
		c0-0.24,0.09-0.44,0.26-0.6c0.17-0.17,0.38-0.25,0.63-0.25c0.25,0,0.46,0.08,0.64,0.25c0.18,0.17,0.27,0.37,0.27,0.6
		c0,0.23-0.09,0.43-0.27,0.59c-0.18,0.16-0.39,0.24-0.64,0.24c-0.25,0-0.46-0.08-0.63-0.24
		C175.2,125.49,175.11,125.29,175.11,125.06"/>
	<path class="st1" d="M183.72,119.85c0,0.48-0.05,0.93-0.14,1.33c-0.1,0.41-0.27,0.76-0.53,1.06c-0.26,0.3-0.61,0.54-1.05,0.71
		c-0.44,0.17-1.02,0.26-1.73,0.26h-0.09l-0.35-0.33v-0.67l0.35-0.33h0.53c0.36,0,0.67-0.04,0.9-0.13c0.24-0.09,0.42-0.21,0.56-0.37
		c0.14-0.16,0.23-0.34,0.28-0.55c0.05-0.21,0.07-0.44,0.07-0.69v-9.35h1.2V119.85z"/>
</g>
<rect x="187.44" y="110.78" class="st1" width="1.2" height="12.43"/>
<g>
	<path class="st1" d="M194.48,119.73c0-0.45,0.19-0.91,0.58-1.4c0.39-0.49,0.89-0.95,1.5-1.4c0.61-0.45,1.3-0.86,2.05-1.24
		c0.75-0.38,1.48-0.7,2.2-0.95v-0.79h1.2v6.18c0,0.32,0.02,0.59,0.06,0.81c0.04,0.22,0.11,0.4,0.22,0.54
		c0.11,0.14,0.26,0.24,0.45,0.3c0.19,0.06,0.45,0.09,0.75,0.09h1.03l0.34,0.34v0.67l-0.34,0.33h-0.81c-0.46,0-0.85-0.04-1.17-0.13
		c-0.32-0.09-0.59-0.21-0.8-0.37c-0.21-0.16-0.38-0.34-0.5-0.55c-0.12-0.21-0.2-0.45-0.25-0.7c-0.38,0.08-0.8,0.13-1.27,0.17
		c-0.47,0.03-1.03,0.05-1.67,0.05c-0.56,0-1.05-0.05-1.5-0.15c-0.44-0.1-0.82-0.24-1.12-0.41c-0.31-0.18-0.55-0.38-0.72-0.62
		C194.57,120.25,194.48,120,194.48,119.73 M198.47,120.33c0.37,0,0.77-0.01,1.2-0.04c0.44-0.03,0.82-0.07,1.15-0.13v-4.09
		c-0.57,0.18-1.15,0.41-1.76,0.69c-0.61,0.29-1.16,0.58-1.66,0.9c-0.5,0.31-0.91,0.63-1.23,0.94c-0.32,0.31-0.49,0.58-0.49,0.81
		c0,0.13,0.04,0.26,0.12,0.38c0.08,0.12,0.23,0.22,0.44,0.29c0.21,0.08,0.5,0.14,0.86,0.18
		C197.47,120.31,197.93,120.33,198.47,120.33 M197.14,111.97c0-0.23,0.09-0.43,0.26-0.6c0.17-0.17,0.38-0.25,0.63-0.25
		c0.25,0,0.46,0.08,0.64,0.25c0.18,0.17,0.26,0.37,0.26,0.6s-0.09,0.43-0.26,0.59c-0.18,0.16-0.39,0.24-0.64,0.24
		c-0.25,0-0.46-0.08-0.63-0.24C197.22,112.4,197.14,112.21,197.14,111.97 M199.72,111.97c0-0.23,0.08-0.43,0.25-0.6
		c0.16-0.17,0.36-0.25,0.6-0.25c0.26,0,0.48,0.08,0.66,0.25c0.17,0.17,0.26,0.37,0.26,0.6s-0.09,0.43-0.26,0.59
		c-0.18,0.16-0.4,0.24-0.66,0.24c-0.24,0-0.44-0.08-0.6-0.24C199.81,112.4,199.72,112.21,199.72,111.97"/>
	<path class="st1" d="M211.13,121.87l0.35,0.33v0.67l-0.35,0.33h-6.59l-0.35-0.33v-0.67l0.35-0.33h0.53c0.81,0,1.38-0.14,1.69-0.43
		c0.31-0.29,0.47-0.76,0.47-1.41v-4.27h1.2v4.06c0,0.54-0.04,0.97-0.13,1.29c-0.09,0.32-0.25,0.58-0.49,0.77H211.13z M204.95,125.06
		c0-0.24,0.09-0.44,0.26-0.6c0.17-0.17,0.38-0.25,0.63-0.25c0.25,0,0.46,0.08,0.64,0.25c0.18,0.17,0.27,0.37,0.27,0.6
		c0,0.23-0.09,0.43-0.27,0.59c-0.18,0.16-0.39,0.24-0.64,0.24c-0.25,0-0.46-0.08-0.63-0.24
		C205.04,125.49,204.95,125.29,204.95,125.06 M207.53,125.06c0-0.24,0.08-0.44,0.25-0.6c0.16-0.17,0.37-0.25,0.6-0.25
		c0.26,0,0.48,0.08,0.66,0.25c0.18,0.17,0.26,0.37,0.26,0.6c0,0.23-0.09,0.43-0.26,0.59c-0.18,0.16-0.4,0.24-0.66,0.24
		c-0.23,0-0.44-0.08-0.6-0.24C207.62,125.49,207.53,125.29,207.53,125.06"/>
	<path class="st1" d="M214.88,119.91c0,0.53-0.06,0.99-0.17,1.4c-0.11,0.41-0.3,0.75-0.57,1.03c-0.26,0.28-0.62,0.49-1.06,0.64
		c-0.44,0.15-1,0.23-1.67,0.23h-0.28l-0.35-0.33v-0.67l0.35-0.33h0.67c0.74,0,1.24-0.15,1.5-0.44c0.25-0.29,0.38-0.72,0.38-1.31
		v-4.37h1.2V119.91z M216.39,113.26c-0.11,0.3-0.18,0.49-0.23,0.57l-0.21,0.19c-0.05,0.02-0.17,0.03-0.37,0.04
		c-0.2,0.01-0.44,0.01-0.72,0.01h-0.9c-0.32,0-0.61-0.01-0.89-0.02c-0.31-0.01-0.61-0.02-0.92-0.03v-0.81h0.9
		c-0.15-0.16-0.27-0.33-0.35-0.52c-0.08-0.19-0.12-0.37-0.12-0.55c0-0.2,0.04-0.41,0.13-0.61c0.09-0.21,0.22-0.39,0.38-0.56
		c0.16-0.17,0.36-0.31,0.59-0.41c0.23-0.11,0.49-0.16,0.77-0.16c0.21,0,0.42,0.02,0.62,0.06c0.2,0.04,0.42,0.12,0.66,0.23
		l-0.32,0.95c-0.21-0.1-0.41-0.17-0.6-0.21c-0.19-0.04-0.36-0.06-0.53-0.06c-0.27,0-0.48,0.07-0.63,0.2
		c-0.15,0.13-0.22,0.27-0.22,0.42c0,0.1,0.03,0.21,0.08,0.33c0.05,0.12,0.13,0.24,0.24,0.35c0.11,0.11,0.24,0.2,0.4,0.27
		c0.16,0.07,0.34,0.11,0.56,0.11h0.25c0.5,0,1.02-0.05,1.57-0.15L216.39,113.26z"/>
	<path class="st1" d="M219.29,110.78v9.35c0,0.64,0.13,1.09,0.4,1.35c0.27,0.26,0.76,0.39,1.48,0.39h0.49l0.36,0.33v0.67l-0.36,0.33
		h-0.09c-0.71,0-1.29-0.09-1.74-0.26c-0.45-0.17-0.8-0.41-1.06-0.71c-0.26-0.3-0.44-0.66-0.54-1.07c-0.1-0.41-0.15-0.85-0.15-1.33
		v-9.06H219.29z"/>
	<path class="st1" d="M223.74,121.42c0-0.58,0.12-1.16,0.35-1.74c0.24-0.58,0.54-1.11,0.92-1.57c0.38-0.47,0.81-0.85,1.29-1.14
		c0.48-0.29,0.96-0.43,1.46-0.43c0.35,0,0.67,0.07,0.94,0.2c0.27,0.13,0.53,0.36,0.76,0.67c0.23,0.31,0.46,0.73,0.69,1.24
		c0.23,0.51,0.47,1.14,0.73,1.89l0.44,1.34h1.31l0.35,0.33v0.67l-0.35,0.33h-2.07c-0.51,0.37-1.07,0.63-1.68,0.79
		c-0.61,0.16-1.17,0.24-1.68,0.24c-0.47,0-0.88-0.04-1.23-0.11c-0.35-0.07-0.65-0.17-0.9-0.31c-0.25-0.13-0.47-0.29-0.64-0.48
		c-0.17-0.18-0.32-0.39-0.43-0.61c-0.38,0.32-0.93,0.49-1.64,0.49h-0.67l-0.35-0.33v-0.67l0.35-0.33h1.15
		c0.34,0,0.58-0.03,0.72-0.07C223.67,121.75,223.74,121.62,223.74,121.42 M227.44,122.9c0.21,0,0.44-0.02,0.67-0.05
		c0.24-0.03,0.48-0.08,0.72-0.14c0.24-0.06,0.48-0.14,0.7-0.23c0.22-0.09,0.43-0.18,0.62-0.28l-0.42-1.29
		c-0.2-0.61-0.4-1.12-0.58-1.51c-0.19-0.39-0.38-0.7-0.57-0.93c-0.19-0.23-0.38-0.39-0.57-0.47c-0.19-0.08-0.38-0.13-0.58-0.13
		c-0.28,0-0.57,0.1-0.86,0.29c-0.29,0.19-0.55,0.44-0.8,0.75c-0.24,0.31-0.44,0.66-0.59,1.05c-0.15,0.39-0.23,0.78-0.23,1.17
		c0,0.55,0.2,0.98,0.61,1.3C225.96,122.74,226.59,122.9,227.44,122.9"/>
	<path class="st1" d="M236.17,119.85c0,0.48-0.05,0.93-0.14,1.33c-0.1,0.41-0.27,0.76-0.53,1.06c-0.26,0.3-0.61,0.54-1.05,0.71
		c-0.44,0.17-1.02,0.26-1.73,0.26h-0.09l-0.35-0.33v-0.67l0.35-0.33h0.53c0.36,0,0.67-0.04,0.9-0.13c0.24-0.09,0.42-0.21,0.56-0.37
		c0.14-0.16,0.23-0.34,0.28-0.55c0.05-0.21,0.07-0.44,0.07-0.69v-9.35h1.2V119.85z"/>
</g>
<rect x="239.89" y="110.78" class="st1" width="1.2" height="12.43"/>
<g>
	<path class="st1" d="M251.29,116.26c0.79,0,1.48,0.23,2.07,0.69l-0.71,1.17c-0.31-0.19-0.59-0.32-0.85-0.4
		c-0.26-0.08-0.54-0.12-0.85-0.12c-0.28,0-0.56,0.05-0.82,0.15c-0.27,0.1-0.5,0.23-0.71,0.4c-0.21,0.17-0.37,0.37-0.49,0.61
		c-0.12,0.23-0.18,0.48-0.18,0.75c0,0.26,0.06,0.52,0.19,0.8c0.13,0.28,0.33,0.53,0.58,0.76c0.26,0.23,0.59,0.42,0.98,0.57
		c0.39,0.15,0.84,0.23,1.36,0.23c0.55,0,1.07-0.01,1.53-0.03c0.47-0.02,0.83-0.06,1.09-0.12l-0.12,0.37
		c-0.07,0.22-0.14,0.4-0.2,0.53c-0.06,0.13-0.11,0.23-0.15,0.31l-0.13,0.16l-0.13,0.07c-0.03,0.01-0.12,0.02-0.26,0.03
		c-0.14,0.01-0.3,0.01-0.49,0.02c-0.19,0-0.39,0.01-0.62,0.01h-0.62h-1.27c-0.44,0-0.89,0-1.33-0.01c-0.44,0-0.87-0.01-1.29-0.02
		c-0.41-0.01-0.79-0.01-1.13-0.03v-1.14h2.16c-0.39-0.19-0.72-0.49-0.98-0.9c-0.27-0.41-0.4-0.85-0.4-1.33
		c0-0.46,0.09-0.9,0.27-1.32c0.18-0.42,0.43-0.8,0.75-1.13c0.32-0.33,0.72-0.59,1.18-0.79
		C250.21,116.36,250.73,116.26,251.29,116.26"/>
	<path class="st1" d="M258.18,110.78v9.35c0,0.64,0.13,1.09,0.4,1.35c0.27,0.26,0.76,0.39,1.48,0.39h0.49l0.36,0.33v0.67l-0.36,0.33
		h-0.09c-0.71,0-1.29-0.09-1.74-0.26c-0.45-0.17-0.8-0.41-1.06-0.71c-0.26-0.3-0.44-0.66-0.54-1.07c-0.1-0.41-0.15-0.85-0.15-1.33
		v-9.06H258.18z"/>
	<path class="st1" d="M267.14,121.87l0.35,0.33v0.67l-0.35,0.33h-6.59l-0.35-0.33v-0.67l0.35-0.33h0.53c0.81,0,1.38-0.14,1.69-0.43
		c0.31-0.29,0.47-0.76,0.47-1.41v-4.27h1.2v4.06c0,0.54-0.04,0.97-0.13,1.29c-0.09,0.32-0.25,0.58-0.49,0.77H267.14z M260.96,125.06
		c0-0.24,0.09-0.44,0.26-0.6c0.17-0.17,0.38-0.25,0.63-0.25c0.25,0,0.46,0.08,0.64,0.25c0.18,0.17,0.27,0.37,0.27,0.6
		c0,0.23-0.09,0.43-0.27,0.59c-0.18,0.16-0.39,0.24-0.64,0.24c-0.25,0-0.46-0.08-0.63-0.24
		C261.05,125.49,260.96,125.29,260.96,125.06 M263.54,125.06c0-0.24,0.08-0.44,0.25-0.6c0.16-0.17,0.37-0.25,0.6-0.25
		c0.26,0,0.48,0.08,0.66,0.25c0.18,0.17,0.26,0.37,0.26,0.6c0,0.23-0.09,0.43-0.26,0.59c-0.18,0.16-0.4,0.24-0.66,0.24
		c-0.23,0-0.44-0.08-0.6-0.24C263.63,125.49,263.54,125.29,263.54,125.06"/>
	<path class="st1" d="M277.02,121.87c-0.35-0.92-0.75-1.68-1.2-2.3c-0.44-0.62-0.91-1.11-1.39-1.47s-0.98-0.63-1.5-0.78
		c-0.52-0.15-1.03-0.23-1.54-0.23c-0.31,0-0.65,0.05-1.03,0.16c-0.38,0.11-0.76,0.29-1.15,0.55l-0.67-1.14
		c0.53-0.36,1.04-0.6,1.54-0.72c0.5-0.12,0.99-0.19,1.49-0.19c0.68,0,1.35,0.11,1.99,0.35c0.64,0.23,1.26,0.59,1.84,1.1
		c0.58,0.5,1.13,1.16,1.63,1.96c0.5,0.81,0.96,1.78,1.37,2.93l-0.69,1.12l-10.57,0l-0.35-0.33v-0.67l0.35-0.33H277.02z"/>
	<path class="st1" d="M285.42,121.87l-1.13-6.57l1.24-0.29l1.11,6.85h1.61c0.34,0,0.62-0.03,0.82-0.09
		c0.21-0.06,0.37-0.16,0.49-0.29c0.12-0.13,0.2-0.3,0.23-0.51c0.04-0.21,0.05-0.45,0.05-0.73v-9.47h1.2v9.15
		c0,0.48-0.04,0.92-0.13,1.32c-0.09,0.4-0.26,0.75-0.5,1.04c-0.24,0.29-0.57,0.52-0.98,0.68c-0.41,0.16-0.94,0.24-1.59,0.24h-7.79
		v-1.34H285.42z M286.41,112.82c-0.11,0.3-0.19,0.49-0.23,0.57l-0.21,0.18c-0.05,0.02-0.17,0.04-0.37,0.04
		c-0.2,0-0.44,0.01-0.73,0.01h-0.9c-0.32,0-0.61-0.01-0.89-0.02c-0.31-0.01-0.61-0.02-0.92-0.03v-0.8h0.9
		c-0.15-0.16-0.27-0.33-0.35-0.52c-0.08-0.19-0.12-0.37-0.12-0.55c0-0.2,0.04-0.41,0.13-0.61c0.09-0.21,0.22-0.39,0.38-0.56
		c0.16-0.17,0.36-0.31,0.59-0.41c0.23-0.1,0.49-0.16,0.77-0.16c0.21,0,0.42,0.02,0.62,0.06c0.2,0.04,0.42,0.11,0.66,0.22l-0.32,0.96
		c-0.21-0.1-0.41-0.17-0.6-0.21c-0.19-0.04-0.37-0.06-0.53-0.06c-0.27,0-0.48,0.07-0.63,0.2c-0.15,0.13-0.22,0.27-0.22,0.42
		c0,0.1,0.03,0.21,0.08,0.33c0.05,0.12,0.13,0.24,0.24,0.35c0.11,0.11,0.24,0.2,0.4,0.28s0.35,0.11,0.56,0.11h0.25
		c0.5,0,1.02-0.05,1.58-0.15L286.41,112.82z"/>
</g>
<rect x="294.63" y="110.78" class="st1" width="1.2" height="12.43"/>
<g>
	<path class="st1" d="M301.67,119.73c0-0.45,0.19-0.91,0.58-1.4c0.39-0.49,0.89-0.95,1.5-1.4c0.61-0.45,1.3-0.86,2.05-1.24
		c0.75-0.38,1.48-0.7,2.2-0.95v-0.79h1.2v6.18c0,0.32,0.02,0.59,0.06,0.81c0.04,0.22,0.11,0.4,0.22,0.54
		c0.11,0.14,0.26,0.24,0.45,0.3c0.19,0.06,0.45,0.09,0.75,0.09h1.03l0.34,0.34v0.67l-0.34,0.33h-0.81c-0.46,0-0.85-0.04-1.17-0.13
		c-0.32-0.09-0.58-0.21-0.8-0.37c-0.21-0.16-0.38-0.34-0.49-0.55c-0.12-0.21-0.2-0.45-0.25-0.7c-0.38,0.08-0.8,0.13-1.27,0.17
		c-0.47,0.03-1.03,0.05-1.67,0.05c-0.56,0-1.05-0.05-1.5-0.15c-0.44-0.1-0.82-0.24-1.12-0.41c-0.31-0.18-0.55-0.38-0.72-0.62
		C301.76,120.25,301.67,120,301.67,119.73 M305.66,120.33c0.37,0,0.77-0.01,1.2-0.04c0.44-0.03,0.82-0.07,1.15-0.13v-4.09
		c-0.57,0.18-1.16,0.41-1.76,0.69c-0.61,0.29-1.16,0.58-1.66,0.9c-0.49,0.31-0.9,0.63-1.23,0.94c-0.32,0.31-0.49,0.58-0.49,0.81
		c0,0.13,0.04,0.26,0.12,0.38c0.08,0.12,0.23,0.22,0.44,0.29c0.21,0.08,0.5,0.14,0.86,0.18
		C304.66,120.31,305.11,120.33,305.66,120.33 M304.33,111.97c0-0.23,0.09-0.43,0.26-0.6c0.17-0.17,0.38-0.25,0.63-0.25
		c0.25,0,0.46,0.08,0.64,0.25c0.18,0.17,0.26,0.37,0.26,0.6c0,0.23-0.09,0.43-0.26,0.59c-0.18,0.16-0.39,0.24-0.64,0.24
		c-0.25,0-0.46-0.08-0.63-0.24C304.41,112.4,304.33,112.2,304.33,111.97 M306.91,111.97c0-0.23,0.08-0.43,0.25-0.6
		c0.16-0.17,0.36-0.25,0.6-0.25c0.26,0,0.48,0.08,0.65,0.25c0.18,0.17,0.27,0.37,0.27,0.6c0,0.23-0.09,0.43-0.27,0.59
		c-0.18,0.16-0.39,0.24-0.65,0.24c-0.24,0-0.44-0.08-0.6-0.24C307,112.4,306.91,112.2,306.91,111.97"/>
	<path class="st1" d="M318.32,121.87l0.35,0.33v0.67l-0.35,0.33h-6.59l-0.35-0.33v-0.67l0.35-0.33h0.53c0.81,0,1.38-0.14,1.69-0.43
		c0.31-0.29,0.47-0.76,0.47-1.41v-4.27h1.2v4.06c0,0.54-0.04,0.97-0.13,1.29c-0.09,0.32-0.25,0.58-0.49,0.77H318.32z M312.14,125.06
		c0-0.24,0.09-0.44,0.26-0.6c0.17-0.17,0.38-0.25,0.63-0.25c0.25,0,0.46,0.08,0.64,0.25c0.18,0.17,0.26,0.37,0.26,0.6
		c0,0.23-0.09,0.43-0.26,0.59c-0.18,0.16-0.39,0.24-0.64,0.24c-0.25,0-0.46-0.08-0.63-0.24
		C312.22,125.49,312.14,125.29,312.14,125.06 M314.72,125.06c0-0.24,0.08-0.44,0.25-0.6c0.17-0.17,0.37-0.25,0.6-0.25
		c0.26,0,0.48,0.08,0.66,0.25c0.17,0.17,0.26,0.37,0.26,0.6c0,0.23-0.09,0.43-0.26,0.59c-0.18,0.16-0.4,0.24-0.66,0.24
		c-0.24,0-0.44-0.08-0.6-0.24C314.81,125.49,314.72,125.29,314.72,125.06"/>
	<path class="st1" d="M322.07,119.91c0,0.53-0.06,0.99-0.17,1.4c-0.11,0.41-0.3,0.75-0.57,1.03c-0.26,0.28-0.62,0.49-1.06,0.64
		c-0.44,0.15-1,0.23-1.67,0.23h-0.28l-0.35-0.33v-0.67l0.35-0.33h0.67c0.74,0,1.24-0.14,1.5-0.44c0.25-0.29,0.38-0.72,0.38-1.31
		v-4.37h1.2V119.91z M318.85,125.06c0-0.24,0.09-0.44,0.26-0.6c0.17-0.17,0.38-0.25,0.63-0.25c0.25,0,0.46,0.08,0.64,0.25
		c0.18,0.17,0.27,0.37,0.27,0.6c0,0.23-0.09,0.43-0.27,0.59c-0.18,0.16-0.39,0.24-0.64,0.24c-0.25,0-0.46-0.08-0.63-0.24
		C318.94,125.49,318.85,125.29,318.85,125.06"/>
	<path class="st1" d="M323.61,125.71c0.7,0,1.27-0.07,1.72-0.2c0.45-0.13,0.81-0.36,1.07-0.66c0.26-0.31,0.45-0.7,0.55-1.19
		c0.1-0.49,0.15-1.08,0.15-1.78v-6.12h1.2l0,6.12h1.97l0.36,0.33v0.67l-0.36,0.33h-2.04c-0.07,0.58-0.2,1.1-0.37,1.58
		c-0.18,0.47-0.44,0.87-0.79,1.21c-0.35,0.33-0.79,0.59-1.32,0.77c-0.53,0.18-1.18,0.27-1.97,0.27L323.61,125.71z"/>
	<path class="st1" d="M334.03,119.91c0,0.53-0.06,0.99-0.17,1.4c-0.11,0.41-0.3,0.75-0.57,1.03c-0.26,0.28-0.62,0.49-1.06,0.64
		c-0.44,0.15-1,0.23-1.67,0.23h-0.28l-0.35-0.33v-0.67l0.35-0.33h0.67c0.74,0,1.24-0.14,1.5-0.44c0.25-0.29,0.38-0.73,0.38-1.31
		v-4.37h1.2V119.91z M331.25,113.24c0-0.23,0.09-0.44,0.26-0.6c0.17-0.17,0.38-0.25,0.63-0.25c0.25,0,0.46,0.08,0.64,0.25
		c0.18,0.17,0.26,0.37,0.26,0.6s-0.09,0.43-0.26,0.59c-0.18,0.16-0.39,0.24-0.64,0.24c-0.25,0-0.46-0.08-0.63-0.24
		C331.33,113.68,331.25,113.48,331.25,113.24 M333.83,113.24c0-0.23,0.08-0.44,0.25-0.6c0.16-0.17,0.36-0.25,0.6-0.25
		c0.26,0,0.48,0.08,0.66,0.25c0.18,0.17,0.26,0.37,0.26,0.6s-0.09,0.43-0.26,0.59c-0.18,0.16-0.4,0.24-0.66,0.24
		c-0.24,0-0.44-0.08-0.6-0.24C333.91,113.68,333.83,113.48,333.83,113.24"/>
	<path class="st1" d="M340.37,119.73c0-0.45,0.19-0.91,0.58-1.4c0.39-0.49,0.89-0.95,1.5-1.4c0.61-0.45,1.3-0.86,2.05-1.24
		c0.75-0.38,1.48-0.7,2.2-0.95v-0.79h1.2v6.18c0,0.32,0.02,0.59,0.06,0.81c0.04,0.22,0.11,0.4,0.22,0.54
		c0.11,0.14,0.26,0.24,0.45,0.3c0.19,0.06,0.45,0.09,0.75,0.09h1.03l0.34,0.34v0.67l-0.34,0.33h-0.81c-0.46,0-0.85-0.04-1.17-0.13
		c-0.32-0.09-0.58-0.21-0.8-0.37c-0.21-0.16-0.38-0.34-0.49-0.55c-0.12-0.21-0.2-0.45-0.25-0.7c-0.38,0.08-0.8,0.13-1.27,0.17
		c-0.47,0.03-1.03,0.05-1.67,0.05c-0.56,0-1.05-0.05-1.5-0.15c-0.44-0.1-0.82-0.24-1.12-0.41c-0.31-0.18-0.55-0.38-0.72-0.62
		C340.45,120.25,340.37,120,340.37,119.73 M344.35,120.33c0.37,0,0.77-0.01,1.2-0.04c0.44-0.03,0.82-0.07,1.15-0.13v-4.09
		c-0.57,0.18-1.16,0.41-1.76,0.69c-0.61,0.29-1.16,0.58-1.66,0.9c-0.49,0.31-0.9,0.63-1.23,0.94c-0.32,0.31-0.49,0.58-0.49,0.81
		c0,0.13,0.04,0.26,0.12,0.38c0.08,0.12,0.23,0.22,0.44,0.29c0.21,0.08,0.5,0.14,0.86,0.18
		C343.35,120.31,343.81,120.33,344.35,120.33 M343.02,111.97c0-0.23,0.09-0.43,0.26-0.6c0.17-0.17,0.38-0.25,0.63-0.25
		c0.25,0,0.46,0.08,0.64,0.25c0.18,0.17,0.26,0.37,0.26,0.6s-0.09,0.43-0.26,0.59c-0.18,0.16-0.39,0.24-0.64,0.24
		c-0.25,0-0.46-0.08-0.63-0.24C343.11,112.4,343.02,112.2,343.02,111.97 M345.61,111.97c0-0.23,0.08-0.43,0.25-0.6
		c0.16-0.17,0.36-0.25,0.6-0.25c0.26,0,0.48,0.08,0.65,0.25c0.18,0.17,0.27,0.37,0.27,0.6s-0.09,0.43-0.27,0.59
		c-0.18,0.16-0.39,0.24-0.65,0.24c-0.24,0-0.44-0.08-0.6-0.24C345.69,112.4,345.61,112.2,345.61,111.97"/>
	<path class="st1" d="M357.01,121.87l0.35,0.33v0.67l-0.35,0.33h-6.59l-0.35-0.33v-0.67l0.35-0.33h0.53c0.81,0,1.38-0.14,1.69-0.43
		c0.31-0.29,0.47-0.76,0.47-1.41v-4.27h1.2v4.06c0,0.54-0.04,0.97-0.13,1.29c-0.09,0.32-0.25,0.58-0.49,0.77H357.01z M350.83,125.06
		c0-0.24,0.09-0.44,0.26-0.6c0.17-0.17,0.38-0.25,0.63-0.25c0.25,0,0.46,0.08,0.64,0.25c0.18,0.17,0.26,0.37,0.26,0.6
		c0,0.23-0.09,0.43-0.26,0.59c-0.18,0.16-0.39,0.24-0.64,0.24c-0.25,0-0.46-0.08-0.63-0.24
		C350.92,125.49,350.83,125.29,350.83,125.06 M353.42,125.06c0-0.24,0.08-0.44,0.25-0.6c0.17-0.17,0.37-0.25,0.6-0.25
		c0.26,0,0.48,0.08,0.66,0.25c0.17,0.17,0.26,0.37,0.26,0.6c0,0.23-0.09,0.43-0.26,0.59c-0.18,0.16-0.4,0.24-0.66,0.24
		c-0.24,0-0.44-0.08-0.6-0.24C353.5,125.49,353.42,125.29,353.42,125.06"/>
	<path class="st1" d="M359.08,121.42c0-0.58,0.12-1.16,0.35-1.74c0.24-0.58,0.54-1.11,0.92-1.58c0.38-0.47,0.81-0.85,1.28-1.14
		c0.48-0.29,0.97-0.43,1.46-0.43c0.35,0,0.67,0.07,0.94,0.2c0.27,0.13,0.53,0.36,0.76,0.67c0.24,0.31,0.47,0.73,0.69,1.24
		c0.22,0.51,0.46,1.14,0.72,1.89l0.44,1.34h1.31l0.35,0.33v0.67l-0.35,0.33h-2.07c-0.51,0.37-1.07,0.63-1.68,0.79
		c-0.61,0.16-1.17,0.24-1.68,0.24c-0.47,0-0.88-0.04-1.23-0.11c-0.35-0.07-0.65-0.17-0.9-0.31c-0.25-0.13-0.47-0.29-0.64-0.48
		c-0.17-0.18-0.32-0.39-0.43-0.61c-0.38,0.32-0.93,0.49-1.64,0.49h-0.67l-0.35-0.33v-0.67l0.35-0.33h1.15
		c0.34,0,0.58-0.03,0.72-0.07C359.02,121.75,359.08,121.62,359.08,121.42 M362.78,122.9c0.21,0,0.44-0.02,0.67-0.05
		c0.24-0.03,0.48-0.08,0.72-0.14c0.24-0.06,0.48-0.14,0.7-0.23c0.22-0.09,0.43-0.18,0.62-0.28l-0.43-1.29
		c-0.2-0.61-0.4-1.12-0.58-1.51c-0.19-0.39-0.38-0.7-0.57-0.93c-0.19-0.23-0.38-0.39-0.57-0.47c-0.19-0.08-0.38-0.13-0.58-0.13
		c-0.28,0-0.57,0.1-0.86,0.29c-0.29,0.19-0.55,0.44-0.8,0.75c-0.24,0.31-0.44,0.66-0.59,1.05c-0.15,0.39-0.23,0.78-0.23,1.17
		c0,0.55,0.2,0.98,0.61,1.3C361.31,122.74,361.94,122.9,362.78,122.9"/>
	<path class="st1" d="M374.56,121.87l0.35,0.33v0.67l-0.35,0.33h-6.59l-0.35-0.33v-0.67l0.35-0.33h0.53c0.81,0,1.38-0.14,1.69-0.43
		c0.31-0.29,0.47-0.76,0.47-1.41v-4.27h1.2v4.06c0,0.54-0.04,0.97-0.13,1.29c-0.09,0.32-0.25,0.58-0.49,0.77H374.56z M370.38,113.24
		c0-0.23,0.09-0.43,0.26-0.6c0.17-0.17,0.38-0.25,0.63-0.25c0.25,0,0.46,0.08,0.64,0.25c0.18,0.17,0.26,0.37,0.26,0.6
		c0,0.23-0.09,0.43-0.26,0.59c-0.18,0.16-0.39,0.24-0.64,0.24c-0.25,0-0.46-0.08-0.63-0.24
		C370.47,113.68,370.38,113.48,370.38,113.24"/>
	<path class="st1" d="M381.15,121.87l0.35,0.33v0.67l-0.35,0.33h-6.59l-0.35-0.33v-0.67l0.35-0.33h0.53c0.81,0,1.38-0.14,1.69-0.43
		c0.31-0.29,0.47-0.76,0.47-1.41v-4.27h1.2v4.06c0,0.54-0.04,0.97-0.13,1.29c-0.09,0.32-0.25,0.58-0.49,0.77H381.15z M375.68,113.24
		c0-0.23,0.09-0.43,0.26-0.6c0.17-0.17,0.38-0.25,0.63-0.25c0.25,0,0.46,0.08,0.64,0.25c0.18,0.17,0.27,0.37,0.27,0.6
		s-0.09,0.43-0.27,0.59c-0.18,0.16-0.39,0.24-0.64,0.24c-0.25,0-0.46-0.08-0.63-0.24C375.76,113.68,375.68,113.48,375.68,113.24
		 M378.26,113.24c0-0.23,0.08-0.43,0.25-0.6c0.16-0.17,0.37-0.25,0.6-0.25c0.26,0,0.48,0.08,0.66,0.25c0.18,0.17,0.26,0.37,0.26,0.6
		s-0.09,0.43-0.26,0.59c-0.18,0.16-0.4,0.24-0.66,0.24c-0.23,0-0.44-0.08-0.6-0.24C378.34,113.68,378.26,113.48,378.26,113.24"/>
	<path class="st1" d="M384.69,119.85c0,0.48-0.05,0.93-0.14,1.33c-0.1,0.41-0.27,0.76-0.53,1.06c-0.26,0.3-0.61,0.54-1.05,0.71
		c-0.44,0.17-1.02,0.26-1.73,0.26h-0.09l-0.36-0.33v-0.67l0.36-0.33h0.53c0.37,0,0.67-0.04,0.9-0.13c0.24-0.09,0.42-0.21,0.56-0.37
		c0.14-0.16,0.23-0.34,0.28-0.55c0.05-0.21,0.07-0.44,0.07-0.69v-9.35h1.2V119.85z"/>
	<path class="st1" d="M391.24,119.73c0-0.45,0.19-0.91,0.58-1.4c0.39-0.49,0.89-0.95,1.5-1.4c0.61-0.45,1.3-0.86,2.05-1.24
		c0.75-0.38,1.48-0.7,2.2-0.95v-0.79h1.2v6.18c0,0.32,0.02,0.59,0.06,0.81c0.04,0.22,0.11,0.4,0.22,0.54
		c0.11,0.14,0.26,0.24,0.45,0.3c0.2,0.06,0.45,0.09,0.75,0.09h1.03l0.34,0.34v0.67l-0.34,0.33h-0.81c-0.46,0-0.85-0.04-1.17-0.13
		c-0.32-0.09-0.58-0.21-0.8-0.37c-0.21-0.16-0.38-0.34-0.49-0.55c-0.12-0.21-0.2-0.45-0.25-0.7c-0.38,0.08-0.8,0.13-1.27,0.17
		c-0.47,0.03-1.03,0.05-1.67,0.05c-0.56,0-1.05-0.05-1.5-0.15c-0.44-0.1-0.82-0.24-1.12-0.41c-0.31-0.18-0.55-0.38-0.72-0.62
		C391.33,120.25,391.24,120,391.24,119.73 M395.23,120.33c0.37,0,0.77-0.01,1.2-0.04c0.44-0.03,0.82-0.07,1.15-0.13v-4.09
		c-0.57,0.18-1.16,0.41-1.76,0.69c-0.61,0.29-1.16,0.58-1.66,0.9c-0.49,0.31-0.9,0.63-1.23,0.94c-0.32,0.31-0.49,0.58-0.49,0.81
		c0,0.13,0.04,0.26,0.12,0.38c0.08,0.12,0.23,0.22,0.44,0.29c0.21,0.08,0.5,0.14,0.86,0.18
		C394.23,120.31,394.68,120.33,395.23,120.33 M393.9,111.97c0-0.23,0.09-0.43,0.26-0.6c0.17-0.17,0.38-0.25,0.63-0.25
		c0.25,0,0.46,0.08,0.64,0.25c0.18,0.17,0.26,0.37,0.26,0.6c0,0.23-0.09,0.43-0.26,0.59c-0.18,0.16-0.39,0.24-0.64,0.24
		c-0.25,0-0.46-0.08-0.63-0.24C393.98,112.4,393.9,112.2,393.9,111.97 M396.48,111.97c0-0.23,0.08-0.43,0.25-0.6
		c0.16-0.17,0.36-0.25,0.6-0.25c0.26,0,0.48,0.08,0.65,0.25s0.27,0.37,0.27,0.6c0,0.23-0.09,0.43-0.27,0.59
		c-0.18,0.16-0.39,0.24-0.65,0.24c-0.24,0-0.44-0.08-0.6-0.24C396.57,112.4,396.48,112.2,396.48,111.97"/>
	<path class="st1" d="M407.89,121.87l0.35,0.33v0.67l-0.35,0.33h-6.59l-0.35-0.33v-0.67l0.35-0.33h0.53c0.81,0,1.38-0.14,1.69-0.43
		c0.31-0.29,0.47-0.76,0.47-1.41v-4.27h1.2v4.06c0,0.54-0.04,0.97-0.13,1.29c-0.09,0.32-0.25,0.58-0.49,0.77H407.89z M401.71,125.06
		c0-0.24,0.09-0.44,0.26-0.6c0.17-0.17,0.38-0.25,0.63-0.25c0.25,0,0.46,0.08,0.64,0.25c0.18,0.17,0.26,0.37,0.26,0.6
		c0,0.23-0.09,0.43-0.26,0.59c-0.18,0.16-0.39,0.24-0.64,0.24c-0.25,0-0.46-0.08-0.63-0.24
		C401.79,125.49,401.71,125.29,401.71,125.06 M404.29,125.06c0-0.24,0.08-0.44,0.25-0.6c0.17-0.17,0.37-0.25,0.6-0.25
		c0.26,0,0.48,0.08,0.66,0.25c0.17,0.17,0.26,0.37,0.26,0.6c0,0.23-0.09,0.43-0.26,0.59c-0.18,0.16-0.4,0.24-0.66,0.24
		c-0.24,0-0.44-0.08-0.6-0.24C404.38,125.49,404.29,125.29,404.29,125.06"/>
	<path class="st1" d="M414.48,121.87l0.35,0.33v0.67l-0.35,0.33l-6.59,0l-0.35-0.33v-0.67l0.35-0.33h0.53
		c0.81,0,1.38-0.14,1.69-0.43c0.31-0.29,0.47-0.76,0.47-1.41v-4.27h1.2v4.06c0,0.54-0.04,0.97-0.13,1.29
		c-0.09,0.32-0.25,0.58-0.49,0.77H414.48z M410.3,113.24c0-0.23,0.09-0.43,0.26-0.6c0.17-0.17,0.38-0.25,0.63-0.25
		c0.25,0,0.46,0.08,0.64,0.25c0.18,0.17,0.26,0.37,0.26,0.6c0,0.23-0.09,0.43-0.26,0.59c-0.18,0.16-0.39,0.24-0.64,0.24
		c-0.25,0-0.46-0.08-0.63-0.24C410.38,113.68,410.3,113.48,410.3,113.24"/>
	<path class="st1" d="M418.05,119.91c0.49-0.6,1-1.17,1.52-1.7c0.52-0.53,1.06-0.99,1.62-1.38c0.56-0.39,1.14-0.7,1.74-0.92
		c0.6-0.22,1.24-0.34,1.91-0.34c1.49,0,2.62,0.52,3.39,1.56c0.77,1.04,1.16,2.62,1.16,4.74v1.34l-14.93,0l-0.36-0.33v-0.75
		l0.36-0.25h2.37v-11.09h1.2V119.91z M424.64,116.91c-1.07,0-2.15,0.37-3.23,1.11c-1.08,0.74-2.2,1.89-3.35,3.45v0.4h10.15
		c0-1.76-0.3-3.03-0.9-3.8C426.69,117.3,425.81,116.91,424.64,116.91"/>
	<path class="st1" d="M438.28,121.05c0,0.15,0,0.29-0.01,0.43c-0.01,0.14-0.01,0.27-0.03,0.39h1.66l0.33,0.33v0.67l-0.33,0.33h-1.86
		c-0.31,1.35-0.92,2.33-1.84,2.92c-0.92,0.6-2.08,0.9-3.47,0.9l-0.18-1.34c1.23,0,2.18-0.19,2.86-0.57
		c0.68-0.38,1.15-1.02,1.42-1.91h-1.61c-0.84,0-1.52-0.07-2.04-0.22c-0.53-0.15-0.93-0.34-1.22-0.59c-0.29-0.24-0.49-0.53-0.59-0.85
		c-0.11-0.32-0.16-0.66-0.16-1.01c0-0.61,0.11-1.22,0.33-1.8c0.22-0.59,0.51-1.11,0.87-1.57c0.36-0.46,0.77-0.83,1.22-1.1
		c0.46-0.27,0.91-0.41,1.37-0.41c0.52,0,0.98,0.15,1.39,0.46c0.41,0.31,0.75,0.71,1.03,1.21c0.28,0.5,0.49,1.08,0.64,1.73
		C438.2,119.72,438.28,120.38,438.28,121.05 M432.41,120.2c0,0.25,0.04,0.47,0.11,0.67c0.07,0.2,0.21,0.38,0.43,0.53
		c0.22,0.15,0.54,0.27,0.95,0.35c0.42,0.08,0.98,0.13,1.69,0.13h1.45c0.01-0.06,0.02-0.14,0.02-0.26v-0.28
		c0-0.57-0.05-1.11-0.15-1.63c-0.1-0.52-0.25-0.98-0.44-1.38c-0.19-0.4-0.43-0.72-0.72-0.96c-0.28-0.23-0.61-0.35-0.97-0.35
		c-0.28,0-0.57,0.09-0.85,0.28c-0.28,0.18-0.54,0.43-0.76,0.73c-0.23,0.3-0.41,0.64-0.55,1.02
		C432.48,119.42,432.41,119.81,432.41,120.2"/>
	<path class="st1" d="M443.45,119.85c0,0.48-0.05,0.93-0.14,1.33c-0.1,0.41-0.27,0.76-0.53,1.06c-0.26,0.3-0.61,0.54-1.05,0.71
		c-0.44,0.17-1.02,0.26-1.73,0.26h-0.09l-0.36-0.33v-0.67l0.36-0.33h0.53c0.37,0,0.67-0.04,0.9-0.13c0.24-0.09,0.42-0.21,0.56-0.37
		c0.14-0.16,0.23-0.34,0.28-0.55c0.05-0.21,0.07-0.44,0.07-0.69v-9.35h1.2V119.85z"/>
</g>
<rect x="447.17" y="110.78" class="st1" width="1.2" height="12.43"/>
<g>
	<path class="st1" d="M454.21,119.73c0-0.45,0.19-0.91,0.58-1.4c0.39-0.49,0.89-0.95,1.5-1.4c0.61-0.45,1.3-0.86,2.05-1.24
		c0.75-0.38,1.48-0.7,2.2-0.95v-0.79h1.2v6.18c0,0.32,0.02,0.59,0.06,0.81c0.04,0.22,0.11,0.4,0.22,0.54
		c0.11,0.14,0.26,0.24,0.45,0.3c0.19,0.06,0.45,0.09,0.75,0.09h1.03l0.34,0.34v0.67l-0.34,0.33h-0.81c-0.46,0-0.85-0.04-1.17-0.13
		c-0.32-0.09-0.58-0.21-0.8-0.37c-0.21-0.16-0.38-0.34-0.49-0.55c-0.12-0.21-0.2-0.45-0.25-0.7c-0.38,0.08-0.8,0.13-1.27,0.17
		c-0.47,0.03-1.03,0.05-1.67,0.05c-0.56,0-1.05-0.05-1.5-0.15c-0.44-0.1-0.82-0.24-1.12-0.41c-0.31-0.18-0.55-0.38-0.72-0.62
		C454.3,120.25,454.21,120,454.21,119.73 M458.2,120.33c0.37,0,0.77-0.01,1.2-0.04c0.44-0.03,0.82-0.07,1.15-0.13v-4.09
		c-0.57,0.18-1.16,0.41-1.76,0.69c-0.61,0.29-1.16,0.58-1.66,0.9c-0.49,0.31-0.9,0.63-1.23,0.94c-0.32,0.31-0.49,0.58-0.49,0.81
		c0,0.13,0.04,0.26,0.12,0.38c0.08,0.12,0.23,0.22,0.44,0.29c0.22,0.08,0.5,0.14,0.86,0.18C457.2,120.31,457.65,120.33,458.2,120.33
		 M456.87,111.97c0-0.23,0.09-0.43,0.26-0.6c0.17-0.17,0.38-0.25,0.63-0.25c0.25,0,0.46,0.08,0.64,0.25
		c0.18,0.17,0.26,0.37,0.26,0.6s-0.09,0.43-0.26,0.59c-0.18,0.16-0.39,0.24-0.64,0.24c-0.25,0-0.46-0.08-0.63-0.24
		C456.95,112.4,456.87,112.2,456.87,111.97 M459.45,111.97c0-0.23,0.08-0.43,0.25-0.6c0.16-0.17,0.36-0.25,0.6-0.25
		c0.26,0,0.48,0.08,0.65,0.25c0.18,0.17,0.27,0.37,0.27,0.6s-0.09,0.43-0.27,0.59c-0.18,0.16-0.39,0.24-0.65,0.24
		c-0.24,0-0.44-0.08-0.6-0.24C459.54,112.4,459.45,112.2,459.45,111.97"/>
	<path class="st1" d="M467.81,119.85c0,0.48-0.05,0.93-0.14,1.33c-0.1,0.41-0.27,0.76-0.53,1.06c-0.26,0.3-0.61,0.54-1.05,0.71
		c-0.44,0.17-1.02,0.26-1.73,0.26h-0.09l-0.36-0.33v-0.67l0.36-0.33h0.53c0.37,0,0.67-0.04,0.9-0.13c0.24-0.09,0.42-0.21,0.56-0.37
		c0.14-0.16,0.23-0.34,0.27-0.55c0.05-0.21,0.07-0.44,0.07-0.69v-9.35h1.2V119.85z"/>
	<path class="st1" d="M472.74,110.78v9.35c0,0.64,0.13,1.09,0.4,1.35c0.26,0.26,0.76,0.39,1.48,0.39h0.5l0.35,0.33v0.67l-0.35,0.33
		h-0.09c-0.71,0-1.29-0.09-1.74-0.26c-0.45-0.17-0.8-0.41-1.06-0.71c-0.26-0.3-0.44-0.66-0.54-1.07c-0.1-0.41-0.15-0.85-0.15-1.33
		v-9.06H472.74z"/>
	<path class="st1" d="M484.02,112.76c-1.5,0.44-2.78,1.07-3.83,1.88c-1.05,0.82-1.88,1.74-2.49,2.76h3.26
		c1.18,0,2.18,0.11,3.01,0.33c0.83,0.22,1.5,0.51,2.02,0.89c0.52,0.37,0.9,0.81,1.14,1.32c0.24,0.51,0.36,1.05,0.36,1.63
		c0,0.56-0.08,1.11-0.23,1.66h-12.15l-0.35-0.34v-0.67l0.35-0.33h11.18c0-0.5-0.09-0.95-0.26-1.35s-0.46-0.73-0.86-1.01
		c-0.4-0.27-0.93-0.48-1.59-0.62c-0.65-0.14-1.47-0.21-2.43-0.21h-4.07l-0.9-1.01c0.36-0.69,0.78-1.36,1.29-1.99
		c0.5-0.63,1.07-1.21,1.69-1.74c0.63-0.53,1.3-1.01,2.04-1.43c0.73-0.42,1.5-0.76,2.32-1.03L484.02,112.76z"/>
	<path class="st1" d="M496.36,121.05c0,0.15,0,0.29-0.01,0.43c-0.01,0.14-0.01,0.27-0.03,0.39h1.66l0.33,0.33v0.67l-0.33,0.33h-1.86
		c-0.31,1.35-0.92,2.33-1.84,2.92c-0.92,0.6-2.08,0.9-3.47,0.9l-0.18-1.34c1.23,0,2.18-0.19,2.86-0.57
		c0.68-0.38,1.15-1.02,1.42-1.91h-1.61c-0.84,0-1.52-0.07-2.04-0.22c-0.53-0.15-0.93-0.34-1.22-0.59c-0.29-0.25-0.49-0.53-0.59-0.85
		c-0.11-0.32-0.16-0.66-0.16-1.01c0-0.61,0.11-1.21,0.33-1.8c0.22-0.59,0.51-1.11,0.87-1.57c0.36-0.46,0.77-0.83,1.22-1.1
		c0.46-0.27,0.91-0.41,1.37-0.41c0.52,0,0.98,0.15,1.39,0.46c0.41,0.31,0.75,0.71,1.03,1.21c0.28,0.5,0.49,1.08,0.64,1.73
		C496.29,119.72,496.36,120.38,496.36,121.05 M490.5,120.2c0,0.25,0.04,0.47,0.11,0.67c0.07,0.2,0.22,0.38,0.43,0.53
		c0.22,0.15,0.54,0.27,0.95,0.35c0.42,0.08,0.98,0.13,1.69,0.13h1.45c0.01-0.06,0.02-0.14,0.02-0.26v-0.28
		c0-0.57-0.05-1.11-0.15-1.63c-0.1-0.52-0.25-0.98-0.44-1.38c-0.19-0.4-0.43-0.72-0.72-0.96c-0.28-0.23-0.61-0.35-0.97-0.35
		c-0.28,0-0.57,0.09-0.85,0.28c-0.28,0.18-0.54,0.43-0.76,0.73c-0.23,0.3-0.41,0.64-0.55,1.02
		C490.57,119.42,490.5,119.81,490.5,120.2"/>
	<path class="st1" d="M501.53,119.85c0,0.48-0.05,0.93-0.14,1.33c-0.1,0.41-0.27,0.76-0.53,1.06c-0.26,0.3-0.61,0.54-1.05,0.71
		c-0.44,0.17-1.02,0.26-1.73,0.26h-0.09l-0.36-0.33v-0.67l0.36-0.33h0.53c0.37,0,0.67-0.04,0.9-0.13c0.24-0.09,0.42-0.21,0.56-0.37
		c0.14-0.16,0.23-0.34,0.27-0.55c0.05-0.21,0.07-0.44,0.07-0.69v-9.35h1.2V119.85z"/>
</g>
<rect x="505.25" y="110.78" class="st1" width="1.2" height="12.43"/>
<g>
	<path class="st2" d="M175.49,17.41c0,0-92.04-6.58-122.07,90.77c0,0-5.46,15.68-0.93,38.95c0,0,22.14-53.11-48.06-60.73
		c0,0,83.26-4.53,45.86,72.72c0,0-14.09-21.69,3.63-62.9C71.62,54.99,104.62,7.23,185.91,8.95c0,0-10.88,92.76-119.71,109.35
		C66.21,118.31,161.66,99.99,175.49,17.41"/>
	<path class="st2" d="M151.99,28.73c-2.6,0-4.72,2.11-4.72,4.71c0,2.59,2.12,4.7,4.72,4.7c2.6,0,4.71-2.12,4.71-4.7
		C156.7,30.84,154.6,28.73,151.99,28.73 M151.4,31.99c-0.41,0-0.74-0.33-0.74-0.74c0-0.41,0.33-0.74,0.74-0.74
		c0.41,0,0.74,0.33,0.74,0.74C152.14,31.66,151.82,31.99,151.4,31.99"/>
	<path class="st2" d="M154.77,32.99c-0.66,0-1.46,0.14-2.33,0.6c-0.84,0.37-1.55,0.58-2.32,0.58c-0.81,0-1.69-0.23-2.85-0.73
		c0,2.59,2.12,4.7,4.72,4.7c2.6,0,4.71-2.11,4.71-4.7C156.7,33.44,155.94,32.99,154.77,32.99"/>
	<path class="st2" d="M146.03,38.72c-2.4-2.29-3.53-5.25-3.11-7.55c-1.2,2.35-0.29,5.82,2.34,8.35c2.64,2.53,6.16,3.27,8.46,1.97
		C151.43,42.01,148.43,41.02,146.03,38.72"/>
</g>
</svg>
