<?xml version="1.0" encoding="utf-8"?>
<!-- Generator: Adobe Illustrator 27.6.1, SVG Export Plug-In . SVG Version: 6.00 Build 0)  -->
<svg version="1.1" id="Calque_1" xmlns="http://www.w3.org/2000/svg" xmlns:xlink="http://www.w3.org/1999/xlink" x="0px" y="0px"
	 viewBox="0 0 495.55 179.27" style="enable-background:new 0 0 495.55 179.27;" xml:space="preserve">
<style type="text/css">
	.st0{fill:#D4B582;}
	.st1{fill:#0D3D4A;}
	.st2{fill:#45BFDE;}
	.st3{fill:#475C6B;}
</style>
<g>
	<path class="st0" d="M468.04,89.46h5.76l-34.37-76.62c-0.65-1.44-2.08-2.37-3.66-2.37h-11.06c-1.58,0-3.01,0.93-3.66,2.37
		l-7.75,17.27l-25.28,59.35h5.2c6.45,0,12.27-3.86,14.78-9.8l22.23-52.61l23.1,52.79C455.91,85.69,461.67,89.46,468.04,89.46"/>
	<path class="st1" d="M393.4,50.19c0,5.54-0.68,10.7-2.02,15.49c-1.35,4.79-3.41,8.94-6.18,12.46c-2.77,3.51-6.3,6.28-10.59,8.3
		c-4.29,2.02-9.39,3.03-15.27,3.03H334.4c-2.4,0-4.35-1.95-4.35-4.34v-70.3c0-2.4,1.95-4.34,4.35-4.34h23.97
		c5.82,0,10.93,0.92,15.33,2.77c4.4,1.85,8.05,4.49,10.96,7.93c2.91,3.44,5.09,7.61,6.55,12.51
		C392.67,38.59,393.4,44.08,393.4,50.19 M377.54,50.29c0-9.79-1.93-16.8-5.8-21.03c-3.87-4.22-9.46-6.33-16.77-6.33h-9.47v54.08
		h10.43c3.19,0,6.12-0.46,8.78-1.38c2.66-0.92,4.93-2.41,6.81-4.47c1.88-2.06,3.35-4.79,4.42-8.2
		C377,59.56,377.54,55.33,377.54,50.29"/>
	<path class="st1" d="M226,12.85c-0.65-1.44-2.08-2.37-3.66-2.37h-5.49v16.69l23.06,52.69c2.55,5.84,8.32,9.61,14.69,9.61l4.02-3.86
		L226,12.85z"/>
	<path class="st1" d="M254.61,89.47l4.02-3.86L226,12.85c-0.65-1.44-2.08-2.37-3.66-2.37h-11.06c-1.58,0-3.01,0.93-3.66,2.37
		l-7.75,17.27L174.6,89.47h5.21c6.45,0,12.27-3.86,14.77-9.8l22.23-52.61l23.1,52.79C242.47,85.7,248.24,89.47,254.61,89.47"/>
	<path class="st1" d="M322.46,11.61L322.46,11.61v77.86h-3.56c-4.97,0-9.65-2.3-12.69-6.23l-38.03-49.16V75.9
		c0,7.49-6.07,13.57-13.57,13.57V15.62c0-2.21,1.8-4.01,4.01-4.01h0.77c4.97,0,9.65,2.3,12.69,6.23l36.81,47.61V25.18
		C308.89,17.69,314.96,11.61,322.46,11.61"/>
	<path class="st1" d="M129,160.25l-0.68,4.17h-1.28l2.2-12.59h1.81l2.29,12.59h-1.33l-0.72-4.17H129z M131.12,159.15
		c-0.51-2.92-0.85-5.09-0.97-6.22h-0.05c-0.05,0.96-0.54,3.82-0.92,6.22H131.12z"/>
	<path class="st1" d="M140.4,164.3c0,1.9-0.23,3.5-2.68,3.5c-2.04,0-2.43-1.32-2.43-2.35v-0.05h1.28v0.06
		c0,0.52,0.21,1.31,1.22,1.31c1.09,0,1.34-0.77,1.34-2.19v-1.27c-0.27,0.68-0.81,1.02-1.72,1.02c-1.47,0-2.11-0.99-2.11-2.91v-3.89
		c0-1.77,0.83-2.83,2.32-2.83c1.03,0,1.51,0.51,1.65,0.98c0-0.27,0.05-0.62,0.07-0.83h1.1c-0.02,0.51-0.04,1.39-0.04,2.55V164.3z
		 M136.58,157.6v3.73c0,1.29,0.36,1.92,1.15,1.92c1.22,0,1.41-1.2,1.41-2.51v-2.83c0-1.17-0.13-2.09-1.28-2.09
		C136.95,155.82,136.58,156.47,136.58,157.6"/>
	<path class="st1" d="M144.07,159.86v1.6c0,1,0.2,2.07,1.26,2.07c1,0,1.19-0.75,1.19-1.72v-0.09h1.25v0.07
		c0,1.13-0.28,2.77-2.44,2.77c-2,0-2.5-1.26-2.5-3.2v-3.66c0-1.48,0.56-2.99,2.53-2.99c1.9,0,2.44,1.36,2.44,3v2.15H144.07z
		 M146.56,158.87v-1.25c0-0.89-0.14-1.87-1.22-1.87c-1.03,0-1.26,0.82-1.26,1.88v1.23H146.56z"/>
	<path class="st1" d="M150.12,157.76c0-1.91,0-2.42-0.02-2.9h1.21c0.03,0.21,0.05,0.54,0.05,0.98c0.3-0.73,0.92-1.13,1.85-1.13
		c1.08,0,1.97,0.57,1.97,2.31v7.39h-1.27v-7.15c0-0.94-0.33-1.45-1.11-1.45c-0.88,0-1.42,0.41-1.42,2.34v6.26h-1.27V157.76z"/>
	<path class="st1" d="M162.44,161.44v0.13c0,1.63-0.44,3-2.44,3c-1.89,0-2.38-1.25-2.38-3.17v-3.81c0-1.63,0.64-2.87,2.47-2.87
		c1.97,0,2.36,1.37,2.36,2.67v0.39h-1.27v-0.31c0-0.9-0.16-1.71-1.12-1.71c-0.83,0-1.16,0.59-1.16,1.79v4.09
		c0,0.91,0.18,1.89,1.14,1.89c0.84,0,1.14-0.51,1.14-1.83v-0.26H162.44z"/>
	<path class="st1" d="M165.74,159.86v1.6c0,1,0.21,2.07,1.26,2.07c1,0,1.19-0.75,1.19-1.72v-0.09h1.25v0.07
		c0,1.13-0.28,2.77-2.44,2.77c-2,0-2.5-1.26-2.5-3.2v-3.66c0-1.48,0.56-2.99,2.53-2.99c1.9,0,2.44,1.36,2.44,3v2.15H165.74z
		 M168.23,158.87v-1.25c0-0.89-0.14-1.87-1.22-1.87c-1.03,0-1.26,0.82-1.26,1.88v1.23H168.23z"/>
	<path class="st1" d="M175.35,164.42v-12.59h1.53c0.76,2.46,2.68,9.15,2.91,10.26h0.03c-0.07-1.73-0.1-3.5-0.1-5.55v-4.72h1.2v12.59
		h-1.48c-0.78-2.57-2.72-9.5-3-10.61h-0.02c0.09,1.52,0.13,3.6,0.13,5.87v4.74H175.35z"/>
	<path class="st1" d="M188.1,162.84c0,0.67,0.01,1.32,0.04,1.58h-1.18c-0.05-0.24-0.09-0.63-0.1-0.79
		c-0.32,0.73-0.96,0.94-1.65,0.94c-1.45,0-2.02-1.2-2.02-2.68v-0.17c0-2.12,1.36-2.91,3.15-2.91h0.49v-1.58
		c0-0.89-0.17-1.47-1.01-1.47c-0.83,0-1.06,0.6-1.06,1.38v0.28h-1.25v-0.27c0-1.32,0.55-2.43,2.36-2.43c1.72,0,2.24,1.05,2.24,2.43
		V162.84z M186.85,159.78h-0.53c-1.2,0-1.9,0.49-1.9,1.91v0.16c0,0.9,0.28,1.63,1.12,1.63c0.99,0,1.32-0.77,1.32-2.23V159.78z"/>
	<path class="st1" d="M189.8,154.86h1.18v-2.36h1.26v2.36h1.46v1.07h-1.46v6.6c0,0.5,0.1,1,0.74,1c0.19,0,0.5-0.02,0.65-0.06v0.94
		c-0.29,0.11-0.73,0.14-1.07,0.14c-0.91,0-1.59-0.38-1.59-1.8v-6.82h-1.18V154.86z"/>
</g>
<path class="st1" d="M195.62,153.19h1.27v-1.92h-1.27V153.19z M195.61,164.42h1.27v-9.56h-1.27V164.42z"/>
<g>
	<path class="st1" d="M204.43,157.52v4.08c0,2.08-1.03,2.97-2.58,2.97c-1.56,0-2.53-0.87-2.53-2.91v-4.16
		c0-1.78,0.98-2.79,2.59-2.79C203.57,154.71,204.43,155.76,204.43,157.52 M200.59,157.5v4.2c0,1.11,0.4,1.8,1.28,1.8
		c0.81,0,1.28-0.52,1.28-1.81v-4.19c0-0.99-0.36-1.7-1.27-1.7C200.97,155.79,200.59,156.41,200.59,157.5"/>
	<path class="st1" d="M206.85,157.76c0-1.91,0-2.42-0.02-2.9h1.21c0.03,0.21,0.05,0.54,0.05,0.98c0.3-0.73,0.92-1.13,1.85-1.13
		c1.08,0,1.97,0.57,1.97,2.31v7.39h-1.27v-7.15c0-0.94-0.33-1.45-1.11-1.45c-0.88,0-1.42,0.41-1.42,2.34v6.26h-1.27V157.76z"/>
	<path class="st1" d="M219.05,162.84c0,0.67,0.01,1.32,0.04,1.58h-1.18c-0.05-0.24-0.09-0.63-0.1-0.79
		c-0.32,0.73-0.96,0.94-1.65,0.94c-1.45,0-2.02-1.2-2.02-2.68v-0.17c0-2.12,1.36-2.91,3.15-2.91h0.49v-1.58
		c0-0.89-0.17-1.47-1.01-1.47c-0.83,0-1.06,0.6-1.06,1.38v0.28h-1.25v-0.27c0-1.32,0.55-2.43,2.36-2.43c1.72,0,2.24,1.05,2.24,2.43
		V162.84z M217.8,159.78h-0.53c-1.2,0-1.9,0.49-1.9,1.91v0.16c0,0.9,0.28,1.63,1.12,1.63c0.99,0,1.32-0.77,1.32-2.23V159.78z"/>
</g>
<rect x="221.77" y="151.27" class="st1" width="1.27" height="13.15"/>
<g>
	<path class="st1" d="M226.7,159.86v1.6c0,1,0.21,2.07,1.26,2.07c1,0,1.19-0.75,1.19-1.72v-0.09h1.25v0.07
		c0,1.13-0.28,2.77-2.44,2.77c-2,0-2.5-1.26-2.5-3.2v-3.66c0-1.48,0.56-2.99,2.53-2.99c1.9,0,2.44,1.36,2.44,3v2.15H226.7z
		 M229.19,158.87v-1.25c0-0.89-0.14-1.87-1.22-1.87c-1.03,0-1.26,0.82-1.26,1.88v1.23H229.19z"/>
	<path class="st1" d="M237.52,163.61v4.04h-1.27v-10.03c0-1.31,0-2.15-0.02-2.76h1.21c0.03,0.2,0.05,0.57,0.05,1.04
		c0.24-0.65,0.78-1.19,1.83-1.19c1.38,0,2.05,0.87,2.05,2.76v4.08c0,2.1-0.89,3.01-2.19,3.01
		C238.15,164.57,237.73,164.06,237.52,163.61 M240.09,161.59v-4.09c0-1.22-0.48-1.68-1.15-1.68c-1.15,0-1.43,0.95-1.43,2.22v3.08
		c0,1.14,0.16,2.34,1.34,2.34C239.73,163.46,240.09,162.79,240.09,161.59"/>
	<path class="st1" d="M248.64,157.52v4.08c0,2.08-1.03,2.97-2.58,2.97c-1.56,0-2.53-0.87-2.53-2.91v-4.16
		c0-1.78,0.98-2.79,2.59-2.79C247.79,154.71,248.64,155.76,248.64,157.52 M244.81,157.5v4.2c0,1.11,0.4,1.8,1.28,1.8
		c0.81,0,1.28-0.52,1.28-1.81v-4.19c0-0.99-0.36-1.7-1.27-1.7C245.19,155.79,244.81,156.41,244.81,157.5"/>
	<path class="st1" d="M256.05,161.89c0,1.2,0,2.09,0.02,2.53h-1.21c-0.03-0.17-0.05-0.66-0.05-1.01c-0.3,0.87-0.92,1.17-1.8,1.17
		c-0.8,0-1.96-0.28-1.96-2.43v-7.28h1.27v6.96c0,1.19,0.34,1.65,1.12,1.65c0.72,0,1.34-0.41,1.34-2.37v-6.24h1.27V161.89z"/>
	<path class="st1" d="M258.76,158.12c0-1.53,0.01-2.44-0.02-3.26h1.21c0.02,0.27,0.05,0.81,0.05,1.48c0.37-1.15,1.23-1.58,2.11-1.61
		v1.48c-1.27,0.01-2.08,0.79-2.08,2.46v5.74h-1.27V158.12z"/>
</g>
<rect x="267.46" y="151.27" class="st1" width="1.27" height="13.15"/>
<g>
	<path class="st1" d="M272.39,159.86v1.6c0,1,0.21,2.07,1.26,2.07c1,0,1.19-0.75,1.19-1.72v-0.09h1.25v0.07
		c0,1.13-0.28,2.77-2.44,2.77c-2,0-2.5-1.26-2.5-3.2v-3.66c0-1.48,0.56-2.99,2.53-2.99c1.9,0,2.44,1.36,2.44,3v2.15H272.39z
		 M274.88,158.87v-1.25c0-0.89-0.14-1.87-1.22-1.87c-1.03,0-1.27,0.82-1.27,1.88v1.23H274.88z"/>
	<path class="st1" d="M282,151.83h2.31c2.89,0,3.18,1.75,3.18,3.67v5c0,1.94-0.31,3.91-3.29,3.91H282V151.83z M283.27,163.37h0.84
		c1.68,0,2.09-0.87,2.09-2.6v-5.43c0-1.52-0.29-2.45-2.08-2.45h-0.86V163.37z"/>
	<path class="st1" d="M291.01,159.86v1.6c0,1,0.21,2.07,1.26,2.07c1,0,1.19-0.75,1.19-1.72v-0.09h1.25v0.07
		c0,1.13-0.28,2.77-2.44,2.77c-2,0-2.5-1.26-2.5-3.2v-3.66c0-1.48,0.56-2.99,2.53-2.99c1.9,0,2.44,1.36,2.44,3v2.15H291.01z
		 M293.5,158.87v-1.25c0-0.89-0.14-1.87-1.22-1.87c-1.03,0-1.27,0.82-1.27,1.88v1.23H293.5z M294.86,151.16l-2.28,2.46h-1.13
		l1.93-2.46H294.86z"/>
	<path class="st1" d="M297.75,154.86c0.3,1.55,1.28,6.45,1.49,8.18h0.02c0.15-1.55,1.25-6.5,1.55-8.18h1.28l-2.14,9.56h-1.46
		l-2.09-9.56H297.75z"/>
	<path class="st1" d="M305.01,159.86v1.6c0,1,0.2,2.07,1.26,2.07c1,0,1.19-0.75,1.19-1.72v-0.09h1.25v0.07
		c0,1.13-0.28,2.77-2.44,2.77c-2,0-2.5-1.26-2.5-3.2v-3.66c0-1.48,0.56-2.99,2.53-2.99c1.9,0,2.44,1.36,2.44,3v2.15H305.01z
		 M307.51,158.87v-1.25c0-0.89-0.14-1.87-1.22-1.87c-1.03,0-1.27,0.82-1.27,1.88v1.23H307.51z"/>
</g>
<rect x="311.1" y="151.27" class="st1" width="1.27" height="13.15"/>
<g>
	<path class="st1" d="M319.9,157.52v4.08c0,2.08-1.03,2.97-2.58,2.97c-1.56,0-2.53-0.87-2.53-2.91v-4.16c0-1.78,0.98-2.79,2.59-2.79
		C319.04,154.71,319.9,155.76,319.9,157.52 M316.06,157.5v4.2c0,1.11,0.4,1.8,1.28,1.8c0.81,0,1.28-0.52,1.28-1.81v-4.19
		c0-0.99-0.36-1.7-1.27-1.7C316.44,155.79,316.06,156.41,316.06,157.5"/>
	<path class="st1" d="M323.58,163.61v4.04h-1.27v-10.03c0-1.31,0-2.15-0.02-2.76h1.21c0.03,0.2,0.05,0.57,0.05,1.04
		c0.24-0.65,0.78-1.19,1.83-1.19c1.38,0,2.05,0.87,2.05,2.76v4.08c0,2.1-0.89,3.01-2.19,3.01
		C324.21,164.57,323.79,164.06,323.58,163.61 M326.15,161.59v-4.09c0-1.22-0.48-1.68-1.15-1.68c-1.15,0-1.44,0.95-1.44,2.22v3.08
		c0,1.14,0.16,2.34,1.34,2.34C325.79,163.46,326.15,162.79,326.15,161.59"/>
	<path class="st1" d="M331.13,163.61v4.04h-1.27v-10.03c0-1.31,0-2.15-0.02-2.76h1.21c0.03,0.2,0.05,0.57,0.05,1.04
		c0.24-0.65,0.78-1.19,1.83-1.19c1.38,0,2.05,0.87,2.05,2.76v4.08c0,2.1-0.89,3.01-2.19,3.01
		C331.75,164.57,331.33,164.06,331.13,163.61 M333.7,161.59v-4.09c0-1.22-0.48-1.68-1.15-1.68c-1.15,0-1.43,0.95-1.43,2.22v3.08
		c0,1.14,0.16,2.34,1.34,2.34C333.34,163.46,333.7,162.79,333.7,161.59"/>
	<path class="st1" d="M338.37,159.86v1.6c0,1,0.2,2.07,1.26,2.07c1,0,1.19-0.75,1.19-1.72v-0.09h1.25v0.07
		c0,1.13-0.28,2.77-2.44,2.77c-2,0-2.5-1.26-2.5-3.2v-3.66c0-1.48,0.56-2.99,2.53-2.99c1.9,0,2.44,1.36,2.44,3v2.15H338.37z
		 M340.87,158.87v-1.25c0-0.89-0.14-1.87-1.22-1.87c-1.03,0-1.27,0.82-1.27,1.88v1.23H340.87z"/>
	<path class="st1" d="M344.42,157.61c0-1.69,0-2.28-0.02-2.75h1.21c0.05,0.28,0.05,0.59,0.05,0.91c0.29-0.65,0.84-1.06,1.72-1.06
		c0.77,0,1.34,0.3,1.56,1.12c0.3-0.6,0.83-1.12,1.85-1.12c0.96,0,1.88,0.39,1.88,2.23v7.48h-1.27v-7.22c0-0.77-0.15-1.38-0.99-1.38
		c-1.01,0-1.23,0.87-1.23,1.92v6.68h-1.28v-7.13c0-1.07-0.28-1.47-1.01-1.47c-0.98,0-1.2,0.89-1.2,2.02v6.58h-1.27V157.61z"/>
	<path class="st1" d="M356.33,159.86v1.6c0,1,0.2,2.07,1.26,2.07c1,0,1.19-0.75,1.19-1.72v-0.09h1.25v0.07
		c0,1.13-0.28,2.77-2.44,2.77c-2,0-2.5-1.26-2.5-3.2v-3.66c0-1.48,0.56-2.99,2.53-2.99c1.9,0,2.44,1.36,2.44,3v2.15H356.33z
		 M358.83,158.87v-1.25c0-0.89-0.14-1.87-1.22-1.87c-1.03,0-1.27,0.82-1.27,1.88v1.23H358.83z"/>
	<path class="st1" d="M362.38,157.76c0-1.91,0-2.42-0.02-2.9h1.21c0.03,0.21,0.05,0.54,0.05,0.98c0.3-0.73,0.92-1.13,1.85-1.13
		c1.08,0,1.97,0.57,1.97,2.31v7.39h-1.27v-7.15c0-0.94-0.33-1.45-1.11-1.45c-0.88,0-1.42,0.41-1.42,2.34v6.26h-1.27V157.76z"/>
	<path class="st1" d="M369.14,154.86h1.18v-2.36h1.25v2.36h1.47v1.07h-1.47v6.6c0,0.5,0.1,1,0.74,1c0.19,0,0.5-0.02,0.66-0.06v0.94
		c-0.29,0.11-0.73,0.14-1.06,0.14c-0.91,0-1.59-0.38-1.59-1.8v-6.82h-1.18V154.86z"/>
	<path class="st1" d="M383.21,151.27V162c0,1.06,0,1.88,0.02,2.42h-1.21c-0.03-0.17-0.05-0.69-0.05-0.95
		c-0.25,0.58-0.71,1.1-1.76,1.1c-1.68,0-2.12-1.25-2.12-3.08v-3.96c0-1.7,0.72-2.82,2.26-2.82c0.91,0,1.38,0.37,1.59,0.73v-4.17
		H383.21z M379.37,157.6v3.91c0,1.3,0.34,1.96,1.19,1.96c1.11,0,1.38-1.02,1.38-2.39v-3.19c0-1.06-0.11-2.07-1.33-2.07
		C379.74,155.82,379.37,156.51,379.37,157.6"/>
	<path class="st1" d="M386.86,159.86v1.6c0,1,0.2,2.07,1.26,2.07c1,0,1.19-0.75,1.19-1.72v-0.09h1.25v0.07
		c0,1.13-0.28,2.77-2.44,2.77c-2,0-2.5-1.26-2.5-3.2v-3.66c0-1.48,0.56-2.99,2.53-2.99c1.9,0,2.44,1.36,2.44,3v2.15H386.86z
		 M389.35,158.87v-1.25c0-0.89-0.14-1.87-1.22-1.87c-1.03,0-1.27,0.82-1.27,1.88v1.23H389.35z"/>
</g>
<rect x="396.42" y="151.27" class="st1" width="1.27" height="13.15"/>
<polygon class="st1" points="400.12,151.27 400.12,152.82 400.2,155.39 401.23,155.39 401.33,152.82 401.33,151.27 "/>
<g>
	<path class="st1" d="M404.1,160.25l-0.68,4.17h-1.28l2.2-12.59h1.81l2.29,12.59h-1.33l-0.72-4.17H404.1z M406.22,159.15
		c-0.51-2.92-0.85-5.09-0.97-6.22h-0.05c-0.05,0.96-0.54,3.82-0.92,6.22H406.22z"/>
	<path class="st1" d="M414.2,163.49c-0.28,0.7-0.85,1.08-1.8,1.08c-1.83,0-2.08-1.67-2.08-3.18v-3.57c0-1.91,0.72-3.11,2.29-3.11
		c1.01,0,1.47,0.48,1.61,0.91c0.01-0.24,0.03-0.52,0.05-0.76h1.21c-0.02,0.64-0.02,1.43-0.02,2.79v10h-1.26V163.49z M411.6,157.79
		v3.64c0,1.07,0.21,2.03,1.2,2.03c1.22,0,1.4-1.24,1.4-2.48v-2.96c0-1.04-0.04-2.19-1.32-2.19
		C411.81,155.83,411.6,156.74,411.6,157.79"/>
	<path class="st1" d="M423.18,161.89c0,1.2,0,2.09,0.02,2.53h-1.21c-0.03-0.17-0.05-0.66-0.05-1.01c-0.3,0.87-0.92,1.17-1.8,1.17
		c-0.8,0-1.96-0.28-1.96-2.43v-7.28h1.27v6.96c0,1.19,0.34,1.65,1.12,1.65c0.72,0,1.34-0.41,1.34-2.37v-6.24h1.27V161.89z"/>
	<path class="st1" d="M430.39,162.84c0,0.67,0.01,1.32,0.04,1.58h-1.18c-0.05-0.24-0.09-0.63-0.1-0.79
		c-0.32,0.73-0.96,0.94-1.65,0.94c-1.45,0-2.02-1.2-2.02-2.68v-0.17c0-2.12,1.36-2.91,3.16-2.91h0.49v-1.58
		c0-0.89-0.17-1.47-1.01-1.47c-0.83,0-1.07,0.6-1.07,1.38v0.28h-1.25v-0.27c0-1.32,0.55-2.43,2.36-2.43c1.72,0,2.24,1.05,2.24,2.43
		V162.84z M429.15,159.78h-0.53c-1.2,0-1.9,0.49-1.9,1.91v0.16c0,0.9,0.29,1.63,1.12,1.63c0.99,0,1.32-0.77,1.32-2.23V159.78z"/>
	<path class="st1" d="M437.65,161.44v0.13c0,1.63-0.44,3-2.44,3c-1.89,0-2.38-1.25-2.38-3.17v-3.81c0-1.63,0.64-2.87,2.47-2.87
		c1.97,0,2.36,1.37,2.36,2.67v0.39h-1.27v-0.31c0-0.9-0.16-1.71-1.12-1.71c-0.83,0-1.16,0.59-1.16,1.79v4.09
		c0,0.91,0.18,1.89,1.14,1.89c0.84,0,1.14-0.51,1.14-1.83v-0.26H437.65z"/>
	<path class="st1" d="M444.83,161.89c0,1.2,0,2.09,0.02,2.53h-1.21c-0.03-0.17-0.05-0.66-0.05-1.01c-0.3,0.87-0.92,1.17-1.8,1.17
		c-0.8,0-1.96-0.28-1.96-2.43v-7.28h1.27v6.96c0,1.19,0.34,1.65,1.12,1.65c0.72,0,1.34-0.41,1.34-2.37v-6.24h1.27V161.89z"/>
</g>
<rect x="447.54" y="151.27" class="st1" width="1.27" height="13.15"/>
<g>
	<path class="st1" d="M450.53,154.86h1.18v-2.36h1.25v2.36h1.47v1.07h-1.47v6.6c0,0.5,0.1,1,0.74,1c0.19,0,0.5-0.02,0.66-0.06v0.94
		c-0.29,0.11-0.73,0.14-1.06,0.14c-0.91,0-1.59-0.38-1.59-1.8v-6.82h-1.18V154.86z"/>
	<path class="st1" d="M461.15,161.89c0,1.2,0,2.09,0.02,2.53h-1.21c-0.03-0.17-0.05-0.66-0.05-1.01c-0.3,0.87-0.92,1.17-1.8,1.17
		c-0.8,0-1.96-0.28-1.96-2.43v-7.28h1.27v6.96c0,1.19,0.34,1.65,1.12,1.65c0.72,0,1.34-0.41,1.34-2.37v-6.24h1.27V161.89z"/>
	<path class="st1" d="M463.87,158.12c0-1.53,0.01-2.44-0.02-3.26h1.21c0.02,0.27,0.05,0.81,0.05,1.48c0.37-1.15,1.23-1.58,2.11-1.61
		v1.48c-1.27,0.01-2.08,0.79-2.08,2.46v5.74h-1.27V158.12z"/>
	<path class="st1" d="M470.05,159.86v1.6c0,1,0.2,2.07,1.26,2.07c1,0,1.19-0.75,1.19-1.72v-0.09h1.25v0.07
		c0,1.13-0.28,2.77-2.44,2.77c-2,0-2.5-1.26-2.5-3.2v-3.66c0-1.48,0.56-2.99,2.53-2.99c1.9,0,2.44,1.36,2.44,3v2.15H470.05z
		 M472.54,158.87v-1.25c0-0.89-0.14-1.87-1.22-1.87c-1.03,0-1.27,0.82-1.27,1.88v1.23H472.54z"/>
</g>
<polygon class="st1" points="131.23,137.23 129.1,137.23 129.1,141.15 127.9,141.15 127.9,137.23 125.76,137.23 125.76,136.05 
	127.9,136.05 127.9,132.12 129.1,132.12 129.1,136.05 131.23,136.05 "/>
<g>
	<path class="st1" d="M134.46,136.99c0.59,0,1.08,0.2,1.48,0.61s0.6,0.9,0.6,1.49c0,0.59-0.2,1.08-0.6,1.49
		c-0.4,0.4-0.89,0.6-1.48,0.6c-0.58,0-1.07-0.2-1.47-0.6c-0.4-0.4-0.6-0.9-0.6-1.49c0-0.59,0.2-1.08,0.6-1.49
		C133.4,137.19,133.88,136.99,134.46,136.99 M135.59,139.06c0-0.33-0.11-0.61-0.33-0.83c-0.22-0.22-0.49-0.33-0.8-0.33
		c-0.3,0-0.56,0.11-0.78,0.33c-0.22,0.22-0.33,0.49-0.33,0.83c0,0.32,0.11,0.6,0.33,0.82c0.22,0.22,0.48,0.33,0.78,0.33
		c0.31,0,0.58-0.11,0.8-0.33C135.48,139.66,135.59,139.39,135.59,139.06"/>
	<path class="st1" d="M146.3,136.7c-0.01,1.23-0.45,2.28-1.33,3.14c-0.88,0.86-1.94,1.3-3.18,1.3c-1.24,0-2.29-0.43-3.15-1.3
		c-0.86-0.87-1.3-1.91-1.32-3.14c-0.01-1.25,0.42-2.32,1.29-3.22c0.87-0.9,1.93-1.34,3.18-1.34c1.25,0,2.32,0.45,3.2,1.34
		C145.88,134.38,146.31,135.45,146.3,136.7 M145.05,136.7c0.01-0.93-0.31-1.73-0.95-2.38c-0.64-0.66-1.41-0.98-2.31-0.97
		c-0.9,0.01-1.66,0.34-2.28,1c-0.62,0.66-0.92,1.44-0.92,2.34c0.01,0.88,0.32,1.64,0.94,2.28c0.62,0.64,1.37,0.97,2.27,0.98
		c0.89,0.01,1.65-0.31,2.29-0.95C144.72,138.34,145.04,137.58,145.05,136.7 M140.64,136.69c-0.02-0.32,0.08-0.61,0.3-0.86
		c0.22-0.25,0.51-0.37,0.87-0.36c0.33,0.01,0.6,0.13,0.82,0.37c0.22,0.24,0.32,0.53,0.29,0.86c-0.02,0.29-0.13,0.54-0.34,0.75
		c-0.21,0.21-0.47,0.32-0.78,0.32c-0.34,0.01-0.62-0.09-0.83-0.31C140.77,137.25,140.66,136.99,140.64,136.69"/>
</g>
<polygon class="st1" points="154.17,141.16 147.48,141.16 147.48,132.14 154.17,132.14 154.17,133.33 148.68,133.33 148.68,139.96 
	154.17,139.96 "/>
<polygon class="st1" points="157.63,138.49 161.59,140.11 161.59,141.32 155.47,138.85 158.3,136.44 155.57,134.07 161.59,131.77 
	161.59,132.97 157.83,134.41 160.02,136.33 "/>
<g>
	<path class="st1" d="M171.41,136.7c-0.02,1.23-0.46,2.28-1.33,3.14c-0.86,0.86-1.91,1.3-3.15,1.3c-1.21,0-2.25-0.44-3.11-1.3
		c-0.86-0.87-1.3-1.91-1.31-3.14c-0.01-1.27,0.41-2.35,1.27-3.23c0.86-0.89,1.91-1.33,3.14-1.33c1.25,0,2.31,0.45,3.18,1.34
		C170.98,134.37,171.42,135.44,171.41,136.7 M170.17,136.67c0-0.93-0.32-1.73-0.95-2.39c-0.63-0.67-1.38-0.99-2.24-0.96
		c-0.91,0.01-1.68,0.34-2.3,1c-0.62,0.66-0.93,1.45-0.93,2.38c0.03,0.87,0.35,1.63,0.96,2.27c0.61,0.64,1.36,0.97,2.24,0.98
		c0.85-0.01,1.6-0.34,2.23-0.98C169.82,138.32,170.15,137.55,170.17,136.67"/>
</g>
<polygon class="st1" points="174.7,138.49 178.66,140.11 178.66,141.32 172.54,138.85 175.37,136.44 172.64,134.07 178.66,131.77 
	178.66,132.97 174.9,134.41 177.1,136.33 "/>
<polygon class="st1" points="185.06,137.23 182.93,137.23 182.93,141.15 181.73,141.15 181.73,137.23 179.59,137.23 179.59,136.05 
	181.73,136.05 181.73,132.12 182.93,132.12 182.93,136.05 185.06,136.05 "/>
<polygon class="st1" points="196.4,137.23 194.26,137.23 194.26,141.15 193.07,141.15 193.07,137.23 190.92,137.23 190.92,136.05 
	193.07,136.05 193.07,132.12 194.26,132.12 194.26,136.05 196.4,136.05 "/>
<g>
	<path class="st1" d="M199.63,136.99c0.59,0,1.08,0.2,1.48,0.61c0.4,0.4,0.6,0.9,0.6,1.49c0,0.59-0.2,1.08-0.6,1.49
		c-0.4,0.4-0.89,0.6-1.48,0.6c-0.58,0-1.07-0.2-1.47-0.6c-0.4-0.4-0.6-0.9-0.6-1.49c0-0.59,0.2-1.08,0.6-1.49
		C198.56,137.19,199.05,136.99,199.63,136.99 M200.75,139.06c0-0.33-0.11-0.61-0.33-0.83c-0.22-0.22-0.48-0.33-0.8-0.33
		c-0.3,0-0.56,0.11-0.78,0.33c-0.22,0.22-0.33,0.49-0.33,0.83c0,0.32,0.11,0.6,0.33,0.82c0.22,0.22,0.48,0.33,0.78,0.33
		c0.31,0,0.58-0.11,0.8-0.33C200.64,139.66,200.75,139.39,200.75,139.06"/>
</g>
<rect x="202.44" y="132.13" class="st1" width="1.18" height="9.02"/>
<g>
	<path class="st1" d="M206.83,136.99c0.59,0,1.08,0.2,1.48,0.61c0.4,0.4,0.6,0.9,0.6,1.49c0,0.59-0.2,1.08-0.6,1.49
		c-0.4,0.4-0.89,0.6-1.48,0.6c-0.58,0-1.07-0.2-1.47-0.6c-0.4-0.4-0.6-0.9-0.6-1.49c0-0.59,0.2-1.08,0.6-1.49
		C205.76,137.19,206.25,136.99,206.83,136.99 M207.95,139.06c0-0.33-0.11-0.61-0.33-0.83c-0.22-0.22-0.49-0.33-0.8-0.33
		c-0.3,0-0.56,0.11-0.78,0.33c-0.22,0.22-0.33,0.49-0.33,0.83c0,0.32,0.11,0.6,0.33,0.82c0.22,0.22,0.48,0.33,0.78,0.33
		c0.31,0,0.58-0.11,0.8-0.33C207.84,139.66,207.95,139.39,207.95,139.06"/>
</g>
<polygon class="st1" points="216.35,141.16 209.66,141.16 209.66,132.14 216.35,132.14 216.35,133.33 210.86,133.33 210.86,139.96 
	216.35,139.96 "/>
<g>
	<path class="st1" d="M219.75,137.24c0.59,0,1.08,0.19,1.48,0.57c0.4,0.38,0.6,0.84,0.6,1.39c0,0.54-0.2,1-0.6,1.38
		c-0.4,0.37-0.89,0.56-1.48,0.56c-0.58,0-1.07-0.19-1.47-0.56c-0.4-0.38-0.6-0.83-0.6-1.38c0-0.55,0.2-1.01,0.6-1.39
		C218.68,137.43,219.17,137.24,219.75,137.24 M219.79,132.14c0.59,0,1.08,0.19,1.48,0.57c0.4,0.38,0.6,0.84,0.6,1.39
		c0,0.54-0.2,1-0.6,1.38c-0.4,0.38-0.89,0.56-1.48,0.56c-0.57,0-1.06-0.19-1.46-0.56c-0.4-0.38-0.6-0.83-0.6-1.38
		c0-0.55,0.2-1.02,0.6-1.39C218.73,132.32,219.21,132.14,219.79,132.14 M220.93,139.19c0-0.33-0.11-0.61-0.34-0.83
		c-0.23-0.22-0.51-0.34-0.84-0.34c-0.32,0-0.59,0.11-0.82,0.34c-0.23,0.23-0.34,0.5-0.34,0.83c0,0.33,0.12,0.6,0.34,0.82
		c0.23,0.22,0.51,0.33,0.82,0.33c0.33,0,0.61-0.11,0.84-0.33C220.81,139.79,220.93,139.51,220.93,139.19 M220.97,134.08
		c0-0.33-0.11-0.61-0.34-0.83c-0.23-0.22-0.51-0.33-0.84-0.33c-0.32,0-0.59,0.11-0.82,0.33c-0.23,0.22-0.34,0.5-0.34,0.83
		c0,0.32,0.11,0.6,0.34,0.82c0.23,0.22,0.5,0.33,0.82,0.33c0.33,0,0.61-0.11,0.84-0.33C220.86,134.68,220.97,134.41,220.97,134.08"
		/>
	<path class="st1" d="M231.72,136.7c-0.02,1.23-0.46,2.28-1.33,3.14c-0.86,0.86-1.91,1.3-3.15,1.3c-1.21,0-2.25-0.44-3.11-1.3
		c-0.86-0.87-1.3-1.91-1.31-3.14c-0.01-1.27,0.41-2.35,1.28-3.23c0.86-0.89,1.91-1.33,3.14-1.33c1.25,0,2.31,0.45,3.18,1.34
		C231.3,134.37,231.73,135.44,231.72,136.7 M230.49,136.67c0-0.93-0.32-1.73-0.95-2.39c-0.63-0.67-1.38-0.99-2.24-0.96
		c-0.91,0.01-1.68,0.34-2.3,1c-0.62,0.66-0.93,1.45-0.93,2.38c0.03,0.87,0.35,1.63,0.96,2.27c0.61,0.64,1.36,0.97,2.24,0.98
		c0.85-0.01,1.6-0.34,2.23-0.98C230.13,138.32,230.46,137.55,230.49,136.67"/>
</g>
<polygon class="st1" points="238.43,137.23 236.3,137.23 236.3,141.15 235.1,141.15 235.1,137.23 232.96,137.23 232.96,136.05 
	235.1,136.05 235.1,132.12 236.3,132.12 236.3,136.05 238.43,136.05 "/>
<rect x="244.26" y="132.13" class="st1" width="1.18" height="9.02"/>
<polygon class="st1" points="256.75,137.23 254.61,137.23 254.61,141.15 253.42,141.15 253.42,137.23 251.27,137.23 251.27,136.05 
	253.42,136.05 253.42,132.12 254.61,132.12 254.61,136.05 256.75,136.05 "/>
<path class="st1" d="M265.07,132.15l-2.91,4.48l2.93,4.52h-1.3l-2.29-3.53l-2.29,3.53h-1.29l2.93-4.51l-2.93-4.49H265.07z
	 M259.85,133.09l1.66,2.56l1.65-2.56H259.85z"/>
<polygon class="st1" points="272.78,141.16 266.09,141.16 266.09,132.14 272.78,132.14 272.78,133.33 267.29,133.33 267.29,139.96 
	272.78,139.96 "/>
<polygon class="st1" points="276.24,138.49 280.2,140.11 280.2,141.32 274.08,138.85 276.91,136.44 274.18,134.07 280.2,131.77 
	280.2,132.97 276.44,134.41 278.63,136.33 "/>
<rect x="285.72" y="132.13" class="st1" width="1.18" height="9.02"/>
<g>
	<path class="st1" d="M294.73,137.24c0.59,0,1.08,0.19,1.48,0.57c0.4,0.38,0.6,0.84,0.6,1.39c0,0.54-0.2,1-0.6,1.38
		c-0.4,0.37-0.89,0.56-1.48,0.56c-0.58,0-1.07-0.19-1.47-0.56c-0.4-0.38-0.6-0.83-0.6-1.38c0-0.55,0.2-1.01,0.6-1.39
		C293.66,137.43,294.15,137.24,294.73,137.24 M294.77,132.14c0.59,0,1.08,0.19,1.48,0.57c0.4,0.38,0.6,0.84,0.6,1.39
		c0,0.54-0.2,1-0.6,1.38c-0.4,0.38-0.89,0.56-1.48,0.56c-0.57,0-1.06-0.19-1.46-0.56c-0.4-0.38-0.6-0.83-0.6-1.38
		c0-0.55,0.2-1.02,0.6-1.39C293.71,132.32,294.2,132.14,294.77,132.14 M295.91,139.19c0-0.33-0.11-0.61-0.34-0.83
		c-0.23-0.22-0.51-0.34-0.84-0.34c-0.32,0-0.59,0.11-0.82,0.34c-0.23,0.23-0.34,0.5-0.34,0.83c0,0.33,0.12,0.6,0.34,0.82
		c0.23,0.22,0.5,0.33,0.82,0.33c0.33,0,0.61-0.11,0.84-0.33C295.8,139.79,295.91,139.51,295.91,139.19 M295.95,134.08
		c0-0.33-0.12-0.61-0.34-0.83c-0.23-0.22-0.51-0.33-0.84-0.33c-0.32,0-0.59,0.11-0.82,0.33c-0.23,0.22-0.34,0.5-0.34,0.83
		c0,0.32,0.11,0.6,0.34,0.82c0.23,0.22,0.5,0.33,0.82,0.33c0.33,0,0.61-0.11,0.84-0.33C295.84,134.68,295.95,134.41,295.95,134.08"
		/>
	<path class="st1" d="M306.8,136.7c-0.01,1.23-0.45,2.28-1.33,3.14c-0.88,0.86-1.94,1.3-3.18,1.3c-1.24,0-2.29-0.43-3.15-1.3
		c-0.86-0.87-1.3-1.91-1.32-3.14c-0.01-1.25,0.42-2.32,1.29-3.22c0.87-0.9,1.93-1.34,3.18-1.34c1.25,0,2.32,0.45,3.2,1.34
		C306.37,134.38,306.81,135.45,306.8,136.7 M305.55,136.7c0.01-0.93-0.31-1.73-0.95-2.38c-0.64-0.66-1.41-0.98-2.31-0.97
		c-0.9,0.01-1.66,0.34-2.28,1c-0.62,0.66-0.92,1.44-0.92,2.34c0.01,0.88,0.32,1.64,0.94,2.28c0.62,0.64,1.37,0.97,2.26,0.98
		c0.89,0.01,1.65-0.31,2.29-0.95C305.22,138.34,305.54,137.58,305.55,136.7 M301.14,136.69c-0.02-0.32,0.08-0.61,0.3-0.86
		c0.22-0.25,0.51-0.37,0.87-0.36c0.33,0.01,0.6,0.13,0.82,0.37c0.22,0.24,0.32,0.53,0.3,0.86c-0.02,0.29-0.13,0.54-0.34,0.75
		c-0.21,0.21-0.47,0.32-0.78,0.32c-0.34,0.01-0.62-0.09-0.83-0.31C301.27,137.25,301.16,136.99,301.14,136.69"/>
</g>
<path class="st1" d="M315.09,132.15l-2.91,4.48l2.93,4.52h-1.3l-2.29-3.53l-2.29,3.53h-1.29l2.93-4.51l-2.93-4.49H315.09z
	 M309.87,133.09l1.66,2.56l1.66-2.56H309.87z"/>
<polygon class="st1" points="322.81,141.16 316.11,141.16 316.11,132.14 322.81,132.14 322.81,133.33 317.32,133.33 317.32,139.96 
	322.81,139.96 "/>
<polygon class="st1" points="326.26,138.49 330.22,140.11 330.22,141.32 324.1,138.85 326.93,136.44 324.2,134.07 330.22,131.77 
	330.22,132.97 326.46,134.41 328.66,136.33 "/>
<rect x="335.74" y="132.13" class="st1" width="1.18" height="9.02"/>
<polygon class="st1" points="344.81,138.49 348.77,140.11 348.77,141.32 342.65,138.85 345.48,136.44 342.75,134.07 348.77,131.77 
	348.77,132.97 345.01,134.41 347.2,136.33 "/>
<polygon class="st1" points="356.36,141.16 349.67,141.16 349.67,132.14 356.36,132.14 356.36,133.33 350.87,133.33 350.87,139.96 
	356.36,139.96 "/>
<g>
	<path class="st1" d="M359.76,136.99c0.59,0,1.08,0.2,1.48,0.61c0.4,0.4,0.6,0.9,0.6,1.49c0,0.59-0.2,1.08-0.6,1.49
		c-0.4,0.4-0.89,0.6-1.48,0.6c-0.58,0-1.07-0.2-1.47-0.6c-0.4-0.4-0.6-0.9-0.6-1.49c0-0.59,0.2-1.08,0.6-1.49
		C358.69,137.19,359.18,136.99,359.76,136.99 M360.89,139.06c0-0.33-0.11-0.61-0.33-0.83c-0.22-0.22-0.49-0.33-0.8-0.33
		c-0.3,0-0.56,0.11-0.78,0.33c-0.22,0.22-0.33,0.49-0.33,0.83c0,0.32,0.11,0.6,0.33,0.82c0.22,0.22,0.48,0.33,0.78,0.33
		c0.31,0,0.58-0.11,0.8-0.33C360.78,139.66,360.89,139.39,360.89,139.06"/>
</g>
<polygon class="st1" points="367.68,132.12 371.49,141.16 370.19,141.16 367.02,133.66 363.83,141.16 362.54,141.16 366.37,132.12 
	"/>
<polygon class="st1" points="377.43,132.12 381.24,141.16 379.94,141.16 376.77,133.66 373.58,141.16 372.29,141.16 376.12,132.12 
	"/>
<g>
	<path class="st1" d="M384.11,136.99c0.59,0,1.08,0.2,1.48,0.61c0.4,0.4,0.6,0.9,0.6,1.49c0,0.59-0.2,1.08-0.6,1.49
		c-0.4,0.4-0.89,0.6-1.48,0.6c-0.58,0-1.07-0.2-1.47-0.6c-0.4-0.4-0.6-0.9-0.6-1.49c0-0.59,0.2-1.08,0.6-1.49
		C383.04,137.19,383.53,136.99,384.11,136.99 M385.24,139.06c0-0.33-0.11-0.61-0.33-0.83c-0.22-0.22-0.49-0.33-0.8-0.33
		c-0.3,0-0.56,0.11-0.78,0.33c-0.22,0.22-0.33,0.49-0.33,0.83c0,0.32,0.11,0.6,0.33,0.82c0.22,0.22,0.48,0.33,0.78,0.33
		c0.31,0,0.58-0.11,0.8-0.33C385.13,139.66,385.24,139.39,385.24,139.06"/>
	<path class="st1" d="M395.86,136.7c-0.02,1.23-0.47,2.28-1.33,3.14c-0.86,0.86-1.91,1.3-3.15,1.3c-1.21,0-2.25-0.44-3.11-1.3
		c-0.86-0.87-1.3-1.91-1.31-3.14c-0.01-1.27,0.41-2.35,1.28-3.23c0.86-0.89,1.91-1.33,3.14-1.33c1.25,0,2.31,0.45,3.18,1.34
		C395.43,134.37,395.86,135.44,395.86,136.7 M394.63,136.67c0-0.93-0.32-1.73-0.95-2.39c-0.63-0.67-1.38-0.99-2.24-0.96
		c-0.91,0.01-1.68,0.34-2.3,1c-0.62,0.66-0.93,1.45-0.93,2.38c0.03,0.87,0.35,1.63,0.96,2.27c0.61,0.64,1.36,0.97,2.24,0.98
		c0.85-0.01,1.59-0.34,2.23-0.98C394.27,138.32,394.6,137.55,394.63,136.67"/>
</g>
<rect x="397.06" y="132.13" class="st1" width="1.18" height="9.02"/>
<rect x="404.04" y="132.13" class="st1" width="1.18" height="9.02"/>
<polygon class="st1" points="417.16,139.97 417.16,132.12 418.36,132.12 418.36,141.15 411.03,141.15 411.03,132.12 412.24,132.12 
	412.24,139.97 "/>
<g>
	<path class="st1" d="M421.56,136.99c0.59,0,1.08,0.2,1.48,0.61c0.4,0.4,0.6,0.9,0.6,1.49c0,0.59-0.2,1.08-0.6,1.49
		c-0.4,0.4-0.89,0.6-1.48,0.6c-0.58,0-1.07-0.2-1.47-0.6c-0.4-0.4-0.6-0.9-0.6-1.49c0-0.59,0.2-1.08,0.6-1.49
		C420.5,137.19,420.98,136.99,421.56,136.99 M422.69,139.06c0-0.33-0.11-0.61-0.33-0.83c-0.22-0.22-0.49-0.33-0.8-0.33
		c-0.3,0-0.56,0.11-0.78,0.33c-0.22,0.22-0.33,0.49-0.33,0.83c0,0.32,0.11,0.6,0.33,0.82c0.22,0.22,0.48,0.33,0.78,0.33
		c0.31,0,0.58-0.11,0.8-0.33C422.58,139.66,422.69,139.39,422.69,139.06"/>
</g>
<polygon class="st1" points="431.08,141.16 424.39,141.16 424.39,132.14 431.08,132.14 431.08,133.33 425.59,133.33 425.59,139.96 
	431.08,139.96 "/>
<g>
	<path class="st1" d="M434.48,136.99c0.59,0,1.08,0.2,1.48,0.61c0.4,0.4,0.6,0.9,0.6,1.49c0,0.59-0.2,1.08-0.6,1.49
		c-0.4,0.4-0.89,0.6-1.48,0.6c-0.58,0-1.07-0.2-1.47-0.6c-0.4-0.4-0.6-0.9-0.6-1.49c0-0.59,0.2-1.08,0.6-1.49
		C433.41,137.19,433.9,136.99,434.48,136.99 M435.61,139.06c0-0.33-0.11-0.61-0.33-0.83c-0.22-0.22-0.49-0.33-0.8-0.33
		c-0.3,0-0.56,0.11-0.78,0.33c-0.22,0.22-0.33,0.49-0.33,0.83c0,0.32,0.11,0.6,0.33,0.82c0.22,0.22,0.48,0.33,0.78,0.33
		c0.31,0,0.58-0.11,0.8-0.33C435.5,139.66,435.61,139.39,435.61,139.06"/>
</g>
<rect x="437.3" y="132.13" class="st1" width="1.18" height="9.02"/>
<polygon class="st1" points="446.37,138.49 450.33,140.11 450.33,141.32 444.21,138.85 447.04,136.44 444.31,134.07 450.33,131.77 
	450.33,132.97 446.57,134.41 448.76,136.33 "/>
<polygon class="st1" points="450.99,141.16 454.89,136.98 452.3,134.39 458.31,132.09 458.31,133.32 454.59,134.75 456.71,136.87 
	452.71,141.16 "/>
<g>
	<path class="st1" d="M463.37,141.16h-1.21v-5.47l-1.45,2.3c-0.22,0.42-0.36,0.96-0.42,1.61c-0.06,0.45-0.1,0.98-0.1,1.56h-1.2
		v-9.02h1.2v5.05c1.35-2.23,2.01-3.73,1.99-4.5v-0.26c0-0.12,0-0.21-0.01-0.29h1.21V141.16z"/>
	<path class="st1" d="M466.71,136.99c0.59,0,1.08,0.2,1.48,0.61c0.4,0.4,0.6,0.9,0.6,1.49c0,0.59-0.2,1.08-0.6,1.49
		c-0.4,0.4-0.89,0.6-1.48,0.6c-0.58,0-1.07-0.2-1.47-0.6c-0.4-0.4-0.6-0.9-0.6-1.49c0-0.59,0.2-1.08,0.6-1.49
		C465.65,137.19,466.13,136.99,466.71,136.99 M467.84,139.06c0-0.33-0.11-0.61-0.33-0.83c-0.22-0.22-0.49-0.33-0.8-0.33
		c-0.3,0-0.56,0.11-0.78,0.33c-0.22,0.22-0.33,0.49-0.33,0.83c0,0.32,0.11,0.6,0.33,0.82c0.22,0.22,0.48,0.33,0.78,0.33
		c0.31,0,0.58-0.11,0.8-0.33C467.73,139.66,467.84,139.39,467.84,139.06"/>
</g>
<rect x="469.53" y="132.13" class="st1" width="1.18" height="9.02"/>
<rect x="471.88" y="132.13" class="st1" width="1.18" height="9.02"/>
<g>
	<path class="st1" d="M126.56,115.81c0-0.42,0.18-0.86,0.55-1.31c0.37-0.46,0.84-0.9,1.41-1.32c0.58-0.42,1.22-0.81,1.92-1.17
		c0.7-0.36,1.39-0.65,2.07-0.9v-0.74h1.13v5.81c0,0.3,0.02,0.56,0.06,0.76c0.04,0.2,0.11,0.37,0.21,0.51
		c0.1,0.13,0.24,0.22,0.42,0.28c0.18,0.06,0.42,0.09,0.71,0.09h0.97l0.32,0.32v0.63l-0.32,0.32h-0.77c-0.43,0-0.8-0.04-1.1-0.13
		c-0.3-0.08-0.55-0.2-0.75-0.35c-0.2-0.15-0.36-0.32-0.47-0.52c-0.11-0.2-0.19-0.42-0.23-0.66c-0.35,0.07-0.75,0.13-1.19,0.16
		c-0.44,0.03-0.96,0.05-1.57,0.05c-0.52,0-0.99-0.05-1.41-0.14c-0.41-0.09-0.77-0.22-1.06-0.38c-0.29-0.16-0.51-0.36-0.67-0.58
		C126.64,116.3,126.56,116.06,126.56,115.81 M130.3,116.37c0.34,0,0.72-0.01,1.13-0.04c0.41-0.03,0.77-0.06,1.08-0.12v-3.84
		c-0.53,0.17-1.08,0.39-1.65,0.65c-0.57,0.27-1.09,0.55-1.56,0.84c-0.47,0.29-0.85,0.59-1.16,0.88c-0.31,0.29-0.46,0.55-0.46,0.76
		c0,0.12,0.04,0.24,0.12,0.35c0.08,0.11,0.22,0.2,0.42,0.27c0.2,0.07,0.47,0.13,0.81,0.17C129.37,116.35,129.8,116.37,130.3,116.37
		 M129.06,108.51c0-0.22,0.08-0.41,0.24-0.57c0.16-0.16,0.36-0.24,0.59-0.24c0.23,0,0.43,0.08,0.6,0.24
		c0.17,0.16,0.25,0.35,0.25,0.57s-0.08,0.41-0.25,0.56c-0.17,0.15-0.37,0.23-0.6,0.23c-0.23,0-0.43-0.08-0.59-0.23
		C129.14,108.92,129.06,108.73,129.06,108.51 M131.49,108.51c0-0.22,0.08-0.41,0.23-0.57c0.15-0.16,0.34-0.24,0.57-0.24
		c0.24,0,0.45,0.08,0.62,0.24c0.16,0.16,0.25,0.35,0.25,0.57s-0.08,0.41-0.25,0.56c-0.17,0.15-0.37,0.23-0.62,0.23
		c-0.22,0-0.41-0.08-0.57-0.23C131.56,108.92,131.49,108.73,131.49,108.51"/>
	<path class="st1" d="M139.55,115.98c0,0.5-0.05,0.93-0.16,1.31c-0.1,0.38-0.28,0.71-0.53,0.97c-0.25,0.26-0.58,0.46-1,0.61
		c-0.42,0.14-0.94,0.21-1.57,0.21h-0.27l-0.33-0.31v-0.63l0.33-0.31h0.63c0.7,0,1.17-0.14,1.41-0.41c0.24-0.27,0.36-0.68,0.36-1.23
		v-4.11h1.13V115.98z M135.7,120.82c0-0.22,0.08-0.41,0.24-0.57c0.16-0.16,0.36-0.24,0.59-0.24c0.23,0,0.43,0.08,0.6,0.24
		c0.17,0.16,0.25,0.34,0.25,0.57c0,0.22-0.08,0.41-0.25,0.56c-0.17,0.15-0.36,0.23-0.6,0.23c-0.23,0-0.43-0.08-0.59-0.23
		C135.78,121.22,135.7,121.04,135.7,120.82 M138.13,120.82c0-0.22,0.08-0.41,0.23-0.57c0.16-0.16,0.34-0.24,0.57-0.24
		c0.24,0,0.45,0.08,0.62,0.24c0.17,0.16,0.25,0.34,0.25,0.57c0,0.22-0.08,0.41-0.25,0.56c-0.17,0.15-0.37,0.23-0.62,0.23
		c-0.22,0-0.41-0.08-0.57-0.23C138.21,121.22,138.13,121.04,138.13,120.82"/>
	<path class="st1" d="M141.01,121.43c0.66,0,1.19-0.06,1.62-0.19c0.42-0.13,0.76-0.33,1.01-0.62c0.25-0.29,0.42-0.66,0.51-1.12
		c0.09-0.46,0.14-1.02,0.14-1.68v-5.75h1.13v5.75h1.85l0.33,0.31v0.63l-0.33,0.31h-1.91c-0.07,0.55-0.18,1.04-0.35,1.48
		c-0.17,0.44-0.41,0.82-0.74,1.13c-0.33,0.32-0.74,0.56-1.24,0.72c-0.5,0.17-1.11,0.25-1.85,0.25L141.01,121.43z"/>
	<path class="st1" d="M147.27,119.08l-0.33-0.31v-0.63l0.33-0.31h9.29c-0.33-0.86-0.71-1.58-1.12-2.16
		c-0.42-0.58-0.85-1.04-1.31-1.39c-0.45-0.35-0.93-0.59-1.41-0.73c-0.49-0.14-0.97-0.21-1.45-0.21c-0.29,0-0.61,0.05-0.97,0.15
		s-0.72,0.27-1.08,0.51l-0.63-1.07c0.5-0.34,0.98-0.56,1.45-0.68c0.47-0.12,0.93-0.17,1.4-0.17c0.6,0,1.2,0.1,1.8,0.3
		c0.6,0.2,1.17,0.53,1.72,0.98c0.55,0.46,1.06,1.05,1.54,1.78c0.48,0.73,0.9,1.62,1.28,2.68h1.72l0.33,0.31v0.63l-0.33,0.31H147.27z
		"/>
	<path class="st1" d="M165.69,117.82l0.33,0.31v0.63l-0.33,0.31h-6.19l-0.33-0.31v-0.63l0.33-0.31h0.5c0.77,0,1.29-0.14,1.59-0.41
		c0.29-0.27,0.44-0.72,0.44-1.32v-4.02h1.13v3.81c0,0.51-0.04,0.91-0.12,1.21c-0.08,0.3-0.24,0.55-0.46,0.73H165.69z M160.92,120.82
		c0-0.22,0.08-0.41,0.24-0.57c0.16-0.16,0.36-0.24,0.59-0.24c0.23,0,0.43,0.08,0.6,0.24c0.17,0.16,0.25,0.34,0.25,0.57
		c0,0.22-0.08,0.41-0.25,0.56s-0.36,0.23-0.6,0.23c-0.23,0-0.43-0.08-0.59-0.23C161,121.22,160.92,121.04,160.92,120.82"/>
	<path class="st1" d="M169.02,115.92c0,0.45-0.04,0.87-0.13,1.25c-0.09,0.38-0.26,0.72-0.5,1c-0.24,0.28-0.57,0.51-0.99,0.67
		c-0.42,0.16-0.96,0.24-1.62,0.24h-0.08l-0.33-0.31v-0.63l0.33-0.32h0.5c0.34,0,0.63-0.04,0.85-0.13c0.22-0.08,0.4-0.2,0.53-0.35
		c0.13-0.15,0.21-0.32,0.26-0.52c0.04-0.2,0.07-0.41,0.07-0.65v-8.79h1.13V115.92z"/>
</g>
<rect x="172.51" y="107.39" class="st1" width="1.13" height="11.69"/>
<g>
	<path class="st1" d="M179.14,115.81c0-0.42,0.18-0.86,0.55-1.31c0.37-0.46,0.84-0.9,1.41-1.32c0.58-0.42,1.22-0.81,1.92-1.17
		c0.7-0.36,1.39-0.65,2.07-0.9v-0.74h1.13v5.81c0,0.3,0.02,0.56,0.06,0.76c0.04,0.2,0.11,0.37,0.21,0.51
		c0.1,0.13,0.24,0.22,0.42,0.28c0.18,0.06,0.42,0.09,0.71,0.09h0.97l0.32,0.32v0.63l-0.32,0.32h-0.77c-0.43,0-0.8-0.04-1.1-0.13
		c-0.3-0.08-0.55-0.2-0.75-0.35c-0.2-0.15-0.36-0.32-0.47-0.52c-0.11-0.2-0.19-0.42-0.23-0.66c-0.35,0.07-0.75,0.13-1.19,0.16
		c-0.44,0.03-0.96,0.05-1.57,0.05c-0.52,0-0.99-0.05-1.41-0.14c-0.41-0.09-0.77-0.22-1.06-0.38c-0.29-0.16-0.51-0.36-0.67-0.58
		C179.22,116.3,179.14,116.06,179.14,115.81 M182.88,116.37c0.34,0,0.72-0.01,1.13-0.04c0.41-0.03,0.77-0.06,1.08-0.12v-3.84
		c-0.53,0.17-1.08,0.39-1.65,0.65c-0.57,0.27-1.09,0.55-1.56,0.84c-0.47,0.29-0.85,0.59-1.16,0.88c-0.31,0.29-0.46,0.55-0.46,0.76
		c0,0.12,0.04,0.24,0.12,0.35c0.08,0.11,0.22,0.2,0.42,0.27c0.2,0.07,0.47,0.13,0.81,0.17
		C181.95,116.35,182.38,116.37,182.88,116.37 M181.64,108.51c0-0.22,0.08-0.41,0.24-0.57c0.16-0.16,0.36-0.24,0.59-0.24
		c0.23,0,0.43,0.08,0.6,0.24c0.17,0.16,0.25,0.35,0.25,0.57s-0.08,0.41-0.25,0.56c-0.17,0.15-0.37,0.23-0.6,0.23
		c-0.23,0-0.43-0.08-0.59-0.23C181.72,108.92,181.64,108.73,181.64,108.51 M184.07,108.51c0-0.22,0.08-0.41,0.23-0.57
		c0.15-0.16,0.34-0.24,0.57-0.24c0.24,0,0.45,0.08,0.62,0.24c0.16,0.16,0.25,0.35,0.25,0.57s-0.08,0.41-0.25,0.56
		c-0.17,0.15-0.37,0.23-0.62,0.23c-0.22,0-0.41-0.08-0.57-0.23C184.15,108.92,184.07,108.73,184.07,108.51"/>
	<path class="st1" d="M194.79,117.82l0.33,0.31v0.63l-0.33,0.31h-6.19l-0.33-0.31v-0.63l0.33-0.31h0.5c0.77,0,1.29-0.14,1.59-0.41
		c0.29-0.27,0.44-0.72,0.44-1.32v-4.02h1.13v3.81c0,0.51-0.04,0.91-0.12,1.21c-0.08,0.3-0.24,0.55-0.46,0.73H194.79z M188.98,120.82
		c0-0.22,0.08-0.41,0.24-0.57c0.16-0.16,0.36-0.24,0.59-0.24c0.23,0,0.43,0.08,0.6,0.24c0.17,0.16,0.25,0.34,0.25,0.57
		c0,0.22-0.08,0.41-0.25,0.56c-0.17,0.15-0.37,0.23-0.6,0.23c-0.23,0-0.43-0.08-0.59-0.23
		C189.06,121.22,188.98,121.04,188.98,120.82 M191.41,120.82c0-0.22,0.08-0.41,0.23-0.57c0.15-0.16,0.34-0.24,0.57-0.24
		c0.24,0,0.45,0.08,0.62,0.24c0.17,0.16,0.25,0.34,0.25,0.57c0,0.22-0.08,0.41-0.25,0.56c-0.17,0.15-0.37,0.23-0.62,0.23
		c-0.22,0-0.41-0.08-0.57-0.23C191.49,121.22,191.41,121.04,191.41,120.82"/>
	<path class="st1" d="M198.32,115.98c0,0.5-0.05,0.93-0.16,1.31c-0.11,0.38-0.28,0.71-0.53,0.97c-0.25,0.26-0.58,0.46-1,0.61
		c-0.42,0.14-0.94,0.21-1.57,0.21h-0.27l-0.33-0.31v-0.63l0.33-0.31h0.63c0.7,0,1.17-0.14,1.41-0.41c0.24-0.27,0.36-0.68,0.36-1.23
		v-4.11h1.13V115.98z M199.73,109.73c-0.1,0.28-0.17,0.46-0.22,0.54l-0.2,0.17c-0.05,0.02-0.16,0.03-0.35,0.04
		c-0.19,0.01-0.42,0.01-0.68,0.01h-0.85c-0.3,0-0.58-0.01-0.83-0.02c-0.29-0.01-0.58-0.02-0.87-0.03v-0.76h0.85
		c-0.14-0.15-0.25-0.31-0.33-0.49c-0.08-0.18-0.12-0.35-0.12-0.52c0-0.19,0.04-0.38,0.12-0.57c0.08-0.19,0.2-0.37,0.36-0.53
		c0.15-0.16,0.34-0.29,0.56-0.39c0.22-0.1,0.46-0.15,0.72-0.15c0.2,0,0.39,0.02,0.58,0.06c0.19,0.04,0.39,0.11,0.62,0.21l-0.3,0.9
		c-0.2-0.09-0.39-0.16-0.57-0.2c-0.18-0.04-0.34-0.06-0.5-0.06c-0.25,0-0.45,0.06-0.59,0.19c-0.14,0.13-0.21,0.26-0.21,0.39
		c0,0.09,0.03,0.2,0.08,0.32c0.05,0.12,0.12,0.23,0.22,0.33c0.1,0.1,0.22,0.19,0.37,0.26c0.15,0.07,0.33,0.1,0.53,0.1h0.23
		c0.47,0,0.96-0.05,1.48-0.14L199.73,109.73z"/>
	<path class="st1" d="M202.47,107.39v8.79c0,0.6,0.12,1.02,0.37,1.27c0.25,0.25,0.71,0.37,1.39,0.37h0.46l0.33,0.31v0.63l-0.33,0.31
		h-0.08c-0.67,0-1.21-0.08-1.63-0.24c-0.42-0.16-0.76-0.39-1-0.67c-0.24-0.28-0.41-0.62-0.51-1c-0.09-0.38-0.14-0.8-0.14-1.25v-8.52
		H202.47z"/>
	<path class="st1" d="M206.64,117.4c0-0.55,0.11-1.09,0.33-1.64c0.22-0.54,0.51-1.04,0.87-1.48c0.35-0.44,0.76-0.8,1.21-1.07
		c0.45-0.27,0.91-0.41,1.37-0.41c0.33,0,0.63,0.06,0.88,0.19c0.26,0.12,0.5,0.33,0.72,0.63c0.22,0.29,0.44,0.68,0.65,1.17
		c0.21,0.48,0.44,1.08,0.68,1.78l0.42,1.26H215l0.33,0.31v0.63l-0.33,0.31h-1.95c-0.48,0.35-1.01,0.59-1.58,0.74
		c-0.58,0.15-1.1,0.22-1.58,0.22c-0.44,0-0.83-0.03-1.16-0.1c-0.33-0.07-0.61-0.16-0.85-0.29c-0.24-0.13-0.44-0.27-0.6-0.45
		c-0.16-0.17-0.3-0.36-0.41-0.57c-0.35,0.3-0.87,0.46-1.55,0.46h-0.63l-0.33-0.31v-0.63l0.33-0.31h1.08c0.32,0,0.55-0.02,0.67-0.07
		C206.58,117.7,206.64,117.59,206.64,117.4 M210.12,118.78c0.2,0,0.41-0.02,0.63-0.05c0.22-0.03,0.45-0.08,0.67-0.13
		c0.23-0.06,0.45-0.13,0.66-0.21c0.21-0.08,0.4-0.17,0.58-0.27l-0.4-1.21c-0.19-0.58-0.37-1.05-0.55-1.42
		c-0.18-0.37-0.36-0.66-0.53-0.88c-0.18-0.21-0.35-0.36-0.53-0.44c-0.18-0.08-0.36-0.12-0.55-0.12c-0.27,0-0.54,0.09-0.81,0.27
		c-0.27,0.18-0.52,0.41-0.75,0.7c-0.23,0.29-0.41,0.62-0.56,0.98c-0.14,0.37-0.22,0.74-0.22,1.1c0,0.51,0.19,0.92,0.57,1.22
		C208.74,118.63,209.33,118.78,210.12,118.78"/>
	<path class="st1" d="M218.33,115.92c0,0.45-0.04,0.87-0.13,1.25c-0.09,0.38-0.26,0.72-0.5,1c-0.24,0.28-0.57,0.51-0.99,0.67
		c-0.42,0.16-0.96,0.24-1.62,0.24H215l-0.33-0.31v-0.63l0.33-0.32h0.5c0.34,0,0.63-0.04,0.85-0.13c0.22-0.08,0.4-0.2,0.52-0.35
		c0.13-0.15,0.21-0.32,0.26-0.52c0.04-0.2,0.07-0.41,0.07-0.65v-8.79h1.13V115.92z"/>
</g>
<rect x="221.83" y="107.39" class="st1" width="1.13" height="11.69"/>
<g>
	<path class="st1" d="M232.55,112.54c0.74,0,1.39,0.22,1.95,0.65l-0.67,1.1c-0.29-0.18-0.56-0.3-0.8-0.38
		c-0.24-0.07-0.51-0.11-0.8-0.11c-0.27,0-0.52,0.05-0.77,0.14c-0.25,0.09-0.47,0.22-0.67,0.38c-0.2,0.16-0.35,0.35-0.46,0.57
		c-0.11,0.22-0.17,0.45-0.17,0.71c0,0.24,0.06,0.49,0.18,0.76c0.12,0.26,0.31,0.5,0.55,0.72c0.24,0.22,0.55,0.39,0.92,0.54
		c0.36,0.14,0.79,0.21,1.28,0.21c0.52,0,1-0.01,1.44-0.03c0.44-0.02,0.78-0.06,1.02-0.11l-0.12,0.35c-0.07,0.21-0.13,0.38-0.18,0.5
		c-0.06,0.12-0.1,0.22-0.14,0.29l-0.12,0.15l-0.12,0.07c-0.03,0.01-0.11,0.02-0.24,0.02c-0.13,0.01-0.28,0.01-0.46,0.02
		c-0.18,0-0.37,0.01-0.58,0.01h-0.58h-1.19c-0.42,0-0.83,0-1.25-0.01c-0.42,0-0.82-0.01-1.21-0.02c-0.39-0.01-0.74-0.01-1.07-0.02
		v-1.07h2.03c-0.37-0.18-0.68-0.46-0.92-0.84c-0.25-0.38-0.37-0.8-0.37-1.25c0-0.43,0.08-0.85,0.25-1.24
		c0.17-0.4,0.4-0.75,0.71-1.06c0.3-0.31,0.67-0.56,1.11-0.74C231.54,112.64,232.02,112.54,232.55,112.54"/>
	<path class="st1" d="M239.03,107.39v8.79c0,0.6,0.12,1.02,0.37,1.27c0.25,0.25,0.71,0.37,1.39,0.37h0.46l0.33,0.31v0.63l-0.33,0.31
		h-0.08c-0.67,0-1.21-0.08-1.63-0.24c-0.42-0.16-0.76-0.39-1-0.67c-0.24-0.28-0.41-0.62-0.51-1c-0.09-0.38-0.14-0.8-0.14-1.25v-8.52
		H239.03z"/>
	<path class="st1" d="M247.45,117.82l0.33,0.31v0.63l-0.33,0.31h-6.19l-0.33-0.31v-0.63l0.33-0.31h0.5c0.77,0,1.29-0.14,1.59-0.41
		c0.29-0.27,0.44-0.72,0.44-1.32v-4.02h1.13v3.81c0,0.51-0.04,0.91-0.12,1.21c-0.08,0.3-0.24,0.55-0.46,0.73H247.45z M241.64,120.82
		c0-0.22,0.08-0.41,0.24-0.57c0.16-0.16,0.36-0.24,0.59-0.24c0.23,0,0.43,0.08,0.6,0.24c0.17,0.16,0.25,0.34,0.25,0.57
		c0,0.22-0.08,0.41-0.25,0.56c-0.17,0.15-0.37,0.23-0.6,0.23c-0.23,0-0.43-0.08-0.59-0.23S241.64,121.04,241.64,120.82
		 M244.07,120.82c0-0.22,0.08-0.41,0.23-0.57c0.15-0.16,0.34-0.24,0.57-0.24c0.24,0,0.45,0.08,0.62,0.24
		c0.17,0.16,0.25,0.34,0.25,0.57c0,0.22-0.08,0.41-0.25,0.56c-0.17,0.15-0.37,0.23-0.62,0.23c-0.22,0-0.41-0.08-0.57-0.23
		C244.15,121.22,244.07,121.04,244.07,120.82"/>
	<path class="st1" d="M256.74,117.82c-0.33-0.86-0.71-1.58-1.12-2.16c-0.41-0.58-0.85-1.04-1.31-1.39
		c-0.45-0.35-0.93-0.59-1.41-0.73c-0.49-0.14-0.97-0.21-1.45-0.21c-0.29,0-0.61,0.05-0.97,0.15c-0.35,0.1-0.72,0.27-1.08,0.51
		l-0.63-1.07c0.5-0.34,0.98-0.56,1.45-0.68c0.47-0.12,0.93-0.17,1.4-0.17c0.64,0,1.27,0.11,1.87,0.32c0.61,0.21,1.18,0.56,1.73,1.03
		c0.55,0.47,1.06,1.09,1.53,1.84c0.47,0.76,0.9,1.68,1.29,2.76l-0.65,1.06h-9.94l-0.33-0.31v-0.63l0.33-0.31H256.74z"/>
	<path class="st1" d="M264.64,117.82l-1.07-6.18l1.17-0.27l1.05,6.45h1.52c0.32,0,0.58-0.03,0.78-0.09
		c0.19-0.06,0.35-0.15,0.46-0.27c0.11-0.13,0.18-0.29,0.22-0.48c0.03-0.19,0.05-0.42,0.05-0.69v-8.9h1.13v8.6
		c0,0.45-0.04,0.87-0.12,1.24c-0.08,0.38-0.24,0.7-0.47,0.98c-0.23,0.27-0.53,0.49-0.92,0.64c-0.39,0.15-0.89,0.23-1.5,0.23h-7.33
		v-1.26H264.64z M265.57,109.31c-0.1,0.28-0.17,0.46-0.22,0.54l-0.2,0.17c-0.05,0.02-0.16,0.03-0.35,0.04
		c-0.19,0-0.42,0.01-0.68,0.01h-0.85c-0.3,0-0.58-0.01-0.83-0.02c-0.29-0.01-0.57-0.02-0.87-0.03v-0.76h0.85
		c-0.14-0.15-0.25-0.31-0.33-0.49c-0.08-0.18-0.12-0.35-0.12-0.52c0-0.19,0.04-0.38,0.12-0.57c0.08-0.19,0.2-0.37,0.36-0.53
		c0.15-0.16,0.34-0.29,0.56-0.39c0.22-0.1,0.46-0.15,0.72-0.15c0.2,0,0.39,0.02,0.58,0.06c0.19,0.04,0.39,0.11,0.62,0.21l-0.3,0.9
		c-0.2-0.09-0.39-0.16-0.57-0.2c-0.18-0.04-0.34-0.05-0.5-0.05c-0.25,0-0.45,0.06-0.59,0.19c-0.14,0.13-0.21,0.26-0.21,0.39
		c0,0.09,0.03,0.2,0.08,0.32c0.05,0.12,0.12,0.23,0.22,0.33c0.1,0.1,0.22,0.19,0.37,0.26c0.15,0.07,0.33,0.1,0.53,0.1h0.23
		c0.47,0,0.96-0.05,1.48-0.14L265.57,109.31z"/>
</g>
<rect x="273.29" y="107.39" class="st1" width="1.13" height="11.69"/>
<g>
	<path class="st1" d="M279.92,115.81c0-0.42,0.18-0.86,0.55-1.31c0.37-0.46,0.84-0.9,1.41-1.32c0.58-0.42,1.22-0.81,1.92-1.17
		c0.7-0.36,1.4-0.65,2.07-0.9v-0.74h1.13v5.81c0,0.3,0.02,0.56,0.06,0.76c0.04,0.2,0.11,0.37,0.21,0.51
		c0.1,0.13,0.24,0.22,0.42,0.28c0.18,0.06,0.42,0.09,0.71,0.09h0.97l0.32,0.32v0.63l-0.32,0.32h-0.77c-0.44,0-0.8-0.04-1.1-0.13
		c-0.3-0.08-0.55-0.2-0.75-0.35c-0.2-0.15-0.35-0.32-0.46-0.52c-0.11-0.2-0.19-0.42-0.23-0.66c-0.36,0.07-0.75,0.13-1.19,0.16
		c-0.44,0.03-0.96,0.05-1.57,0.05c-0.52,0-0.99-0.05-1.41-0.14c-0.41-0.09-0.77-0.22-1.06-0.38c-0.29-0.16-0.51-0.36-0.68-0.58
		C280,116.3,279.92,116.06,279.92,115.81 M283.67,116.37c0.34,0,0.72-0.01,1.13-0.04c0.41-0.03,0.77-0.06,1.08-0.12v-3.84
		c-0.53,0.17-1.09,0.39-1.66,0.65c-0.57,0.27-1.09,0.55-1.56,0.84c-0.46,0.29-0.85,0.59-1.16,0.88c-0.3,0.29-0.46,0.55-0.46,0.76
		c0,0.12,0.04,0.24,0.12,0.35c0.08,0.11,0.22,0.2,0.42,0.27c0.2,0.07,0.47,0.13,0.81,0.17
		C282.73,116.35,283.16,116.37,283.67,116.37 M282.42,108.51c0-0.22,0.08-0.41,0.24-0.57c0.16-0.16,0.36-0.24,0.59-0.24
		c0.23,0,0.44,0.08,0.6,0.24c0.17,0.16,0.25,0.35,0.25,0.57s-0.08,0.41-0.25,0.56c-0.17,0.15-0.37,0.23-0.6,0.23
		c-0.23,0-0.43-0.08-0.59-0.23C282.5,108.92,282.42,108.73,282.42,108.51 M284.85,108.51c0-0.22,0.08-0.41,0.23-0.57
		c0.15-0.16,0.34-0.24,0.57-0.24c0.24,0,0.45,0.08,0.62,0.24c0.17,0.16,0.25,0.35,0.25,0.57s-0.08,0.41-0.25,0.56
		c-0.17,0.15-0.37,0.23-0.62,0.23c-0.22,0-0.41-0.08-0.57-0.23C284.93,108.92,284.85,108.73,284.85,108.51"/>
	<path class="st1" d="M295.57,117.82l0.33,0.31v0.63l-0.33,0.31h-6.19l-0.33-0.31v-0.63l0.33-0.31h0.5c0.76,0,1.29-0.14,1.59-0.41
		c0.29-0.27,0.44-0.72,0.44-1.32v-4.02h1.13v3.81c0,0.51-0.04,0.91-0.13,1.21c-0.08,0.3-0.23,0.55-0.46,0.73H295.57z M289.76,120.82
		c0-0.22,0.08-0.41,0.24-0.57c0.16-0.16,0.36-0.24,0.59-0.24c0.23,0,0.43,0.08,0.6,0.24c0.17,0.16,0.25,0.34,0.25,0.57
		c0,0.22-0.08,0.41-0.25,0.56c-0.17,0.15-0.37,0.23-0.6,0.23c-0.23,0-0.43-0.08-0.59-0.23
		C289.84,121.22,289.76,121.04,289.76,120.82 M292.19,120.82c0-0.22,0.08-0.41,0.23-0.57c0.16-0.16,0.34-0.24,0.57-0.24
		c0.24,0,0.45,0.08,0.62,0.24c0.16,0.16,0.25,0.34,0.25,0.57c0,0.22-0.08,0.41-0.25,0.56c-0.17,0.15-0.37,0.23-0.62,0.23
		c-0.22,0-0.41-0.08-0.57-0.23C292.27,121.22,292.19,121.04,292.19,120.82"/>
	<path class="st1" d="M299.1,115.98c0,0.5-0.05,0.93-0.16,1.31c-0.11,0.38-0.28,0.71-0.53,0.97c-0.25,0.26-0.58,0.46-1,0.61
		c-0.41,0.14-0.94,0.21-1.57,0.21h-0.27l-0.33-0.31v-0.63l0.33-0.31h0.63c0.7,0,1.17-0.14,1.41-0.41c0.24-0.27,0.36-0.68,0.36-1.23
		v-4.11h1.13V115.98z M296.07,120.82c0-0.22,0.08-0.41,0.24-0.57c0.16-0.16,0.36-0.24,0.59-0.24c0.23,0,0.43,0.08,0.6,0.24
		c0.17,0.16,0.25,0.34,0.25,0.57c0,0.22-0.08,0.41-0.25,0.56c-0.17,0.15-0.36,0.23-0.6,0.23c-0.23,0-0.43-0.08-0.59-0.23
		C296.15,121.22,296.07,121.04,296.07,120.82"/>
	<path class="st1" d="M300.55,121.43c0.66,0,1.19-0.06,1.62-0.19c0.42-0.13,0.76-0.33,1.01-0.62c0.25-0.29,0.42-0.66,0.52-1.12
		c0.09-0.46,0.14-1.02,0.14-1.68v-5.75h1.13v5.75h1.85l0.33,0.31v0.63l-0.33,0.31h-1.91c-0.07,0.55-0.18,1.04-0.35,1.48
		c-0.17,0.44-0.41,0.82-0.74,1.13c-0.33,0.32-0.74,0.56-1.24,0.72c-0.5,0.17-1.11,0.25-1.85,0.25L300.55,121.43z"/>
	<path class="st1" d="M310.34,115.98c0,0.5-0.05,0.93-0.16,1.31c-0.11,0.39-0.28,0.71-0.53,0.97c-0.25,0.26-0.58,0.46-1,0.61
		c-0.41,0.14-0.94,0.21-1.57,0.21h-0.27l-0.33-0.31v-0.63l0.33-0.32h0.63c0.7,0,1.17-0.14,1.41-0.41c0.24-0.27,0.36-0.68,0.36-1.23
		v-4.11h1.13V115.98z M307.72,109.71c0-0.22,0.08-0.41,0.24-0.57c0.16-0.16,0.36-0.24,0.59-0.24c0.23,0,0.43,0.08,0.6,0.24
		c0.17,0.16,0.25,0.35,0.25,0.57s-0.08,0.41-0.25,0.56c-0.17,0.15-0.37,0.23-0.6,0.23c-0.23,0-0.43-0.08-0.59-0.23
		C307.8,110.12,307.72,109.93,307.72,109.71 M310.16,109.71c0-0.22,0.08-0.41,0.23-0.57c0.15-0.16,0.34-0.24,0.57-0.24
		c0.24,0,0.45,0.08,0.62,0.24c0.17,0.16,0.25,0.35,0.25,0.57s-0.08,0.41-0.25,0.56c-0.17,0.15-0.37,0.23-0.62,0.23
		c-0.22,0-0.41-0.08-0.57-0.23C310.23,110.12,310.16,109.93,310.16,109.71"/>
	<path class="st1" d="M316.3,115.81c0-0.42,0.18-0.86,0.55-1.31c0.37-0.46,0.84-0.9,1.41-1.32c0.58-0.42,1.22-0.81,1.92-1.17
		c0.7-0.36,1.4-0.65,2.07-0.9v-0.74h1.13v5.81c0,0.3,0.02,0.56,0.06,0.76c0.04,0.2,0.11,0.37,0.21,0.51
		c0.1,0.13,0.24,0.22,0.42,0.28c0.18,0.06,0.42,0.09,0.71,0.09h0.97l0.32,0.32v0.63l-0.32,0.32h-0.77c-0.43,0-0.8-0.04-1.1-0.13
		c-0.3-0.08-0.55-0.2-0.75-0.35c-0.2-0.15-0.35-0.32-0.47-0.52c-0.11-0.2-0.19-0.42-0.23-0.66c-0.36,0.07-0.75,0.13-1.19,0.16
		c-0.44,0.03-0.96,0.05-1.57,0.05c-0.52,0-0.99-0.05-1.41-0.14c-0.41-0.09-0.77-0.22-1.06-0.38c-0.29-0.16-0.51-0.36-0.68-0.58
		C316.38,116.3,316.3,116.06,316.3,115.81 M320.05,116.37c0.34,0,0.72-0.01,1.13-0.04c0.41-0.03,0.77-0.06,1.08-0.12v-3.84
		c-0.53,0.17-1.09,0.39-1.66,0.65c-0.57,0.27-1.09,0.55-1.56,0.84c-0.46,0.29-0.85,0.59-1.16,0.88c-0.3,0.29-0.46,0.55-0.46,0.76
		c0,0.12,0.04,0.24,0.12,0.35c0.08,0.11,0.22,0.2,0.42,0.27c0.2,0.07,0.47,0.13,0.81,0.17
		C319.11,116.35,319.53,116.37,320.05,116.37 M318.8,108.51c0-0.22,0.08-0.41,0.24-0.57c0.16-0.16,0.36-0.24,0.59-0.24
		c0.23,0,0.44,0.08,0.6,0.24c0.17,0.16,0.25,0.35,0.25,0.57s-0.08,0.41-0.25,0.56c-0.17,0.15-0.37,0.23-0.6,0.23
		c-0.23,0-0.43-0.08-0.59-0.23C318.88,108.92,318.8,108.73,318.8,108.51 M321.23,108.51c0-0.22,0.08-0.41,0.23-0.57
		c0.15-0.16,0.34-0.24,0.57-0.24c0.24,0,0.45,0.08,0.62,0.24c0.17,0.16,0.25,0.35,0.25,0.57s-0.08,0.41-0.25,0.56
		c-0.17,0.15-0.37,0.23-0.62,0.23c-0.22,0-0.41-0.08-0.57-0.23C321.31,108.92,321.23,108.73,321.23,108.51"/>
	<path class="st1" d="M331.95,117.82l0.33,0.31v0.63l-0.33,0.31h-6.19l-0.33-0.31v-0.63l0.33-0.31h0.5c0.76,0,1.29-0.14,1.59-0.41
		c0.29-0.27,0.44-0.72,0.44-1.32v-4.02h1.13v3.81c0,0.51-0.04,0.91-0.12,1.21c-0.08,0.3-0.24,0.55-0.46,0.73H331.95z M326.14,120.82
		c0-0.22,0.08-0.41,0.24-0.57c0.16-0.16,0.36-0.24,0.59-0.24c0.23,0,0.43,0.08,0.6,0.24c0.17,0.16,0.25,0.34,0.25,0.57
		c0,0.22-0.08,0.41-0.25,0.56c-0.17,0.15-0.37,0.23-0.6,0.23c-0.23,0-0.43-0.08-0.59-0.23
		C326.22,121.22,326.14,121.04,326.14,120.82 M328.57,120.82c0-0.22,0.08-0.41,0.23-0.57c0.16-0.16,0.34-0.24,0.57-0.24
		c0.24,0,0.45,0.08,0.62,0.24c0.16,0.16,0.25,0.34,0.25,0.57c0,0.22-0.08,0.41-0.25,0.56c-0.17,0.15-0.37,0.23-0.62,0.23
		c-0.22,0-0.41-0.08-0.57-0.23C328.65,121.22,328.57,121.04,328.57,120.82"/>
	<path class="st1" d="M333.9,117.4c0-0.55,0.11-1.09,0.33-1.64c0.22-0.54,0.51-1.04,0.87-1.48c0.35-0.44,0.76-0.8,1.21-1.07
		c0.45-0.27,0.91-0.41,1.37-0.41c0.33,0,0.63,0.06,0.88,0.19c0.26,0.12,0.5,0.33,0.72,0.63c0.22,0.29,0.44,0.68,0.65,1.17
		c0.21,0.48,0.44,1.08,0.68,1.78l0.42,1.26h1.23l0.33,0.31v0.63l-0.33,0.31h-1.95c-0.48,0.35-1.01,0.59-1.58,0.74
		c-0.58,0.15-1.1,0.22-1.58,0.22c-0.45,0-0.83-0.03-1.16-0.1c-0.33-0.07-0.61-0.16-0.85-0.29c-0.24-0.13-0.44-0.27-0.6-0.45
		c-0.16-0.17-0.3-0.36-0.41-0.57c-0.35,0.3-0.87,0.46-1.55,0.46h-0.63l-0.33-0.31v-0.63l0.33-0.31h1.08c0.32,0,0.54-0.02,0.67-0.07
		C333.83,117.7,333.9,117.59,333.9,117.4 M337.38,118.78c0.2,0,0.41-0.02,0.63-0.05c0.22-0.03,0.45-0.08,0.67-0.13
		c0.23-0.06,0.45-0.13,0.66-0.21c0.21-0.08,0.4-0.17,0.58-0.27l-0.4-1.21c-0.19-0.58-0.37-1.05-0.55-1.42
		c-0.18-0.37-0.36-0.66-0.53-0.88c-0.18-0.21-0.35-0.36-0.53-0.44c-0.18-0.08-0.36-0.12-0.55-0.12c-0.27,0-0.54,0.09-0.81,0.27
		c-0.27,0.18-0.52,0.41-0.75,0.7c-0.23,0.29-0.41,0.62-0.56,0.98c-0.14,0.37-0.22,0.74-0.22,1.1c0,0.51,0.19,0.92,0.57,1.22
		C335.99,118.63,336.58,118.78,337.38,118.78"/>
	<path class="st1" d="M348.45,117.82l0.33,0.32v0.63l-0.33,0.31h-6.19l-0.33-0.31v-0.63l0.33-0.32h0.5c0.77,0,1.29-0.14,1.59-0.41
		c0.29-0.27,0.44-0.72,0.44-1.32v-4.02h1.13v3.81c0,0.51-0.04,0.91-0.12,1.21c-0.08,0.3-0.24,0.55-0.46,0.73H348.45z M344.52,109.71
		c0-0.22,0.08-0.41,0.24-0.57c0.16-0.16,0.36-0.24,0.59-0.24c0.23,0,0.43,0.08,0.6,0.24c0.16,0.16,0.25,0.35,0.25,0.57
		s-0.08,0.41-0.25,0.56c-0.17,0.15-0.37,0.23-0.6,0.23c-0.23,0-0.43-0.08-0.59-0.23C344.6,110.12,344.52,109.93,344.52,109.71"/>
	<path class="st1" d="M354.64,117.82l0.33,0.32v0.63l-0.33,0.31h-6.19l-0.33-0.31v-0.63l0.33-0.32h0.5c0.76,0,1.29-0.14,1.59-0.41
		c0.29-0.27,0.44-0.72,0.44-1.32v-4.02h1.13v3.81c0,0.51-0.04,0.91-0.12,1.21c-0.08,0.3-0.24,0.55-0.46,0.73H354.64z M349.5,109.71
		c0-0.22,0.08-0.41,0.24-0.57c0.16-0.16,0.36-0.24,0.59-0.24c0.23,0,0.43,0.08,0.6,0.24c0.17,0.16,0.25,0.35,0.25,0.57
		s-0.08,0.41-0.25,0.56c-0.17,0.15-0.37,0.23-0.6,0.23c-0.23,0-0.43-0.08-0.59-0.23C349.58,110.12,349.5,109.93,349.5,109.71
		 M351.93,109.71c0-0.22,0.08-0.41,0.23-0.57c0.15-0.16,0.34-0.24,0.57-0.24c0.24,0,0.45,0.08,0.62,0.24s0.25,0.35,0.25,0.57
		s-0.08,0.41-0.25,0.56s-0.37,0.23-0.62,0.23c-0.22,0-0.41-0.08-0.57-0.23C352.01,110.12,351.93,109.93,351.93,109.71"/>
	<path class="st1" d="M357.97,115.92c0,0.45-0.04,0.87-0.13,1.25c-0.09,0.38-0.26,0.72-0.5,1c-0.24,0.28-0.57,0.51-0.99,0.67
		c-0.42,0.16-0.96,0.24-1.62,0.24h-0.08l-0.33-0.31v-0.63l0.33-0.32h0.5c0.34,0,0.63-0.04,0.85-0.13c0.22-0.08,0.4-0.2,0.53-0.35
		c0.13-0.15,0.21-0.32,0.26-0.52c0.04-0.2,0.07-0.41,0.07-0.65v-8.79h1.13V115.92z"/>
	<path class="st1" d="M364.14,115.81c0-0.42,0.18-0.86,0.55-1.31c0.37-0.46,0.84-0.9,1.41-1.32c0.58-0.42,1.22-0.81,1.92-1.17
		c0.7-0.36,1.4-0.65,2.07-0.9v-0.74h1.13v5.81c0,0.3,0.02,0.56,0.06,0.76c0.04,0.2,0.11,0.37,0.21,0.51
		c0.1,0.13,0.24,0.22,0.42,0.28c0.18,0.06,0.42,0.09,0.71,0.09h0.97l0.32,0.32v0.63l-0.32,0.32h-0.77c-0.44,0-0.8-0.04-1.1-0.13
		c-0.3-0.08-0.55-0.2-0.75-0.35c-0.2-0.15-0.35-0.32-0.47-0.52c-0.11-0.2-0.19-0.42-0.23-0.66c-0.36,0.07-0.75,0.13-1.19,0.16
		c-0.44,0.03-0.96,0.05-1.57,0.05c-0.52,0-0.99-0.05-1.41-0.14c-0.41-0.09-0.77-0.22-1.06-0.38c-0.29-0.16-0.51-0.36-0.68-0.58
		C364.22,116.3,364.14,116.06,364.14,115.81 M367.88,116.37c0.34,0,0.72-0.01,1.13-0.04c0.41-0.03,0.77-0.06,1.08-0.12v-3.84
		c-0.53,0.17-1.09,0.39-1.66,0.65c-0.57,0.27-1.09,0.55-1.56,0.84c-0.46,0.29-0.85,0.59-1.16,0.88c-0.3,0.29-0.46,0.55-0.46,0.76
		c0,0.12,0.04,0.24,0.12,0.35c0.08,0.11,0.22,0.2,0.42,0.27c0.2,0.07,0.47,0.13,0.81,0.17
		C366.94,116.35,367.37,116.37,367.88,116.37 M366.63,108.51c0-0.22,0.08-0.41,0.24-0.57c0.16-0.16,0.36-0.24,0.59-0.24
		c0.23,0,0.43,0.08,0.6,0.24c0.17,0.16,0.25,0.35,0.25,0.57s-0.08,0.41-0.25,0.56c-0.17,0.15-0.37,0.23-0.6,0.23
		c-0.23,0-0.43-0.08-0.59-0.23C366.71,108.92,366.63,108.73,366.63,108.51 M369.06,108.51c0-0.22,0.08-0.41,0.23-0.57
		c0.15-0.16,0.34-0.24,0.57-0.24c0.24,0,0.45,0.08,0.62,0.24c0.17,0.16,0.25,0.35,0.25,0.57s-0.08,0.41-0.25,0.56
		c-0.17,0.15-0.37,0.23-0.62,0.23c-0.22,0-0.41-0.08-0.57-0.23C369.14,108.92,369.06,108.73,369.06,108.51"/>
	<path class="st1" d="M379.79,117.82l0.33,0.31v0.63l-0.33,0.31h-6.19l-0.33-0.31v-0.63l0.33-0.31h0.5c0.76,0,1.29-0.14,1.59-0.41
		c0.29-0.27,0.44-0.72,0.44-1.32v-4.02h1.13v3.81c0,0.51-0.04,0.91-0.13,1.21c-0.08,0.3-0.23,0.55-0.46,0.73H379.79z M373.97,120.82
		c0-0.22,0.08-0.41,0.24-0.57c0.16-0.16,0.36-0.24,0.59-0.24c0.23,0,0.43,0.08,0.6,0.24c0.17,0.16,0.25,0.34,0.25,0.57
		c0,0.22-0.08,0.41-0.25,0.56c-0.17,0.15-0.37,0.23-0.6,0.23c-0.23,0-0.43-0.08-0.59-0.23
		C374.05,121.22,373.97,121.04,373.97,120.82 M376.41,120.82c0-0.22,0.08-0.41,0.23-0.57c0.16-0.16,0.34-0.24,0.57-0.24
		c0.24,0,0.45,0.08,0.62,0.24c0.16,0.16,0.25,0.34,0.25,0.57c0,0.22-0.08,0.41-0.25,0.56c-0.17,0.15-0.37,0.23-0.62,0.23
		c-0.22,0-0.41-0.08-0.57-0.23C376.48,121.22,376.41,121.04,376.41,120.82"/>
	<path class="st1" d="M385.98,117.82l0.33,0.32v0.63l-0.33,0.31h-6.19l-0.33-0.31v-0.63l0.33-0.32h0.5c0.76,0,1.29-0.14,1.59-0.41
		c0.29-0.27,0.44-0.72,0.44-1.32v-4.02h1.13v3.81c0,0.51-0.04,0.91-0.12,1.21c-0.08,0.3-0.24,0.55-0.46,0.73H385.98z M382.05,109.71
		c0-0.22,0.08-0.41,0.24-0.57c0.16-0.16,0.36-0.24,0.59-0.24c0.23,0,0.43,0.08,0.6,0.24c0.16,0.16,0.25,0.35,0.25,0.57
		s-0.08,0.41-0.25,0.56c-0.17,0.15-0.37,0.23-0.6,0.23c-0.23,0-0.43-0.08-0.59-0.23C382.13,110.12,382.05,109.93,382.05,109.71"/>
	<path class="st1" d="M389.34,115.98c0.47-0.57,0.94-1.1,1.43-1.6c0.49-0.5,1-0.93,1.53-1.3c0.53-0.37,1.07-0.66,1.64-0.87
		c0.57-0.21,1.17-0.32,1.8-0.32c1.4,0,2.46,0.49,3.19,1.47c0.73,0.98,1.09,2.46,1.09,4.46v1.26h-14.04l-0.33-0.31v-0.71l0.33-0.24
		h2.23v-10.43h1.13V115.98z M395.54,113.16c-1.01,0-2.02,0.34-3.04,1.04c-1.02,0.69-2.07,1.78-3.15,3.24v0.38h9.54
		c0-1.66-0.28-2.85-0.85-3.58C397.47,113.52,396.64,113.16,395.54,113.16"/>
	<path class="st1" d="M408.36,117.05c0,0.14,0,0.27-0.01,0.4c-0.01,0.13-0.01,0.25-0.02,0.37h1.57l0.32,0.31v0.63l-0.32,0.32h-1.75
		c-0.29,1.27-0.87,2.19-1.73,2.75c-0.87,0.56-1.95,0.84-3.26,0.84l-0.17-1.26c1.15,0,2.05-0.18,2.69-0.54
		c0.64-0.36,1.08-0.96,1.34-1.8h-1.52c-0.79,0-1.43-0.07-1.92-0.2c-0.5-0.14-0.88-0.32-1.15-0.55c-0.27-0.23-0.46-0.5-0.56-0.8
		c-0.1-0.3-0.15-0.62-0.15-0.95c0-0.58,0.1-1.14,0.31-1.69c0.2-0.55,0.48-1.04,0.82-1.47c0.34-0.43,0.72-0.78,1.15-1.03
		c0.43-0.26,0.86-0.39,1.29-0.39c0.49,0,0.92,0.14,1.31,0.43c0.38,0.29,0.71,0.67,0.97,1.14c0.26,0.47,0.46,1.01,0.6,1.62
		C408.29,115.8,408.36,116.42,408.36,117.05 M402.85,116.25c0,0.23,0.03,0.44,0.1,0.63c0.07,0.19,0.2,0.35,0.41,0.5
		c0.2,0.14,0.51,0.25,0.9,0.33c0.39,0.08,0.92,0.12,1.59,0.12h1.36c0.01-0.05,0.02-0.13,0.02-0.24v-0.26c0-0.53-0.05-1.05-0.14-1.53
		c-0.1-0.49-0.23-0.92-0.42-1.3c-0.18-0.38-0.41-0.68-0.68-0.9c-0.27-0.22-0.57-0.33-0.91-0.33c-0.27,0-0.53,0.09-0.8,0.26
		c-0.27,0.17-0.51,0.4-0.72,0.69c-0.21,0.28-0.38,0.61-0.52,0.96C402.91,115.52,402.85,115.88,402.85,116.25"/>
	<path class="st1" d="M413.22,115.92c0,0.45-0.04,0.87-0.13,1.25c-0.09,0.38-0.26,0.72-0.5,1c-0.24,0.28-0.57,0.51-0.99,0.67
		c-0.42,0.16-0.96,0.24-1.62,0.24h-0.08l-0.33-0.31v-0.63l0.33-0.32h0.5c0.34,0,0.63-0.04,0.85-0.13c0.22-0.08,0.4-0.2,0.52-0.35
		c0.13-0.15,0.21-0.32,0.26-0.52c0.04-0.2,0.07-0.41,0.07-0.65v-8.79h1.13V115.92z"/>
</g>
<rect x="416.71" y="107.39" class="st1" width="1.13" height="11.69"/>
<g>
	<path class="st1" d="M423.34,115.81c0-0.42,0.18-0.86,0.55-1.31c0.37-0.46,0.84-0.9,1.41-1.32c0.58-0.42,1.22-0.81,1.92-1.17
		c0.7-0.36,1.4-0.65,2.07-0.9v-0.74h1.13v5.81c0,0.3,0.02,0.56,0.06,0.76c0.04,0.2,0.11,0.37,0.21,0.51
		c0.1,0.13,0.24,0.22,0.42,0.28c0.18,0.06,0.42,0.09,0.71,0.09h0.97l0.32,0.32v0.63l-0.32,0.32h-0.77c-0.44,0-0.8-0.04-1.1-0.13
		c-0.3-0.08-0.55-0.2-0.75-0.35c-0.2-0.15-0.35-0.32-0.46-0.52c-0.11-0.2-0.19-0.42-0.23-0.66c-0.36,0.07-0.75,0.13-1.19,0.16
		c-0.44,0.03-0.96,0.05-1.57,0.05c-0.52,0-0.99-0.05-1.41-0.14c-0.41-0.09-0.77-0.22-1.06-0.38c-0.29-0.16-0.51-0.36-0.68-0.58
		C423.42,116.3,423.34,116.06,423.34,115.81 M427.09,116.37c0.34,0,0.72-0.01,1.13-0.04c0.41-0.03,0.77-0.06,1.08-0.12v-3.84
		c-0.53,0.17-1.09,0.39-1.66,0.65c-0.57,0.27-1.09,0.55-1.56,0.84c-0.46,0.29-0.85,0.59-1.16,0.88c-0.3,0.29-0.46,0.55-0.46,0.76
		c0,0.12,0.04,0.24,0.12,0.35c0.08,0.11,0.22,0.2,0.41,0.27c0.2,0.07,0.47,0.13,0.81,0.17
		C426.15,116.35,426.58,116.37,427.09,116.37 M425.84,108.51c0-0.22,0.08-0.41,0.24-0.57c0.16-0.16,0.36-0.24,0.59-0.24
		c0.23,0,0.44,0.08,0.6,0.24c0.17,0.16,0.25,0.35,0.25,0.57s-0.08,0.41-0.25,0.56c-0.17,0.15-0.37,0.23-0.6,0.23
		c-0.23,0-0.43-0.08-0.59-0.23C425.92,108.92,425.84,108.73,425.84,108.51 M428.27,108.51c0-0.22,0.08-0.41,0.23-0.57
		c0.15-0.16,0.34-0.24,0.57-0.24c0.24,0,0.45,0.08,0.62,0.24c0.17,0.16,0.25,0.35,0.25,0.57s-0.08,0.41-0.25,0.56
		c-0.17,0.15-0.37,0.23-0.62,0.23c-0.22,0-0.41-0.08-0.57-0.23C428.35,108.92,428.27,108.73,428.27,108.51"/>
	<path class="st1" d="M436.13,115.92c0,0.45-0.04,0.87-0.13,1.25c-0.09,0.38-0.26,0.72-0.5,1c-0.24,0.28-0.57,0.51-0.99,0.67
		c-0.42,0.16-0.96,0.24-1.62,0.24h-0.08l-0.33-0.31v-0.63l0.33-0.32h0.5c0.34,0,0.63-0.04,0.85-0.13c0.22-0.08,0.4-0.2,0.52-0.35
		c0.13-0.15,0.21-0.32,0.26-0.52c0.04-0.2,0.07-0.41,0.07-0.65v-8.79h1.13V115.92z"/>
	<path class="st1" d="M440.76,107.39v8.79c0,0.6,0.12,1.02,0.37,1.27c0.25,0.25,0.71,0.37,1.39,0.37h0.47l0.33,0.31v0.63l-0.33,0.31
		h-0.08c-0.67,0-1.21-0.08-1.63-0.24c-0.42-0.16-0.75-0.39-1-0.67c-0.24-0.28-0.42-0.62-0.51-1c-0.09-0.38-0.14-0.8-0.14-1.25v-8.52
		H440.76z"/>
	<path class="st1" d="M451.36,109.25c-1.41,0.41-2.61,1-3.61,1.77c-0.99,0.77-1.77,1.63-2.34,2.59h3.06c1.11,0,2.05,0.1,2.83,0.31
		c0.78,0.21,1.41,0.48,1.9,0.83c0.49,0.35,0.85,0.76,1.07,1.24c0.23,0.48,0.34,0.99,0.34,1.53c0,0.53-0.07,1.04-0.22,1.56h-11.42
		l-0.33-0.32v-0.63l0.33-0.31h10.51c0-0.47-0.08-0.9-0.24-1.27c-0.16-0.37-0.43-0.69-0.81-0.95c-0.38-0.26-0.87-0.45-1.49-0.58
		c-0.62-0.13-1.38-0.2-2.29-0.2h-3.83l-0.85-0.95c0.33-0.65,0.74-1.27,1.21-1.87c0.47-0.59,1-1.14,1.59-1.64
		c0.59-0.5,1.23-0.95,1.92-1.34c0.69-0.39,1.41-0.72,2.18-0.97L451.36,109.25z"/>
	<path class="st1" d="M462.97,117.05c0,0.14,0,0.27-0.01,0.4c-0.01,0.13-0.01,0.25-0.02,0.37h1.57l0.32,0.31v0.63l-0.32,0.32h-1.75
		c-0.29,1.27-0.87,2.19-1.73,2.75c-0.87,0.56-1.95,0.84-3.26,0.84l-0.17-1.26c1.15,0,2.05-0.18,2.69-0.54
		c0.64-0.36,1.08-0.96,1.34-1.8h-1.52c-0.79,0-1.43-0.07-1.92-0.2c-0.5-0.14-0.88-0.32-1.15-0.55c-0.27-0.23-0.46-0.5-0.56-0.8
		c-0.1-0.3-0.15-0.62-0.15-0.95c0-0.58,0.1-1.14,0.31-1.69c0.21-0.55,0.48-1.04,0.82-1.47c0.34-0.43,0.72-0.78,1.15-1.03
		c0.43-0.26,0.86-0.39,1.29-0.39c0.49,0,0.92,0.14,1.31,0.43c0.38,0.29,0.71,0.67,0.97,1.14c0.26,0.47,0.46,1.01,0.6,1.62
		C462.9,115.8,462.97,116.42,462.97,117.05 M457.46,116.25c0,0.23,0.03,0.44,0.1,0.63c0.07,0.19,0.2,0.35,0.41,0.5
		c0.2,0.14,0.51,0.25,0.9,0.33c0.39,0.08,0.92,0.12,1.59,0.12h1.36c0.01-0.05,0.02-0.13,0.02-0.24v-0.26c0-0.53-0.05-1.05-0.14-1.53
		c-0.1-0.49-0.23-0.92-0.42-1.3c-0.18-0.38-0.41-0.68-0.67-0.9c-0.27-0.22-0.57-0.33-0.92-0.33c-0.27,0-0.53,0.09-0.8,0.26
		c-0.27,0.17-0.51,0.4-0.72,0.69c-0.21,0.28-0.38,0.61-0.52,0.96C457.52,115.52,457.46,115.88,457.46,116.25"/>
	<path class="st1" d="M467.83,115.92c0,0.45-0.04,0.87-0.13,1.25c-0.09,0.38-0.26,0.72-0.5,1c-0.24,0.28-0.57,0.51-0.99,0.67
		c-0.42,0.16-0.96,0.24-1.62,0.24h-0.08l-0.33-0.31v-0.63l0.33-0.32h0.5c0.34,0,0.63-0.04,0.85-0.13c0.22-0.08,0.4-0.2,0.52-0.35
		c0.13-0.15,0.21-0.32,0.26-0.52c0.04-0.2,0.07-0.41,0.07-0.65v-8.79h1.13V115.92z"/>
</g>
<rect x="471.33" y="107.39" class="st1" width="1.13" height="11.69"/>
<g>
	<path class="st2" d="M161.28,19.6c0,0-86.54-6.19-114.78,85.34c0,0-5.13,14.74-0.87,36.62c0,0,20.82-49.94-45.19-57.1
		c0,0,78.29-4.26,43.11,68.37c0,0-13.25-20.39,3.41-59.14c16.66-38.75,47.68-83.66,124.12-82.03c0,0-10.23,87.22-112.55,102.82
		C58.53,114.47,148.28,97.25,161.28,19.6"/>
	<path class="st1" d="M139.19,30.25c-2.45,0-4.44,1.98-4.44,4.42c0,2.43,1.99,4.42,4.44,4.42c2.45,0,4.43-1.99,4.43-4.42
		C143.62,32.23,141.64,30.25,139.19,30.25 M138.63,33.32c-0.38,0-0.7-0.31-0.7-0.7c0-0.39,0.32-0.7,0.7-0.7c0.39,0,0.7,0.31,0.7,0.7
		C139.33,33,139.02,33.32,138.63,33.32"/>
	<path class="st3" d="M141.8,34.26c-0.63,0-1.38,0.14-2.19,0.56c-0.79,0.35-1.46,0.54-2.18,0.54c-0.76,0-1.59-0.22-2.68-0.69
		c0,2.43,1.99,4.42,4.44,4.42c2.45,0,4.43-1.99,4.43-4.42C143.62,34.67,142.9,34.26,141.8,34.26"/>
	<path class="st2" d="M133.58,39.64c-2.26-2.16-3.31-4.94-2.93-7.1c-1.13,2.21-0.28,5.48,2.2,7.85c2.49,2.38,5.79,3.07,7.95,1.85
		C138.66,42.73,135.84,41.8,133.58,39.64"/>
</g>
</svg>
